G75*
%MOIN*%
%OFA0B0*%
%FSLAX25Y25*%
%IPPOS*%
%LPD*%
%AMOC8*
5,1,8,0,0,1.08239X$1,22.5*
%
%ADD10C,0.00800*%
%ADD11R,0.04731X0.04337*%
%ADD12R,0.05912X0.05912*%
%ADD13R,0.03550X0.06306*%
%ADD14R,0.05912X0.07880*%
%ADD15R,0.07487X0.05912*%
%ADD16R,0.05518X0.06306*%
%ADD17R,0.03117X0.04298*%
%ADD18R,0.04337X0.04731*%
%ADD19R,0.06699X0.07487*%
%ADD20C,0.08668*%
%ADD21C,0.07900*%
%ADD22C,0.00000*%
%ADD23C,0.13400*%
%ADD24C,0.04400*%
%ADD25C,0.07300*%
D10*
X0010000Y0000000D02*
X0150000Y0000000D01*
X0150242Y0000003D01*
X0150483Y0000012D01*
X0150724Y0000026D01*
X0150965Y0000047D01*
X0151205Y0000073D01*
X0151445Y0000105D01*
X0151684Y0000143D01*
X0151921Y0000186D01*
X0152158Y0000236D01*
X0152393Y0000291D01*
X0152627Y0000351D01*
X0152859Y0000418D01*
X0153090Y0000489D01*
X0153319Y0000567D01*
X0153546Y0000650D01*
X0153771Y0000738D01*
X0153994Y0000832D01*
X0154214Y0000931D01*
X0154432Y0001036D01*
X0154647Y0001145D01*
X0154860Y0001260D01*
X0155070Y0001380D01*
X0155276Y0001505D01*
X0155480Y0001635D01*
X0155681Y0001770D01*
X0155878Y0001910D01*
X0156072Y0002054D01*
X0156262Y0002203D01*
X0156448Y0002357D01*
X0156631Y0002515D01*
X0156810Y0002677D01*
X0156985Y0002844D01*
X0157156Y0003015D01*
X0157323Y0003190D01*
X0157485Y0003369D01*
X0157643Y0003552D01*
X0157797Y0003738D01*
X0157946Y0003928D01*
X0158090Y0004122D01*
X0158230Y0004319D01*
X0158365Y0004520D01*
X0158495Y0004724D01*
X0158620Y0004930D01*
X0158740Y0005140D01*
X0158855Y0005353D01*
X0158964Y0005568D01*
X0159069Y0005786D01*
X0159168Y0006006D01*
X0159262Y0006229D01*
X0159350Y0006454D01*
X0159433Y0006681D01*
X0159511Y0006910D01*
X0159582Y0007141D01*
X0159649Y0007373D01*
X0159709Y0007607D01*
X0159764Y0007842D01*
X0159814Y0008079D01*
X0159857Y0008316D01*
X0159895Y0008555D01*
X0159927Y0008795D01*
X0159953Y0009035D01*
X0159974Y0009276D01*
X0159988Y0009517D01*
X0159997Y0009758D01*
X0160000Y0010000D01*
X0160000Y0130000D01*
X0159997Y0130242D01*
X0159988Y0130483D01*
X0159974Y0130724D01*
X0159953Y0130965D01*
X0159927Y0131205D01*
X0159895Y0131445D01*
X0159857Y0131684D01*
X0159814Y0131921D01*
X0159764Y0132158D01*
X0159709Y0132393D01*
X0159649Y0132627D01*
X0159582Y0132859D01*
X0159511Y0133090D01*
X0159433Y0133319D01*
X0159350Y0133546D01*
X0159262Y0133771D01*
X0159168Y0133994D01*
X0159069Y0134214D01*
X0158964Y0134432D01*
X0158855Y0134647D01*
X0158740Y0134860D01*
X0158620Y0135070D01*
X0158495Y0135276D01*
X0158365Y0135480D01*
X0158230Y0135681D01*
X0158090Y0135878D01*
X0157946Y0136072D01*
X0157797Y0136262D01*
X0157643Y0136448D01*
X0157485Y0136631D01*
X0157323Y0136810D01*
X0157156Y0136985D01*
X0156985Y0137156D01*
X0156810Y0137323D01*
X0156631Y0137485D01*
X0156448Y0137643D01*
X0156262Y0137797D01*
X0156072Y0137946D01*
X0155878Y0138090D01*
X0155681Y0138230D01*
X0155480Y0138365D01*
X0155276Y0138495D01*
X0155070Y0138620D01*
X0154860Y0138740D01*
X0154647Y0138855D01*
X0154432Y0138964D01*
X0154214Y0139069D01*
X0153994Y0139168D01*
X0153771Y0139262D01*
X0153546Y0139350D01*
X0153319Y0139433D01*
X0153090Y0139511D01*
X0152859Y0139582D01*
X0152627Y0139649D01*
X0152393Y0139709D01*
X0152158Y0139764D01*
X0151921Y0139814D01*
X0151684Y0139857D01*
X0151445Y0139895D01*
X0151205Y0139927D01*
X0150965Y0139953D01*
X0150724Y0139974D01*
X0150483Y0139988D01*
X0150242Y0139997D01*
X0150000Y0140000D01*
X0010000Y0140000D01*
X0009758Y0139997D01*
X0009517Y0139988D01*
X0009276Y0139974D01*
X0009035Y0139953D01*
X0008795Y0139927D01*
X0008555Y0139895D01*
X0008316Y0139857D01*
X0008079Y0139814D01*
X0007842Y0139764D01*
X0007607Y0139709D01*
X0007373Y0139649D01*
X0007141Y0139582D01*
X0006910Y0139511D01*
X0006681Y0139433D01*
X0006454Y0139350D01*
X0006229Y0139262D01*
X0006006Y0139168D01*
X0005786Y0139069D01*
X0005568Y0138964D01*
X0005353Y0138855D01*
X0005140Y0138740D01*
X0004930Y0138620D01*
X0004724Y0138495D01*
X0004520Y0138365D01*
X0004319Y0138230D01*
X0004122Y0138090D01*
X0003928Y0137946D01*
X0003738Y0137797D01*
X0003552Y0137643D01*
X0003369Y0137485D01*
X0003190Y0137323D01*
X0003015Y0137156D01*
X0002844Y0136985D01*
X0002677Y0136810D01*
X0002515Y0136631D01*
X0002357Y0136448D01*
X0002203Y0136262D01*
X0002054Y0136072D01*
X0001910Y0135878D01*
X0001770Y0135681D01*
X0001635Y0135480D01*
X0001505Y0135276D01*
X0001380Y0135070D01*
X0001260Y0134860D01*
X0001145Y0134647D01*
X0001036Y0134432D01*
X0000931Y0134214D01*
X0000832Y0133994D01*
X0000738Y0133771D01*
X0000650Y0133546D01*
X0000567Y0133319D01*
X0000489Y0133090D01*
X0000418Y0132859D01*
X0000351Y0132627D01*
X0000291Y0132393D01*
X0000236Y0132158D01*
X0000186Y0131921D01*
X0000143Y0131684D01*
X0000105Y0131445D01*
X0000073Y0131205D01*
X0000047Y0130965D01*
X0000026Y0130724D01*
X0000012Y0130483D01*
X0000003Y0130242D01*
X0000000Y0130000D01*
X0000000Y0010000D01*
X0000003Y0009758D01*
X0000012Y0009517D01*
X0000026Y0009276D01*
X0000047Y0009035D01*
X0000073Y0008795D01*
X0000105Y0008555D01*
X0000143Y0008316D01*
X0000186Y0008079D01*
X0000236Y0007842D01*
X0000291Y0007607D01*
X0000351Y0007373D01*
X0000418Y0007141D01*
X0000489Y0006910D01*
X0000567Y0006681D01*
X0000650Y0006454D01*
X0000738Y0006229D01*
X0000832Y0006006D01*
X0000931Y0005786D01*
X0001036Y0005568D01*
X0001145Y0005353D01*
X0001260Y0005140D01*
X0001380Y0004930D01*
X0001505Y0004724D01*
X0001635Y0004520D01*
X0001770Y0004319D01*
X0001910Y0004122D01*
X0002054Y0003928D01*
X0002203Y0003738D01*
X0002357Y0003552D01*
X0002515Y0003369D01*
X0002677Y0003190D01*
X0002844Y0003015D01*
X0003015Y0002844D01*
X0003190Y0002677D01*
X0003369Y0002515D01*
X0003552Y0002357D01*
X0003738Y0002203D01*
X0003928Y0002054D01*
X0004122Y0001910D01*
X0004319Y0001770D01*
X0004520Y0001635D01*
X0004724Y0001505D01*
X0004930Y0001380D01*
X0005140Y0001260D01*
X0005353Y0001145D01*
X0005568Y0001036D01*
X0005786Y0000931D01*
X0006006Y0000832D01*
X0006229Y0000738D01*
X0006454Y0000650D01*
X0006681Y0000567D01*
X0006910Y0000489D01*
X0007141Y0000418D01*
X0007373Y0000351D01*
X0007607Y0000291D01*
X0007842Y0000236D01*
X0008079Y0000186D01*
X0008316Y0000143D01*
X0008555Y0000105D01*
X0008795Y0000073D01*
X0009035Y0000047D01*
X0009276Y0000026D01*
X0009517Y0000012D01*
X0009758Y0000003D01*
X0010000Y0000000D01*
D11*
X0055654Y0061000D03*
X0062346Y0061000D03*
D12*
X0056000Y0042480D03*
X0056000Y0027520D03*
D13*
X0076634Y0117551D03*
X0072303Y0119126D03*
X0080965Y0119126D03*
X0085295Y0119913D03*
X0089626Y0119126D03*
X0093957Y0119913D03*
X0098287Y0119126D03*
X0102618Y0119126D03*
D14*
X0105728Y0130346D03*
X0053957Y0134283D03*
D15*
X0076988Y0078575D03*
X0099429Y0078575D03*
D16*
X0062346Y0070000D03*
X0055654Y0070000D03*
D17*
X0071260Y0057079D03*
X0075000Y0057079D03*
X0078740Y0057079D03*
X0088260Y0057079D03*
X0092000Y0057079D03*
X0095740Y0057079D03*
X0095740Y0046882D03*
X0088260Y0046882D03*
X0078740Y0046882D03*
X0071260Y0046882D03*
D18*
X0099654Y0066000D03*
X0106346Y0066000D03*
X0098346Y0021000D03*
X0091654Y0021000D03*
X0085346Y0021000D03*
X0078654Y0021000D03*
D19*
X0075488Y0069000D03*
X0086512Y0069000D03*
D20*
X0085000Y0038134D02*
X0085000Y0029866D01*
X0075000Y0029866D02*
X0075000Y0038134D01*
X0065000Y0038134D02*
X0065000Y0029866D01*
X0095000Y0029866D02*
X0095000Y0038134D01*
D21*
X0135000Y0035000D03*
X0135000Y0025000D03*
X0135000Y0015000D03*
X0135000Y0045000D03*
X0135000Y0055000D03*
X0135000Y0065000D03*
X0135000Y0075000D03*
X0135000Y0085000D03*
X0135000Y0095000D03*
X0135000Y0105000D03*
X0135000Y0115000D03*
X0135000Y0125000D03*
X0025000Y0125000D03*
X0025000Y0115000D03*
X0025000Y0105000D03*
X0025000Y0095000D03*
X0025000Y0085000D03*
X0025000Y0075000D03*
X0025000Y0065000D03*
X0025000Y0055000D03*
X0025000Y0045000D03*
X0025000Y0035000D03*
X0025000Y0025000D03*
X0025000Y0015000D03*
D22*
X0003500Y0010000D02*
X0003502Y0010161D01*
X0003508Y0010321D01*
X0003518Y0010482D01*
X0003532Y0010642D01*
X0003550Y0010802D01*
X0003571Y0010961D01*
X0003597Y0011120D01*
X0003627Y0011278D01*
X0003660Y0011435D01*
X0003698Y0011592D01*
X0003739Y0011747D01*
X0003784Y0011901D01*
X0003833Y0012054D01*
X0003886Y0012206D01*
X0003942Y0012357D01*
X0004003Y0012506D01*
X0004066Y0012654D01*
X0004134Y0012800D01*
X0004205Y0012944D01*
X0004279Y0013086D01*
X0004357Y0013227D01*
X0004439Y0013365D01*
X0004524Y0013502D01*
X0004612Y0013636D01*
X0004704Y0013768D01*
X0004799Y0013898D01*
X0004897Y0014026D01*
X0004998Y0014151D01*
X0005102Y0014273D01*
X0005209Y0014393D01*
X0005319Y0014510D01*
X0005432Y0014625D01*
X0005548Y0014736D01*
X0005667Y0014845D01*
X0005788Y0014950D01*
X0005912Y0015053D01*
X0006038Y0015153D01*
X0006166Y0015249D01*
X0006297Y0015342D01*
X0006431Y0015432D01*
X0006566Y0015519D01*
X0006704Y0015602D01*
X0006843Y0015682D01*
X0006985Y0015758D01*
X0007128Y0015831D01*
X0007273Y0015900D01*
X0007420Y0015966D01*
X0007568Y0016028D01*
X0007718Y0016086D01*
X0007869Y0016141D01*
X0008022Y0016192D01*
X0008176Y0016239D01*
X0008331Y0016282D01*
X0008487Y0016321D01*
X0008643Y0016357D01*
X0008801Y0016388D01*
X0008959Y0016416D01*
X0009118Y0016440D01*
X0009278Y0016460D01*
X0009438Y0016476D01*
X0009598Y0016488D01*
X0009759Y0016496D01*
X0009920Y0016500D01*
X0010080Y0016500D01*
X0010241Y0016496D01*
X0010402Y0016488D01*
X0010562Y0016476D01*
X0010722Y0016460D01*
X0010882Y0016440D01*
X0011041Y0016416D01*
X0011199Y0016388D01*
X0011357Y0016357D01*
X0011513Y0016321D01*
X0011669Y0016282D01*
X0011824Y0016239D01*
X0011978Y0016192D01*
X0012131Y0016141D01*
X0012282Y0016086D01*
X0012432Y0016028D01*
X0012580Y0015966D01*
X0012727Y0015900D01*
X0012872Y0015831D01*
X0013015Y0015758D01*
X0013157Y0015682D01*
X0013296Y0015602D01*
X0013434Y0015519D01*
X0013569Y0015432D01*
X0013703Y0015342D01*
X0013834Y0015249D01*
X0013962Y0015153D01*
X0014088Y0015053D01*
X0014212Y0014950D01*
X0014333Y0014845D01*
X0014452Y0014736D01*
X0014568Y0014625D01*
X0014681Y0014510D01*
X0014791Y0014393D01*
X0014898Y0014273D01*
X0015002Y0014151D01*
X0015103Y0014026D01*
X0015201Y0013898D01*
X0015296Y0013768D01*
X0015388Y0013636D01*
X0015476Y0013502D01*
X0015561Y0013365D01*
X0015643Y0013227D01*
X0015721Y0013086D01*
X0015795Y0012944D01*
X0015866Y0012800D01*
X0015934Y0012654D01*
X0015997Y0012506D01*
X0016058Y0012357D01*
X0016114Y0012206D01*
X0016167Y0012054D01*
X0016216Y0011901D01*
X0016261Y0011747D01*
X0016302Y0011592D01*
X0016340Y0011435D01*
X0016373Y0011278D01*
X0016403Y0011120D01*
X0016429Y0010961D01*
X0016450Y0010802D01*
X0016468Y0010642D01*
X0016482Y0010482D01*
X0016492Y0010321D01*
X0016498Y0010161D01*
X0016500Y0010000D01*
X0016498Y0009839D01*
X0016492Y0009679D01*
X0016482Y0009518D01*
X0016468Y0009358D01*
X0016450Y0009198D01*
X0016429Y0009039D01*
X0016403Y0008880D01*
X0016373Y0008722D01*
X0016340Y0008565D01*
X0016302Y0008408D01*
X0016261Y0008253D01*
X0016216Y0008099D01*
X0016167Y0007946D01*
X0016114Y0007794D01*
X0016058Y0007643D01*
X0015997Y0007494D01*
X0015934Y0007346D01*
X0015866Y0007200D01*
X0015795Y0007056D01*
X0015721Y0006914D01*
X0015643Y0006773D01*
X0015561Y0006635D01*
X0015476Y0006498D01*
X0015388Y0006364D01*
X0015296Y0006232D01*
X0015201Y0006102D01*
X0015103Y0005974D01*
X0015002Y0005849D01*
X0014898Y0005727D01*
X0014791Y0005607D01*
X0014681Y0005490D01*
X0014568Y0005375D01*
X0014452Y0005264D01*
X0014333Y0005155D01*
X0014212Y0005050D01*
X0014088Y0004947D01*
X0013962Y0004847D01*
X0013834Y0004751D01*
X0013703Y0004658D01*
X0013569Y0004568D01*
X0013434Y0004481D01*
X0013296Y0004398D01*
X0013157Y0004318D01*
X0013015Y0004242D01*
X0012872Y0004169D01*
X0012727Y0004100D01*
X0012580Y0004034D01*
X0012432Y0003972D01*
X0012282Y0003914D01*
X0012131Y0003859D01*
X0011978Y0003808D01*
X0011824Y0003761D01*
X0011669Y0003718D01*
X0011513Y0003679D01*
X0011357Y0003643D01*
X0011199Y0003612D01*
X0011041Y0003584D01*
X0010882Y0003560D01*
X0010722Y0003540D01*
X0010562Y0003524D01*
X0010402Y0003512D01*
X0010241Y0003504D01*
X0010080Y0003500D01*
X0009920Y0003500D01*
X0009759Y0003504D01*
X0009598Y0003512D01*
X0009438Y0003524D01*
X0009278Y0003540D01*
X0009118Y0003560D01*
X0008959Y0003584D01*
X0008801Y0003612D01*
X0008643Y0003643D01*
X0008487Y0003679D01*
X0008331Y0003718D01*
X0008176Y0003761D01*
X0008022Y0003808D01*
X0007869Y0003859D01*
X0007718Y0003914D01*
X0007568Y0003972D01*
X0007420Y0004034D01*
X0007273Y0004100D01*
X0007128Y0004169D01*
X0006985Y0004242D01*
X0006843Y0004318D01*
X0006704Y0004398D01*
X0006566Y0004481D01*
X0006431Y0004568D01*
X0006297Y0004658D01*
X0006166Y0004751D01*
X0006038Y0004847D01*
X0005912Y0004947D01*
X0005788Y0005050D01*
X0005667Y0005155D01*
X0005548Y0005264D01*
X0005432Y0005375D01*
X0005319Y0005490D01*
X0005209Y0005607D01*
X0005102Y0005727D01*
X0004998Y0005849D01*
X0004897Y0005974D01*
X0004799Y0006102D01*
X0004704Y0006232D01*
X0004612Y0006364D01*
X0004524Y0006498D01*
X0004439Y0006635D01*
X0004357Y0006773D01*
X0004279Y0006914D01*
X0004205Y0007056D01*
X0004134Y0007200D01*
X0004066Y0007346D01*
X0004003Y0007494D01*
X0003942Y0007643D01*
X0003886Y0007794D01*
X0003833Y0007946D01*
X0003784Y0008099D01*
X0003739Y0008253D01*
X0003698Y0008408D01*
X0003660Y0008565D01*
X0003627Y0008722D01*
X0003597Y0008880D01*
X0003571Y0009039D01*
X0003550Y0009198D01*
X0003532Y0009358D01*
X0003518Y0009518D01*
X0003508Y0009679D01*
X0003502Y0009839D01*
X0003500Y0010000D01*
X0043000Y0005000D02*
X0043002Y0005089D01*
X0043008Y0005178D01*
X0043018Y0005267D01*
X0043032Y0005355D01*
X0043049Y0005442D01*
X0043071Y0005528D01*
X0043097Y0005614D01*
X0043126Y0005698D01*
X0043159Y0005781D01*
X0043195Y0005862D01*
X0043236Y0005942D01*
X0043279Y0006019D01*
X0043326Y0006095D01*
X0043377Y0006168D01*
X0043430Y0006239D01*
X0043487Y0006308D01*
X0043547Y0006374D01*
X0043610Y0006438D01*
X0043675Y0006498D01*
X0043743Y0006556D01*
X0043814Y0006610D01*
X0043887Y0006661D01*
X0043962Y0006709D01*
X0044039Y0006754D01*
X0044118Y0006795D01*
X0044199Y0006832D01*
X0044281Y0006866D01*
X0044365Y0006897D01*
X0044450Y0006923D01*
X0044536Y0006946D01*
X0044623Y0006964D01*
X0044711Y0006979D01*
X0044800Y0006990D01*
X0044889Y0006997D01*
X0044978Y0007000D01*
X0045067Y0006999D01*
X0045156Y0006994D01*
X0045244Y0006985D01*
X0045333Y0006972D01*
X0045420Y0006955D01*
X0045507Y0006935D01*
X0045593Y0006910D01*
X0045677Y0006882D01*
X0045760Y0006850D01*
X0045842Y0006814D01*
X0045922Y0006775D01*
X0046000Y0006732D01*
X0046076Y0006686D01*
X0046150Y0006636D01*
X0046222Y0006583D01*
X0046291Y0006527D01*
X0046358Y0006468D01*
X0046422Y0006406D01*
X0046483Y0006342D01*
X0046542Y0006274D01*
X0046597Y0006204D01*
X0046649Y0006132D01*
X0046698Y0006057D01*
X0046743Y0005981D01*
X0046785Y0005902D01*
X0046823Y0005822D01*
X0046858Y0005740D01*
X0046889Y0005656D01*
X0046917Y0005571D01*
X0046940Y0005485D01*
X0046960Y0005398D01*
X0046976Y0005311D01*
X0046988Y0005222D01*
X0046996Y0005134D01*
X0047000Y0005045D01*
X0047000Y0004955D01*
X0046996Y0004866D01*
X0046988Y0004778D01*
X0046976Y0004689D01*
X0046960Y0004602D01*
X0046940Y0004515D01*
X0046917Y0004429D01*
X0046889Y0004344D01*
X0046858Y0004260D01*
X0046823Y0004178D01*
X0046785Y0004098D01*
X0046743Y0004019D01*
X0046698Y0003943D01*
X0046649Y0003868D01*
X0046597Y0003796D01*
X0046542Y0003726D01*
X0046483Y0003658D01*
X0046422Y0003594D01*
X0046358Y0003532D01*
X0046291Y0003473D01*
X0046222Y0003417D01*
X0046150Y0003364D01*
X0046076Y0003314D01*
X0046000Y0003268D01*
X0045922Y0003225D01*
X0045842Y0003186D01*
X0045760Y0003150D01*
X0045677Y0003118D01*
X0045593Y0003090D01*
X0045507Y0003065D01*
X0045420Y0003045D01*
X0045333Y0003028D01*
X0045244Y0003015D01*
X0045156Y0003006D01*
X0045067Y0003001D01*
X0044978Y0003000D01*
X0044889Y0003003D01*
X0044800Y0003010D01*
X0044711Y0003021D01*
X0044623Y0003036D01*
X0044536Y0003054D01*
X0044450Y0003077D01*
X0044365Y0003103D01*
X0044281Y0003134D01*
X0044199Y0003168D01*
X0044118Y0003205D01*
X0044039Y0003246D01*
X0043962Y0003291D01*
X0043887Y0003339D01*
X0043814Y0003390D01*
X0043743Y0003444D01*
X0043675Y0003502D01*
X0043610Y0003562D01*
X0043547Y0003626D01*
X0043487Y0003692D01*
X0043430Y0003761D01*
X0043377Y0003832D01*
X0043326Y0003905D01*
X0043279Y0003981D01*
X0043236Y0004058D01*
X0043195Y0004138D01*
X0043159Y0004219D01*
X0043126Y0004302D01*
X0043097Y0004386D01*
X0043071Y0004472D01*
X0043049Y0004558D01*
X0043032Y0004645D01*
X0043018Y0004733D01*
X0043008Y0004822D01*
X0043002Y0004911D01*
X0043000Y0005000D01*
X0113000Y0005000D02*
X0113002Y0005089D01*
X0113008Y0005178D01*
X0113018Y0005267D01*
X0113032Y0005355D01*
X0113049Y0005442D01*
X0113071Y0005528D01*
X0113097Y0005614D01*
X0113126Y0005698D01*
X0113159Y0005781D01*
X0113195Y0005862D01*
X0113236Y0005942D01*
X0113279Y0006019D01*
X0113326Y0006095D01*
X0113377Y0006168D01*
X0113430Y0006239D01*
X0113487Y0006308D01*
X0113547Y0006374D01*
X0113610Y0006438D01*
X0113675Y0006498D01*
X0113743Y0006556D01*
X0113814Y0006610D01*
X0113887Y0006661D01*
X0113962Y0006709D01*
X0114039Y0006754D01*
X0114118Y0006795D01*
X0114199Y0006832D01*
X0114281Y0006866D01*
X0114365Y0006897D01*
X0114450Y0006923D01*
X0114536Y0006946D01*
X0114623Y0006964D01*
X0114711Y0006979D01*
X0114800Y0006990D01*
X0114889Y0006997D01*
X0114978Y0007000D01*
X0115067Y0006999D01*
X0115156Y0006994D01*
X0115244Y0006985D01*
X0115333Y0006972D01*
X0115420Y0006955D01*
X0115507Y0006935D01*
X0115593Y0006910D01*
X0115677Y0006882D01*
X0115760Y0006850D01*
X0115842Y0006814D01*
X0115922Y0006775D01*
X0116000Y0006732D01*
X0116076Y0006686D01*
X0116150Y0006636D01*
X0116222Y0006583D01*
X0116291Y0006527D01*
X0116358Y0006468D01*
X0116422Y0006406D01*
X0116483Y0006342D01*
X0116542Y0006274D01*
X0116597Y0006204D01*
X0116649Y0006132D01*
X0116698Y0006057D01*
X0116743Y0005981D01*
X0116785Y0005902D01*
X0116823Y0005822D01*
X0116858Y0005740D01*
X0116889Y0005656D01*
X0116917Y0005571D01*
X0116940Y0005485D01*
X0116960Y0005398D01*
X0116976Y0005311D01*
X0116988Y0005222D01*
X0116996Y0005134D01*
X0117000Y0005045D01*
X0117000Y0004955D01*
X0116996Y0004866D01*
X0116988Y0004778D01*
X0116976Y0004689D01*
X0116960Y0004602D01*
X0116940Y0004515D01*
X0116917Y0004429D01*
X0116889Y0004344D01*
X0116858Y0004260D01*
X0116823Y0004178D01*
X0116785Y0004098D01*
X0116743Y0004019D01*
X0116698Y0003943D01*
X0116649Y0003868D01*
X0116597Y0003796D01*
X0116542Y0003726D01*
X0116483Y0003658D01*
X0116422Y0003594D01*
X0116358Y0003532D01*
X0116291Y0003473D01*
X0116222Y0003417D01*
X0116150Y0003364D01*
X0116076Y0003314D01*
X0116000Y0003268D01*
X0115922Y0003225D01*
X0115842Y0003186D01*
X0115760Y0003150D01*
X0115677Y0003118D01*
X0115593Y0003090D01*
X0115507Y0003065D01*
X0115420Y0003045D01*
X0115333Y0003028D01*
X0115244Y0003015D01*
X0115156Y0003006D01*
X0115067Y0003001D01*
X0114978Y0003000D01*
X0114889Y0003003D01*
X0114800Y0003010D01*
X0114711Y0003021D01*
X0114623Y0003036D01*
X0114536Y0003054D01*
X0114450Y0003077D01*
X0114365Y0003103D01*
X0114281Y0003134D01*
X0114199Y0003168D01*
X0114118Y0003205D01*
X0114039Y0003246D01*
X0113962Y0003291D01*
X0113887Y0003339D01*
X0113814Y0003390D01*
X0113743Y0003444D01*
X0113675Y0003502D01*
X0113610Y0003562D01*
X0113547Y0003626D01*
X0113487Y0003692D01*
X0113430Y0003761D01*
X0113377Y0003832D01*
X0113326Y0003905D01*
X0113279Y0003981D01*
X0113236Y0004058D01*
X0113195Y0004138D01*
X0113159Y0004219D01*
X0113126Y0004302D01*
X0113097Y0004386D01*
X0113071Y0004472D01*
X0113049Y0004558D01*
X0113032Y0004645D01*
X0113018Y0004733D01*
X0113008Y0004822D01*
X0113002Y0004911D01*
X0113000Y0005000D01*
X0143500Y0010000D02*
X0143502Y0010161D01*
X0143508Y0010321D01*
X0143518Y0010482D01*
X0143532Y0010642D01*
X0143550Y0010802D01*
X0143571Y0010961D01*
X0143597Y0011120D01*
X0143627Y0011278D01*
X0143660Y0011435D01*
X0143698Y0011592D01*
X0143739Y0011747D01*
X0143784Y0011901D01*
X0143833Y0012054D01*
X0143886Y0012206D01*
X0143942Y0012357D01*
X0144003Y0012506D01*
X0144066Y0012654D01*
X0144134Y0012800D01*
X0144205Y0012944D01*
X0144279Y0013086D01*
X0144357Y0013227D01*
X0144439Y0013365D01*
X0144524Y0013502D01*
X0144612Y0013636D01*
X0144704Y0013768D01*
X0144799Y0013898D01*
X0144897Y0014026D01*
X0144998Y0014151D01*
X0145102Y0014273D01*
X0145209Y0014393D01*
X0145319Y0014510D01*
X0145432Y0014625D01*
X0145548Y0014736D01*
X0145667Y0014845D01*
X0145788Y0014950D01*
X0145912Y0015053D01*
X0146038Y0015153D01*
X0146166Y0015249D01*
X0146297Y0015342D01*
X0146431Y0015432D01*
X0146566Y0015519D01*
X0146704Y0015602D01*
X0146843Y0015682D01*
X0146985Y0015758D01*
X0147128Y0015831D01*
X0147273Y0015900D01*
X0147420Y0015966D01*
X0147568Y0016028D01*
X0147718Y0016086D01*
X0147869Y0016141D01*
X0148022Y0016192D01*
X0148176Y0016239D01*
X0148331Y0016282D01*
X0148487Y0016321D01*
X0148643Y0016357D01*
X0148801Y0016388D01*
X0148959Y0016416D01*
X0149118Y0016440D01*
X0149278Y0016460D01*
X0149438Y0016476D01*
X0149598Y0016488D01*
X0149759Y0016496D01*
X0149920Y0016500D01*
X0150080Y0016500D01*
X0150241Y0016496D01*
X0150402Y0016488D01*
X0150562Y0016476D01*
X0150722Y0016460D01*
X0150882Y0016440D01*
X0151041Y0016416D01*
X0151199Y0016388D01*
X0151357Y0016357D01*
X0151513Y0016321D01*
X0151669Y0016282D01*
X0151824Y0016239D01*
X0151978Y0016192D01*
X0152131Y0016141D01*
X0152282Y0016086D01*
X0152432Y0016028D01*
X0152580Y0015966D01*
X0152727Y0015900D01*
X0152872Y0015831D01*
X0153015Y0015758D01*
X0153157Y0015682D01*
X0153296Y0015602D01*
X0153434Y0015519D01*
X0153569Y0015432D01*
X0153703Y0015342D01*
X0153834Y0015249D01*
X0153962Y0015153D01*
X0154088Y0015053D01*
X0154212Y0014950D01*
X0154333Y0014845D01*
X0154452Y0014736D01*
X0154568Y0014625D01*
X0154681Y0014510D01*
X0154791Y0014393D01*
X0154898Y0014273D01*
X0155002Y0014151D01*
X0155103Y0014026D01*
X0155201Y0013898D01*
X0155296Y0013768D01*
X0155388Y0013636D01*
X0155476Y0013502D01*
X0155561Y0013365D01*
X0155643Y0013227D01*
X0155721Y0013086D01*
X0155795Y0012944D01*
X0155866Y0012800D01*
X0155934Y0012654D01*
X0155997Y0012506D01*
X0156058Y0012357D01*
X0156114Y0012206D01*
X0156167Y0012054D01*
X0156216Y0011901D01*
X0156261Y0011747D01*
X0156302Y0011592D01*
X0156340Y0011435D01*
X0156373Y0011278D01*
X0156403Y0011120D01*
X0156429Y0010961D01*
X0156450Y0010802D01*
X0156468Y0010642D01*
X0156482Y0010482D01*
X0156492Y0010321D01*
X0156498Y0010161D01*
X0156500Y0010000D01*
X0156498Y0009839D01*
X0156492Y0009679D01*
X0156482Y0009518D01*
X0156468Y0009358D01*
X0156450Y0009198D01*
X0156429Y0009039D01*
X0156403Y0008880D01*
X0156373Y0008722D01*
X0156340Y0008565D01*
X0156302Y0008408D01*
X0156261Y0008253D01*
X0156216Y0008099D01*
X0156167Y0007946D01*
X0156114Y0007794D01*
X0156058Y0007643D01*
X0155997Y0007494D01*
X0155934Y0007346D01*
X0155866Y0007200D01*
X0155795Y0007056D01*
X0155721Y0006914D01*
X0155643Y0006773D01*
X0155561Y0006635D01*
X0155476Y0006498D01*
X0155388Y0006364D01*
X0155296Y0006232D01*
X0155201Y0006102D01*
X0155103Y0005974D01*
X0155002Y0005849D01*
X0154898Y0005727D01*
X0154791Y0005607D01*
X0154681Y0005490D01*
X0154568Y0005375D01*
X0154452Y0005264D01*
X0154333Y0005155D01*
X0154212Y0005050D01*
X0154088Y0004947D01*
X0153962Y0004847D01*
X0153834Y0004751D01*
X0153703Y0004658D01*
X0153569Y0004568D01*
X0153434Y0004481D01*
X0153296Y0004398D01*
X0153157Y0004318D01*
X0153015Y0004242D01*
X0152872Y0004169D01*
X0152727Y0004100D01*
X0152580Y0004034D01*
X0152432Y0003972D01*
X0152282Y0003914D01*
X0152131Y0003859D01*
X0151978Y0003808D01*
X0151824Y0003761D01*
X0151669Y0003718D01*
X0151513Y0003679D01*
X0151357Y0003643D01*
X0151199Y0003612D01*
X0151041Y0003584D01*
X0150882Y0003560D01*
X0150722Y0003540D01*
X0150562Y0003524D01*
X0150402Y0003512D01*
X0150241Y0003504D01*
X0150080Y0003500D01*
X0149920Y0003500D01*
X0149759Y0003504D01*
X0149598Y0003512D01*
X0149438Y0003524D01*
X0149278Y0003540D01*
X0149118Y0003560D01*
X0148959Y0003584D01*
X0148801Y0003612D01*
X0148643Y0003643D01*
X0148487Y0003679D01*
X0148331Y0003718D01*
X0148176Y0003761D01*
X0148022Y0003808D01*
X0147869Y0003859D01*
X0147718Y0003914D01*
X0147568Y0003972D01*
X0147420Y0004034D01*
X0147273Y0004100D01*
X0147128Y0004169D01*
X0146985Y0004242D01*
X0146843Y0004318D01*
X0146704Y0004398D01*
X0146566Y0004481D01*
X0146431Y0004568D01*
X0146297Y0004658D01*
X0146166Y0004751D01*
X0146038Y0004847D01*
X0145912Y0004947D01*
X0145788Y0005050D01*
X0145667Y0005155D01*
X0145548Y0005264D01*
X0145432Y0005375D01*
X0145319Y0005490D01*
X0145209Y0005607D01*
X0145102Y0005727D01*
X0144998Y0005849D01*
X0144897Y0005974D01*
X0144799Y0006102D01*
X0144704Y0006232D01*
X0144612Y0006364D01*
X0144524Y0006498D01*
X0144439Y0006635D01*
X0144357Y0006773D01*
X0144279Y0006914D01*
X0144205Y0007056D01*
X0144134Y0007200D01*
X0144066Y0007346D01*
X0144003Y0007494D01*
X0143942Y0007643D01*
X0143886Y0007794D01*
X0143833Y0007946D01*
X0143784Y0008099D01*
X0143739Y0008253D01*
X0143698Y0008408D01*
X0143660Y0008565D01*
X0143627Y0008722D01*
X0143597Y0008880D01*
X0143571Y0009039D01*
X0143550Y0009198D01*
X0143532Y0009358D01*
X0143518Y0009518D01*
X0143508Y0009679D01*
X0143502Y0009839D01*
X0143500Y0010000D01*
X0143500Y0130000D02*
X0143502Y0130161D01*
X0143508Y0130321D01*
X0143518Y0130482D01*
X0143532Y0130642D01*
X0143550Y0130802D01*
X0143571Y0130961D01*
X0143597Y0131120D01*
X0143627Y0131278D01*
X0143660Y0131435D01*
X0143698Y0131592D01*
X0143739Y0131747D01*
X0143784Y0131901D01*
X0143833Y0132054D01*
X0143886Y0132206D01*
X0143942Y0132357D01*
X0144003Y0132506D01*
X0144066Y0132654D01*
X0144134Y0132800D01*
X0144205Y0132944D01*
X0144279Y0133086D01*
X0144357Y0133227D01*
X0144439Y0133365D01*
X0144524Y0133502D01*
X0144612Y0133636D01*
X0144704Y0133768D01*
X0144799Y0133898D01*
X0144897Y0134026D01*
X0144998Y0134151D01*
X0145102Y0134273D01*
X0145209Y0134393D01*
X0145319Y0134510D01*
X0145432Y0134625D01*
X0145548Y0134736D01*
X0145667Y0134845D01*
X0145788Y0134950D01*
X0145912Y0135053D01*
X0146038Y0135153D01*
X0146166Y0135249D01*
X0146297Y0135342D01*
X0146431Y0135432D01*
X0146566Y0135519D01*
X0146704Y0135602D01*
X0146843Y0135682D01*
X0146985Y0135758D01*
X0147128Y0135831D01*
X0147273Y0135900D01*
X0147420Y0135966D01*
X0147568Y0136028D01*
X0147718Y0136086D01*
X0147869Y0136141D01*
X0148022Y0136192D01*
X0148176Y0136239D01*
X0148331Y0136282D01*
X0148487Y0136321D01*
X0148643Y0136357D01*
X0148801Y0136388D01*
X0148959Y0136416D01*
X0149118Y0136440D01*
X0149278Y0136460D01*
X0149438Y0136476D01*
X0149598Y0136488D01*
X0149759Y0136496D01*
X0149920Y0136500D01*
X0150080Y0136500D01*
X0150241Y0136496D01*
X0150402Y0136488D01*
X0150562Y0136476D01*
X0150722Y0136460D01*
X0150882Y0136440D01*
X0151041Y0136416D01*
X0151199Y0136388D01*
X0151357Y0136357D01*
X0151513Y0136321D01*
X0151669Y0136282D01*
X0151824Y0136239D01*
X0151978Y0136192D01*
X0152131Y0136141D01*
X0152282Y0136086D01*
X0152432Y0136028D01*
X0152580Y0135966D01*
X0152727Y0135900D01*
X0152872Y0135831D01*
X0153015Y0135758D01*
X0153157Y0135682D01*
X0153296Y0135602D01*
X0153434Y0135519D01*
X0153569Y0135432D01*
X0153703Y0135342D01*
X0153834Y0135249D01*
X0153962Y0135153D01*
X0154088Y0135053D01*
X0154212Y0134950D01*
X0154333Y0134845D01*
X0154452Y0134736D01*
X0154568Y0134625D01*
X0154681Y0134510D01*
X0154791Y0134393D01*
X0154898Y0134273D01*
X0155002Y0134151D01*
X0155103Y0134026D01*
X0155201Y0133898D01*
X0155296Y0133768D01*
X0155388Y0133636D01*
X0155476Y0133502D01*
X0155561Y0133365D01*
X0155643Y0133227D01*
X0155721Y0133086D01*
X0155795Y0132944D01*
X0155866Y0132800D01*
X0155934Y0132654D01*
X0155997Y0132506D01*
X0156058Y0132357D01*
X0156114Y0132206D01*
X0156167Y0132054D01*
X0156216Y0131901D01*
X0156261Y0131747D01*
X0156302Y0131592D01*
X0156340Y0131435D01*
X0156373Y0131278D01*
X0156403Y0131120D01*
X0156429Y0130961D01*
X0156450Y0130802D01*
X0156468Y0130642D01*
X0156482Y0130482D01*
X0156492Y0130321D01*
X0156498Y0130161D01*
X0156500Y0130000D01*
X0156498Y0129839D01*
X0156492Y0129679D01*
X0156482Y0129518D01*
X0156468Y0129358D01*
X0156450Y0129198D01*
X0156429Y0129039D01*
X0156403Y0128880D01*
X0156373Y0128722D01*
X0156340Y0128565D01*
X0156302Y0128408D01*
X0156261Y0128253D01*
X0156216Y0128099D01*
X0156167Y0127946D01*
X0156114Y0127794D01*
X0156058Y0127643D01*
X0155997Y0127494D01*
X0155934Y0127346D01*
X0155866Y0127200D01*
X0155795Y0127056D01*
X0155721Y0126914D01*
X0155643Y0126773D01*
X0155561Y0126635D01*
X0155476Y0126498D01*
X0155388Y0126364D01*
X0155296Y0126232D01*
X0155201Y0126102D01*
X0155103Y0125974D01*
X0155002Y0125849D01*
X0154898Y0125727D01*
X0154791Y0125607D01*
X0154681Y0125490D01*
X0154568Y0125375D01*
X0154452Y0125264D01*
X0154333Y0125155D01*
X0154212Y0125050D01*
X0154088Y0124947D01*
X0153962Y0124847D01*
X0153834Y0124751D01*
X0153703Y0124658D01*
X0153569Y0124568D01*
X0153434Y0124481D01*
X0153296Y0124398D01*
X0153157Y0124318D01*
X0153015Y0124242D01*
X0152872Y0124169D01*
X0152727Y0124100D01*
X0152580Y0124034D01*
X0152432Y0123972D01*
X0152282Y0123914D01*
X0152131Y0123859D01*
X0151978Y0123808D01*
X0151824Y0123761D01*
X0151669Y0123718D01*
X0151513Y0123679D01*
X0151357Y0123643D01*
X0151199Y0123612D01*
X0151041Y0123584D01*
X0150882Y0123560D01*
X0150722Y0123540D01*
X0150562Y0123524D01*
X0150402Y0123512D01*
X0150241Y0123504D01*
X0150080Y0123500D01*
X0149920Y0123500D01*
X0149759Y0123504D01*
X0149598Y0123512D01*
X0149438Y0123524D01*
X0149278Y0123540D01*
X0149118Y0123560D01*
X0148959Y0123584D01*
X0148801Y0123612D01*
X0148643Y0123643D01*
X0148487Y0123679D01*
X0148331Y0123718D01*
X0148176Y0123761D01*
X0148022Y0123808D01*
X0147869Y0123859D01*
X0147718Y0123914D01*
X0147568Y0123972D01*
X0147420Y0124034D01*
X0147273Y0124100D01*
X0147128Y0124169D01*
X0146985Y0124242D01*
X0146843Y0124318D01*
X0146704Y0124398D01*
X0146566Y0124481D01*
X0146431Y0124568D01*
X0146297Y0124658D01*
X0146166Y0124751D01*
X0146038Y0124847D01*
X0145912Y0124947D01*
X0145788Y0125050D01*
X0145667Y0125155D01*
X0145548Y0125264D01*
X0145432Y0125375D01*
X0145319Y0125490D01*
X0145209Y0125607D01*
X0145102Y0125727D01*
X0144998Y0125849D01*
X0144897Y0125974D01*
X0144799Y0126102D01*
X0144704Y0126232D01*
X0144612Y0126364D01*
X0144524Y0126498D01*
X0144439Y0126635D01*
X0144357Y0126773D01*
X0144279Y0126914D01*
X0144205Y0127056D01*
X0144134Y0127200D01*
X0144066Y0127346D01*
X0144003Y0127494D01*
X0143942Y0127643D01*
X0143886Y0127794D01*
X0143833Y0127946D01*
X0143784Y0128099D01*
X0143739Y0128253D01*
X0143698Y0128408D01*
X0143660Y0128565D01*
X0143627Y0128722D01*
X0143597Y0128880D01*
X0143571Y0129039D01*
X0143550Y0129198D01*
X0143532Y0129358D01*
X0143518Y0129518D01*
X0143508Y0129679D01*
X0143502Y0129839D01*
X0143500Y0130000D01*
X0003500Y0130000D02*
X0003502Y0130161D01*
X0003508Y0130321D01*
X0003518Y0130482D01*
X0003532Y0130642D01*
X0003550Y0130802D01*
X0003571Y0130961D01*
X0003597Y0131120D01*
X0003627Y0131278D01*
X0003660Y0131435D01*
X0003698Y0131592D01*
X0003739Y0131747D01*
X0003784Y0131901D01*
X0003833Y0132054D01*
X0003886Y0132206D01*
X0003942Y0132357D01*
X0004003Y0132506D01*
X0004066Y0132654D01*
X0004134Y0132800D01*
X0004205Y0132944D01*
X0004279Y0133086D01*
X0004357Y0133227D01*
X0004439Y0133365D01*
X0004524Y0133502D01*
X0004612Y0133636D01*
X0004704Y0133768D01*
X0004799Y0133898D01*
X0004897Y0134026D01*
X0004998Y0134151D01*
X0005102Y0134273D01*
X0005209Y0134393D01*
X0005319Y0134510D01*
X0005432Y0134625D01*
X0005548Y0134736D01*
X0005667Y0134845D01*
X0005788Y0134950D01*
X0005912Y0135053D01*
X0006038Y0135153D01*
X0006166Y0135249D01*
X0006297Y0135342D01*
X0006431Y0135432D01*
X0006566Y0135519D01*
X0006704Y0135602D01*
X0006843Y0135682D01*
X0006985Y0135758D01*
X0007128Y0135831D01*
X0007273Y0135900D01*
X0007420Y0135966D01*
X0007568Y0136028D01*
X0007718Y0136086D01*
X0007869Y0136141D01*
X0008022Y0136192D01*
X0008176Y0136239D01*
X0008331Y0136282D01*
X0008487Y0136321D01*
X0008643Y0136357D01*
X0008801Y0136388D01*
X0008959Y0136416D01*
X0009118Y0136440D01*
X0009278Y0136460D01*
X0009438Y0136476D01*
X0009598Y0136488D01*
X0009759Y0136496D01*
X0009920Y0136500D01*
X0010080Y0136500D01*
X0010241Y0136496D01*
X0010402Y0136488D01*
X0010562Y0136476D01*
X0010722Y0136460D01*
X0010882Y0136440D01*
X0011041Y0136416D01*
X0011199Y0136388D01*
X0011357Y0136357D01*
X0011513Y0136321D01*
X0011669Y0136282D01*
X0011824Y0136239D01*
X0011978Y0136192D01*
X0012131Y0136141D01*
X0012282Y0136086D01*
X0012432Y0136028D01*
X0012580Y0135966D01*
X0012727Y0135900D01*
X0012872Y0135831D01*
X0013015Y0135758D01*
X0013157Y0135682D01*
X0013296Y0135602D01*
X0013434Y0135519D01*
X0013569Y0135432D01*
X0013703Y0135342D01*
X0013834Y0135249D01*
X0013962Y0135153D01*
X0014088Y0135053D01*
X0014212Y0134950D01*
X0014333Y0134845D01*
X0014452Y0134736D01*
X0014568Y0134625D01*
X0014681Y0134510D01*
X0014791Y0134393D01*
X0014898Y0134273D01*
X0015002Y0134151D01*
X0015103Y0134026D01*
X0015201Y0133898D01*
X0015296Y0133768D01*
X0015388Y0133636D01*
X0015476Y0133502D01*
X0015561Y0133365D01*
X0015643Y0133227D01*
X0015721Y0133086D01*
X0015795Y0132944D01*
X0015866Y0132800D01*
X0015934Y0132654D01*
X0015997Y0132506D01*
X0016058Y0132357D01*
X0016114Y0132206D01*
X0016167Y0132054D01*
X0016216Y0131901D01*
X0016261Y0131747D01*
X0016302Y0131592D01*
X0016340Y0131435D01*
X0016373Y0131278D01*
X0016403Y0131120D01*
X0016429Y0130961D01*
X0016450Y0130802D01*
X0016468Y0130642D01*
X0016482Y0130482D01*
X0016492Y0130321D01*
X0016498Y0130161D01*
X0016500Y0130000D01*
X0016498Y0129839D01*
X0016492Y0129679D01*
X0016482Y0129518D01*
X0016468Y0129358D01*
X0016450Y0129198D01*
X0016429Y0129039D01*
X0016403Y0128880D01*
X0016373Y0128722D01*
X0016340Y0128565D01*
X0016302Y0128408D01*
X0016261Y0128253D01*
X0016216Y0128099D01*
X0016167Y0127946D01*
X0016114Y0127794D01*
X0016058Y0127643D01*
X0015997Y0127494D01*
X0015934Y0127346D01*
X0015866Y0127200D01*
X0015795Y0127056D01*
X0015721Y0126914D01*
X0015643Y0126773D01*
X0015561Y0126635D01*
X0015476Y0126498D01*
X0015388Y0126364D01*
X0015296Y0126232D01*
X0015201Y0126102D01*
X0015103Y0125974D01*
X0015002Y0125849D01*
X0014898Y0125727D01*
X0014791Y0125607D01*
X0014681Y0125490D01*
X0014568Y0125375D01*
X0014452Y0125264D01*
X0014333Y0125155D01*
X0014212Y0125050D01*
X0014088Y0124947D01*
X0013962Y0124847D01*
X0013834Y0124751D01*
X0013703Y0124658D01*
X0013569Y0124568D01*
X0013434Y0124481D01*
X0013296Y0124398D01*
X0013157Y0124318D01*
X0013015Y0124242D01*
X0012872Y0124169D01*
X0012727Y0124100D01*
X0012580Y0124034D01*
X0012432Y0123972D01*
X0012282Y0123914D01*
X0012131Y0123859D01*
X0011978Y0123808D01*
X0011824Y0123761D01*
X0011669Y0123718D01*
X0011513Y0123679D01*
X0011357Y0123643D01*
X0011199Y0123612D01*
X0011041Y0123584D01*
X0010882Y0123560D01*
X0010722Y0123540D01*
X0010562Y0123524D01*
X0010402Y0123512D01*
X0010241Y0123504D01*
X0010080Y0123500D01*
X0009920Y0123500D01*
X0009759Y0123504D01*
X0009598Y0123512D01*
X0009438Y0123524D01*
X0009278Y0123540D01*
X0009118Y0123560D01*
X0008959Y0123584D01*
X0008801Y0123612D01*
X0008643Y0123643D01*
X0008487Y0123679D01*
X0008331Y0123718D01*
X0008176Y0123761D01*
X0008022Y0123808D01*
X0007869Y0123859D01*
X0007718Y0123914D01*
X0007568Y0123972D01*
X0007420Y0124034D01*
X0007273Y0124100D01*
X0007128Y0124169D01*
X0006985Y0124242D01*
X0006843Y0124318D01*
X0006704Y0124398D01*
X0006566Y0124481D01*
X0006431Y0124568D01*
X0006297Y0124658D01*
X0006166Y0124751D01*
X0006038Y0124847D01*
X0005912Y0124947D01*
X0005788Y0125050D01*
X0005667Y0125155D01*
X0005548Y0125264D01*
X0005432Y0125375D01*
X0005319Y0125490D01*
X0005209Y0125607D01*
X0005102Y0125727D01*
X0004998Y0125849D01*
X0004897Y0125974D01*
X0004799Y0126102D01*
X0004704Y0126232D01*
X0004612Y0126364D01*
X0004524Y0126498D01*
X0004439Y0126635D01*
X0004357Y0126773D01*
X0004279Y0126914D01*
X0004205Y0127056D01*
X0004134Y0127200D01*
X0004066Y0127346D01*
X0004003Y0127494D01*
X0003942Y0127643D01*
X0003886Y0127794D01*
X0003833Y0127946D01*
X0003784Y0128099D01*
X0003739Y0128253D01*
X0003698Y0128408D01*
X0003660Y0128565D01*
X0003627Y0128722D01*
X0003597Y0128880D01*
X0003571Y0129039D01*
X0003550Y0129198D01*
X0003532Y0129358D01*
X0003518Y0129518D01*
X0003508Y0129679D01*
X0003502Y0129839D01*
X0003500Y0130000D01*
D23*
X0010000Y0130000D03*
X0150000Y0130000D03*
X0150000Y0010000D03*
X0010000Y0010000D03*
D24*
X0045000Y0005000D03*
X0115000Y0005000D03*
D25*
X0115000Y0015000D03*
X0125000Y0015000D03*
X0125000Y0025000D03*
X0115000Y0025000D03*
X0115000Y0035000D03*
X0125000Y0035000D03*
X0125000Y0045000D03*
X0115000Y0045000D03*
X0115000Y0055000D03*
X0125000Y0055000D03*
X0125000Y0065000D03*
X0125000Y0075000D03*
X0115000Y0075000D03*
X0115000Y0065000D03*
X0115000Y0085000D03*
X0125000Y0085000D03*
X0125000Y0095000D03*
X0115000Y0095000D03*
X0115000Y0105000D03*
X0125000Y0105000D03*
X0125000Y0115000D03*
X0115000Y0115000D03*
X0115000Y0125000D03*
X0125000Y0125000D03*
X0045000Y0125000D03*
X0035000Y0125000D03*
X0035000Y0115000D03*
X0045000Y0115000D03*
X0045000Y0105000D03*
X0035000Y0105000D03*
X0035000Y0095000D03*
X0045000Y0095000D03*
X0045000Y0085000D03*
X0035000Y0085000D03*
X0035000Y0075000D03*
X0035000Y0065000D03*
X0045000Y0065000D03*
X0045000Y0075000D03*
X0045000Y0055000D03*
X0035000Y0055000D03*
X0035000Y0045000D03*
X0045000Y0045000D03*
X0045000Y0035000D03*
X0035000Y0035000D03*
X0035000Y0025000D03*
X0045000Y0025000D03*
X0045000Y0015000D03*
X0035000Y0015000D03*
M02*
