G75*
%MOIN*%
%OFA0B0*%
%FSLAX25Y25*%
%IPPOS*%
%LPD*%
%AMOC8*
5,1,8,0,0,1.08239X$1,22.5*
%
%ADD10C,0.00800*%
%ADD11R,0.04000X0.07000*%
%ADD12C,0.08268*%
%ADD13C,0.07500*%
%ADD14C,0.00000*%
%ADD15C,0.06900*%
%ADD16C,0.01600*%
%ADD17C,0.04000*%
%ADD18C,0.04700*%
%ADD19C,0.03200*%
%ADD20C,0.01000*%
D10*
X0010000Y0000000D02*
X0150000Y0000000D01*
X0150242Y0000003D01*
X0150483Y0000012D01*
X0150724Y0000026D01*
X0150965Y0000047D01*
X0151205Y0000073D01*
X0151445Y0000105D01*
X0151684Y0000143D01*
X0151921Y0000186D01*
X0152158Y0000236D01*
X0152393Y0000291D01*
X0152627Y0000351D01*
X0152859Y0000418D01*
X0153090Y0000489D01*
X0153319Y0000567D01*
X0153546Y0000650D01*
X0153771Y0000738D01*
X0153994Y0000832D01*
X0154214Y0000931D01*
X0154432Y0001036D01*
X0154647Y0001145D01*
X0154860Y0001260D01*
X0155070Y0001380D01*
X0155276Y0001505D01*
X0155480Y0001635D01*
X0155681Y0001770D01*
X0155878Y0001910D01*
X0156072Y0002054D01*
X0156262Y0002203D01*
X0156448Y0002357D01*
X0156631Y0002515D01*
X0156810Y0002677D01*
X0156985Y0002844D01*
X0157156Y0003015D01*
X0157323Y0003190D01*
X0157485Y0003369D01*
X0157643Y0003552D01*
X0157797Y0003738D01*
X0157946Y0003928D01*
X0158090Y0004122D01*
X0158230Y0004319D01*
X0158365Y0004520D01*
X0158495Y0004724D01*
X0158620Y0004930D01*
X0158740Y0005140D01*
X0158855Y0005353D01*
X0158964Y0005568D01*
X0159069Y0005786D01*
X0159168Y0006006D01*
X0159262Y0006229D01*
X0159350Y0006454D01*
X0159433Y0006681D01*
X0159511Y0006910D01*
X0159582Y0007141D01*
X0159649Y0007373D01*
X0159709Y0007607D01*
X0159764Y0007842D01*
X0159814Y0008079D01*
X0159857Y0008316D01*
X0159895Y0008555D01*
X0159927Y0008795D01*
X0159953Y0009035D01*
X0159974Y0009276D01*
X0159988Y0009517D01*
X0159997Y0009758D01*
X0160000Y0010000D01*
X0160000Y0130000D01*
X0159997Y0130242D01*
X0159988Y0130483D01*
X0159974Y0130724D01*
X0159953Y0130965D01*
X0159927Y0131205D01*
X0159895Y0131445D01*
X0159857Y0131684D01*
X0159814Y0131921D01*
X0159764Y0132158D01*
X0159709Y0132393D01*
X0159649Y0132627D01*
X0159582Y0132859D01*
X0159511Y0133090D01*
X0159433Y0133319D01*
X0159350Y0133546D01*
X0159262Y0133771D01*
X0159168Y0133994D01*
X0159069Y0134214D01*
X0158964Y0134432D01*
X0158855Y0134647D01*
X0158740Y0134860D01*
X0158620Y0135070D01*
X0158495Y0135276D01*
X0158365Y0135480D01*
X0158230Y0135681D01*
X0158090Y0135878D01*
X0157946Y0136072D01*
X0157797Y0136262D01*
X0157643Y0136448D01*
X0157485Y0136631D01*
X0157323Y0136810D01*
X0157156Y0136985D01*
X0156985Y0137156D01*
X0156810Y0137323D01*
X0156631Y0137485D01*
X0156448Y0137643D01*
X0156262Y0137797D01*
X0156072Y0137946D01*
X0155878Y0138090D01*
X0155681Y0138230D01*
X0155480Y0138365D01*
X0155276Y0138495D01*
X0155070Y0138620D01*
X0154860Y0138740D01*
X0154647Y0138855D01*
X0154432Y0138964D01*
X0154214Y0139069D01*
X0153994Y0139168D01*
X0153771Y0139262D01*
X0153546Y0139350D01*
X0153319Y0139433D01*
X0153090Y0139511D01*
X0152859Y0139582D01*
X0152627Y0139649D01*
X0152393Y0139709D01*
X0152158Y0139764D01*
X0151921Y0139814D01*
X0151684Y0139857D01*
X0151445Y0139895D01*
X0151205Y0139927D01*
X0150965Y0139953D01*
X0150724Y0139974D01*
X0150483Y0139988D01*
X0150242Y0139997D01*
X0150000Y0140000D01*
X0010000Y0140000D01*
X0009758Y0139997D01*
X0009517Y0139988D01*
X0009276Y0139974D01*
X0009035Y0139953D01*
X0008795Y0139927D01*
X0008555Y0139895D01*
X0008316Y0139857D01*
X0008079Y0139814D01*
X0007842Y0139764D01*
X0007607Y0139709D01*
X0007373Y0139649D01*
X0007141Y0139582D01*
X0006910Y0139511D01*
X0006681Y0139433D01*
X0006454Y0139350D01*
X0006229Y0139262D01*
X0006006Y0139168D01*
X0005786Y0139069D01*
X0005568Y0138964D01*
X0005353Y0138855D01*
X0005140Y0138740D01*
X0004930Y0138620D01*
X0004724Y0138495D01*
X0004520Y0138365D01*
X0004319Y0138230D01*
X0004122Y0138090D01*
X0003928Y0137946D01*
X0003738Y0137797D01*
X0003552Y0137643D01*
X0003369Y0137485D01*
X0003190Y0137323D01*
X0003015Y0137156D01*
X0002844Y0136985D01*
X0002677Y0136810D01*
X0002515Y0136631D01*
X0002357Y0136448D01*
X0002203Y0136262D01*
X0002054Y0136072D01*
X0001910Y0135878D01*
X0001770Y0135681D01*
X0001635Y0135480D01*
X0001505Y0135276D01*
X0001380Y0135070D01*
X0001260Y0134860D01*
X0001145Y0134647D01*
X0001036Y0134432D01*
X0000931Y0134214D01*
X0000832Y0133994D01*
X0000738Y0133771D01*
X0000650Y0133546D01*
X0000567Y0133319D01*
X0000489Y0133090D01*
X0000418Y0132859D01*
X0000351Y0132627D01*
X0000291Y0132393D01*
X0000236Y0132158D01*
X0000186Y0131921D01*
X0000143Y0131684D01*
X0000105Y0131445D01*
X0000073Y0131205D01*
X0000047Y0130965D01*
X0000026Y0130724D01*
X0000012Y0130483D01*
X0000003Y0130242D01*
X0000000Y0130000D01*
X0000000Y0010000D01*
X0000003Y0009758D01*
X0000012Y0009517D01*
X0000026Y0009276D01*
X0000047Y0009035D01*
X0000073Y0008795D01*
X0000105Y0008555D01*
X0000143Y0008316D01*
X0000186Y0008079D01*
X0000236Y0007842D01*
X0000291Y0007607D01*
X0000351Y0007373D01*
X0000418Y0007141D01*
X0000489Y0006910D01*
X0000567Y0006681D01*
X0000650Y0006454D01*
X0000738Y0006229D01*
X0000832Y0006006D01*
X0000931Y0005786D01*
X0001036Y0005568D01*
X0001145Y0005353D01*
X0001260Y0005140D01*
X0001380Y0004930D01*
X0001505Y0004724D01*
X0001635Y0004520D01*
X0001770Y0004319D01*
X0001910Y0004122D01*
X0002054Y0003928D01*
X0002203Y0003738D01*
X0002357Y0003552D01*
X0002515Y0003369D01*
X0002677Y0003190D01*
X0002844Y0003015D01*
X0003015Y0002844D01*
X0003190Y0002677D01*
X0003369Y0002515D01*
X0003552Y0002357D01*
X0003738Y0002203D01*
X0003928Y0002054D01*
X0004122Y0001910D01*
X0004319Y0001770D01*
X0004520Y0001635D01*
X0004724Y0001505D01*
X0004930Y0001380D01*
X0005140Y0001260D01*
X0005353Y0001145D01*
X0005568Y0001036D01*
X0005786Y0000931D01*
X0006006Y0000832D01*
X0006229Y0000738D01*
X0006454Y0000650D01*
X0006681Y0000567D01*
X0006910Y0000489D01*
X0007141Y0000418D01*
X0007373Y0000351D01*
X0007607Y0000291D01*
X0007842Y0000236D01*
X0008079Y0000186D01*
X0008316Y0000143D01*
X0008555Y0000105D01*
X0008795Y0000073D01*
X0009035Y0000047D01*
X0009276Y0000026D01*
X0009517Y0000012D01*
X0009758Y0000003D01*
X0010000Y0000000D01*
X0152400Y0066569D02*
X0154535Y0068704D01*
X0155069Y0068704D01*
X0155603Y0068170D01*
X0155603Y0067102D01*
X0155069Y0066569D01*
X0152400Y0066569D02*
X0152400Y0068704D01*
X0152934Y0070252D02*
X0152400Y0070785D01*
X0152400Y0071853D01*
X0152934Y0072387D01*
X0155069Y0072387D01*
X0152934Y0070252D01*
X0155069Y0070252D01*
X0155603Y0070785D01*
X0155603Y0071853D01*
X0155069Y0072387D01*
X0154535Y0073935D02*
X0155603Y0075002D01*
X0152400Y0075002D01*
X0152400Y0073935D02*
X0152400Y0076070D01*
X0152934Y0077618D02*
X0152400Y0078152D01*
X0152400Y0079219D01*
X0152934Y0079753D01*
X0153468Y0079753D01*
X0154001Y0079219D01*
X0154001Y0077618D01*
X0152934Y0077618D01*
X0154001Y0077618D02*
X0155069Y0078686D01*
X0155603Y0079753D01*
X0154001Y0081301D02*
X0154001Y0083436D01*
X0152934Y0084984D02*
X0155069Y0087119D01*
X0152934Y0087119D01*
X0152400Y0086586D01*
X0152400Y0085518D01*
X0152934Y0084984D01*
X0155069Y0084984D01*
X0155603Y0085518D01*
X0155603Y0086586D01*
X0155069Y0087119D01*
X0155603Y0088667D02*
X0155603Y0090803D01*
X0155069Y0090803D01*
X0152934Y0088667D01*
X0152400Y0088667D01*
X0154001Y0092351D02*
X0154001Y0094486D01*
X0152934Y0096034D02*
X0152400Y0096567D01*
X0152400Y0097635D01*
X0152934Y0098169D01*
X0155069Y0098169D01*
X0152934Y0096034D01*
X0155069Y0096034D01*
X0155603Y0096567D01*
X0155603Y0097635D01*
X0155069Y0098169D01*
X0155603Y0099717D02*
X0155603Y0101852D01*
X0155069Y0101852D01*
X0152934Y0099717D01*
X0152400Y0099717D01*
D11*
X0085000Y0051000D03*
X0075000Y0051000D03*
D12*
X0075000Y0038134D02*
X0075000Y0029866D01*
X0085000Y0029866D02*
X0085000Y0038134D01*
X0095000Y0038134D02*
X0095000Y0029866D01*
X0065000Y0029866D02*
X0065000Y0038134D01*
D13*
X0025000Y0035000D03*
X0025000Y0025000D03*
X0025000Y0015000D03*
X0025000Y0045000D03*
X0025000Y0055000D03*
X0025000Y0065000D03*
X0025000Y0075000D03*
X0025000Y0085000D03*
X0025000Y0095000D03*
X0025000Y0105000D03*
X0025000Y0115000D03*
X0025000Y0125000D03*
X0135000Y0125000D03*
X0135000Y0115000D03*
X0135000Y0105000D03*
X0135000Y0095000D03*
X0135000Y0085000D03*
X0135000Y0075000D03*
X0135000Y0065000D03*
X0135000Y0055000D03*
X0135000Y0045000D03*
X0135000Y0035000D03*
X0135000Y0025000D03*
X0135000Y0015000D03*
D14*
X0143500Y0010000D02*
X0143502Y0010161D01*
X0143508Y0010321D01*
X0143518Y0010482D01*
X0143532Y0010642D01*
X0143550Y0010802D01*
X0143571Y0010961D01*
X0143597Y0011120D01*
X0143627Y0011278D01*
X0143660Y0011435D01*
X0143698Y0011592D01*
X0143739Y0011747D01*
X0143784Y0011901D01*
X0143833Y0012054D01*
X0143886Y0012206D01*
X0143942Y0012357D01*
X0144003Y0012506D01*
X0144066Y0012654D01*
X0144134Y0012800D01*
X0144205Y0012944D01*
X0144279Y0013086D01*
X0144357Y0013227D01*
X0144439Y0013365D01*
X0144524Y0013502D01*
X0144612Y0013636D01*
X0144704Y0013768D01*
X0144799Y0013898D01*
X0144897Y0014026D01*
X0144998Y0014151D01*
X0145102Y0014273D01*
X0145209Y0014393D01*
X0145319Y0014510D01*
X0145432Y0014625D01*
X0145548Y0014736D01*
X0145667Y0014845D01*
X0145788Y0014950D01*
X0145912Y0015053D01*
X0146038Y0015153D01*
X0146166Y0015249D01*
X0146297Y0015342D01*
X0146431Y0015432D01*
X0146566Y0015519D01*
X0146704Y0015602D01*
X0146843Y0015682D01*
X0146985Y0015758D01*
X0147128Y0015831D01*
X0147273Y0015900D01*
X0147420Y0015966D01*
X0147568Y0016028D01*
X0147718Y0016086D01*
X0147869Y0016141D01*
X0148022Y0016192D01*
X0148176Y0016239D01*
X0148331Y0016282D01*
X0148487Y0016321D01*
X0148643Y0016357D01*
X0148801Y0016388D01*
X0148959Y0016416D01*
X0149118Y0016440D01*
X0149278Y0016460D01*
X0149438Y0016476D01*
X0149598Y0016488D01*
X0149759Y0016496D01*
X0149920Y0016500D01*
X0150080Y0016500D01*
X0150241Y0016496D01*
X0150402Y0016488D01*
X0150562Y0016476D01*
X0150722Y0016460D01*
X0150882Y0016440D01*
X0151041Y0016416D01*
X0151199Y0016388D01*
X0151357Y0016357D01*
X0151513Y0016321D01*
X0151669Y0016282D01*
X0151824Y0016239D01*
X0151978Y0016192D01*
X0152131Y0016141D01*
X0152282Y0016086D01*
X0152432Y0016028D01*
X0152580Y0015966D01*
X0152727Y0015900D01*
X0152872Y0015831D01*
X0153015Y0015758D01*
X0153157Y0015682D01*
X0153296Y0015602D01*
X0153434Y0015519D01*
X0153569Y0015432D01*
X0153703Y0015342D01*
X0153834Y0015249D01*
X0153962Y0015153D01*
X0154088Y0015053D01*
X0154212Y0014950D01*
X0154333Y0014845D01*
X0154452Y0014736D01*
X0154568Y0014625D01*
X0154681Y0014510D01*
X0154791Y0014393D01*
X0154898Y0014273D01*
X0155002Y0014151D01*
X0155103Y0014026D01*
X0155201Y0013898D01*
X0155296Y0013768D01*
X0155388Y0013636D01*
X0155476Y0013502D01*
X0155561Y0013365D01*
X0155643Y0013227D01*
X0155721Y0013086D01*
X0155795Y0012944D01*
X0155866Y0012800D01*
X0155934Y0012654D01*
X0155997Y0012506D01*
X0156058Y0012357D01*
X0156114Y0012206D01*
X0156167Y0012054D01*
X0156216Y0011901D01*
X0156261Y0011747D01*
X0156302Y0011592D01*
X0156340Y0011435D01*
X0156373Y0011278D01*
X0156403Y0011120D01*
X0156429Y0010961D01*
X0156450Y0010802D01*
X0156468Y0010642D01*
X0156482Y0010482D01*
X0156492Y0010321D01*
X0156498Y0010161D01*
X0156500Y0010000D01*
X0156498Y0009839D01*
X0156492Y0009679D01*
X0156482Y0009518D01*
X0156468Y0009358D01*
X0156450Y0009198D01*
X0156429Y0009039D01*
X0156403Y0008880D01*
X0156373Y0008722D01*
X0156340Y0008565D01*
X0156302Y0008408D01*
X0156261Y0008253D01*
X0156216Y0008099D01*
X0156167Y0007946D01*
X0156114Y0007794D01*
X0156058Y0007643D01*
X0155997Y0007494D01*
X0155934Y0007346D01*
X0155866Y0007200D01*
X0155795Y0007056D01*
X0155721Y0006914D01*
X0155643Y0006773D01*
X0155561Y0006635D01*
X0155476Y0006498D01*
X0155388Y0006364D01*
X0155296Y0006232D01*
X0155201Y0006102D01*
X0155103Y0005974D01*
X0155002Y0005849D01*
X0154898Y0005727D01*
X0154791Y0005607D01*
X0154681Y0005490D01*
X0154568Y0005375D01*
X0154452Y0005264D01*
X0154333Y0005155D01*
X0154212Y0005050D01*
X0154088Y0004947D01*
X0153962Y0004847D01*
X0153834Y0004751D01*
X0153703Y0004658D01*
X0153569Y0004568D01*
X0153434Y0004481D01*
X0153296Y0004398D01*
X0153157Y0004318D01*
X0153015Y0004242D01*
X0152872Y0004169D01*
X0152727Y0004100D01*
X0152580Y0004034D01*
X0152432Y0003972D01*
X0152282Y0003914D01*
X0152131Y0003859D01*
X0151978Y0003808D01*
X0151824Y0003761D01*
X0151669Y0003718D01*
X0151513Y0003679D01*
X0151357Y0003643D01*
X0151199Y0003612D01*
X0151041Y0003584D01*
X0150882Y0003560D01*
X0150722Y0003540D01*
X0150562Y0003524D01*
X0150402Y0003512D01*
X0150241Y0003504D01*
X0150080Y0003500D01*
X0149920Y0003500D01*
X0149759Y0003504D01*
X0149598Y0003512D01*
X0149438Y0003524D01*
X0149278Y0003540D01*
X0149118Y0003560D01*
X0148959Y0003584D01*
X0148801Y0003612D01*
X0148643Y0003643D01*
X0148487Y0003679D01*
X0148331Y0003718D01*
X0148176Y0003761D01*
X0148022Y0003808D01*
X0147869Y0003859D01*
X0147718Y0003914D01*
X0147568Y0003972D01*
X0147420Y0004034D01*
X0147273Y0004100D01*
X0147128Y0004169D01*
X0146985Y0004242D01*
X0146843Y0004318D01*
X0146704Y0004398D01*
X0146566Y0004481D01*
X0146431Y0004568D01*
X0146297Y0004658D01*
X0146166Y0004751D01*
X0146038Y0004847D01*
X0145912Y0004947D01*
X0145788Y0005050D01*
X0145667Y0005155D01*
X0145548Y0005264D01*
X0145432Y0005375D01*
X0145319Y0005490D01*
X0145209Y0005607D01*
X0145102Y0005727D01*
X0144998Y0005849D01*
X0144897Y0005974D01*
X0144799Y0006102D01*
X0144704Y0006232D01*
X0144612Y0006364D01*
X0144524Y0006498D01*
X0144439Y0006635D01*
X0144357Y0006773D01*
X0144279Y0006914D01*
X0144205Y0007056D01*
X0144134Y0007200D01*
X0144066Y0007346D01*
X0144003Y0007494D01*
X0143942Y0007643D01*
X0143886Y0007794D01*
X0143833Y0007946D01*
X0143784Y0008099D01*
X0143739Y0008253D01*
X0143698Y0008408D01*
X0143660Y0008565D01*
X0143627Y0008722D01*
X0143597Y0008880D01*
X0143571Y0009039D01*
X0143550Y0009198D01*
X0143532Y0009358D01*
X0143518Y0009518D01*
X0143508Y0009679D01*
X0143502Y0009839D01*
X0143500Y0010000D01*
X0113000Y0005000D02*
X0113002Y0005089D01*
X0113008Y0005178D01*
X0113018Y0005267D01*
X0113032Y0005355D01*
X0113049Y0005442D01*
X0113071Y0005528D01*
X0113097Y0005614D01*
X0113126Y0005698D01*
X0113159Y0005781D01*
X0113195Y0005862D01*
X0113236Y0005942D01*
X0113279Y0006019D01*
X0113326Y0006095D01*
X0113377Y0006168D01*
X0113430Y0006239D01*
X0113487Y0006308D01*
X0113547Y0006374D01*
X0113610Y0006438D01*
X0113675Y0006498D01*
X0113743Y0006556D01*
X0113814Y0006610D01*
X0113887Y0006661D01*
X0113962Y0006709D01*
X0114039Y0006754D01*
X0114118Y0006795D01*
X0114199Y0006832D01*
X0114281Y0006866D01*
X0114365Y0006897D01*
X0114450Y0006923D01*
X0114536Y0006946D01*
X0114623Y0006964D01*
X0114711Y0006979D01*
X0114800Y0006990D01*
X0114889Y0006997D01*
X0114978Y0007000D01*
X0115067Y0006999D01*
X0115156Y0006994D01*
X0115244Y0006985D01*
X0115333Y0006972D01*
X0115420Y0006955D01*
X0115507Y0006935D01*
X0115593Y0006910D01*
X0115677Y0006882D01*
X0115760Y0006850D01*
X0115842Y0006814D01*
X0115922Y0006775D01*
X0116000Y0006732D01*
X0116076Y0006686D01*
X0116150Y0006636D01*
X0116222Y0006583D01*
X0116291Y0006527D01*
X0116358Y0006468D01*
X0116422Y0006406D01*
X0116483Y0006342D01*
X0116542Y0006274D01*
X0116597Y0006204D01*
X0116649Y0006132D01*
X0116698Y0006057D01*
X0116743Y0005981D01*
X0116785Y0005902D01*
X0116823Y0005822D01*
X0116858Y0005740D01*
X0116889Y0005656D01*
X0116917Y0005571D01*
X0116940Y0005485D01*
X0116960Y0005398D01*
X0116976Y0005311D01*
X0116988Y0005222D01*
X0116996Y0005134D01*
X0117000Y0005045D01*
X0117000Y0004955D01*
X0116996Y0004866D01*
X0116988Y0004778D01*
X0116976Y0004689D01*
X0116960Y0004602D01*
X0116940Y0004515D01*
X0116917Y0004429D01*
X0116889Y0004344D01*
X0116858Y0004260D01*
X0116823Y0004178D01*
X0116785Y0004098D01*
X0116743Y0004019D01*
X0116698Y0003943D01*
X0116649Y0003868D01*
X0116597Y0003796D01*
X0116542Y0003726D01*
X0116483Y0003658D01*
X0116422Y0003594D01*
X0116358Y0003532D01*
X0116291Y0003473D01*
X0116222Y0003417D01*
X0116150Y0003364D01*
X0116076Y0003314D01*
X0116000Y0003268D01*
X0115922Y0003225D01*
X0115842Y0003186D01*
X0115760Y0003150D01*
X0115677Y0003118D01*
X0115593Y0003090D01*
X0115507Y0003065D01*
X0115420Y0003045D01*
X0115333Y0003028D01*
X0115244Y0003015D01*
X0115156Y0003006D01*
X0115067Y0003001D01*
X0114978Y0003000D01*
X0114889Y0003003D01*
X0114800Y0003010D01*
X0114711Y0003021D01*
X0114623Y0003036D01*
X0114536Y0003054D01*
X0114450Y0003077D01*
X0114365Y0003103D01*
X0114281Y0003134D01*
X0114199Y0003168D01*
X0114118Y0003205D01*
X0114039Y0003246D01*
X0113962Y0003291D01*
X0113887Y0003339D01*
X0113814Y0003390D01*
X0113743Y0003444D01*
X0113675Y0003502D01*
X0113610Y0003562D01*
X0113547Y0003626D01*
X0113487Y0003692D01*
X0113430Y0003761D01*
X0113377Y0003832D01*
X0113326Y0003905D01*
X0113279Y0003981D01*
X0113236Y0004058D01*
X0113195Y0004138D01*
X0113159Y0004219D01*
X0113126Y0004302D01*
X0113097Y0004386D01*
X0113071Y0004472D01*
X0113049Y0004558D01*
X0113032Y0004645D01*
X0113018Y0004733D01*
X0113008Y0004822D01*
X0113002Y0004911D01*
X0113000Y0005000D01*
X0043000Y0005000D02*
X0043002Y0005089D01*
X0043008Y0005178D01*
X0043018Y0005267D01*
X0043032Y0005355D01*
X0043049Y0005442D01*
X0043071Y0005528D01*
X0043097Y0005614D01*
X0043126Y0005698D01*
X0043159Y0005781D01*
X0043195Y0005862D01*
X0043236Y0005942D01*
X0043279Y0006019D01*
X0043326Y0006095D01*
X0043377Y0006168D01*
X0043430Y0006239D01*
X0043487Y0006308D01*
X0043547Y0006374D01*
X0043610Y0006438D01*
X0043675Y0006498D01*
X0043743Y0006556D01*
X0043814Y0006610D01*
X0043887Y0006661D01*
X0043962Y0006709D01*
X0044039Y0006754D01*
X0044118Y0006795D01*
X0044199Y0006832D01*
X0044281Y0006866D01*
X0044365Y0006897D01*
X0044450Y0006923D01*
X0044536Y0006946D01*
X0044623Y0006964D01*
X0044711Y0006979D01*
X0044800Y0006990D01*
X0044889Y0006997D01*
X0044978Y0007000D01*
X0045067Y0006999D01*
X0045156Y0006994D01*
X0045244Y0006985D01*
X0045333Y0006972D01*
X0045420Y0006955D01*
X0045507Y0006935D01*
X0045593Y0006910D01*
X0045677Y0006882D01*
X0045760Y0006850D01*
X0045842Y0006814D01*
X0045922Y0006775D01*
X0046000Y0006732D01*
X0046076Y0006686D01*
X0046150Y0006636D01*
X0046222Y0006583D01*
X0046291Y0006527D01*
X0046358Y0006468D01*
X0046422Y0006406D01*
X0046483Y0006342D01*
X0046542Y0006274D01*
X0046597Y0006204D01*
X0046649Y0006132D01*
X0046698Y0006057D01*
X0046743Y0005981D01*
X0046785Y0005902D01*
X0046823Y0005822D01*
X0046858Y0005740D01*
X0046889Y0005656D01*
X0046917Y0005571D01*
X0046940Y0005485D01*
X0046960Y0005398D01*
X0046976Y0005311D01*
X0046988Y0005222D01*
X0046996Y0005134D01*
X0047000Y0005045D01*
X0047000Y0004955D01*
X0046996Y0004866D01*
X0046988Y0004778D01*
X0046976Y0004689D01*
X0046960Y0004602D01*
X0046940Y0004515D01*
X0046917Y0004429D01*
X0046889Y0004344D01*
X0046858Y0004260D01*
X0046823Y0004178D01*
X0046785Y0004098D01*
X0046743Y0004019D01*
X0046698Y0003943D01*
X0046649Y0003868D01*
X0046597Y0003796D01*
X0046542Y0003726D01*
X0046483Y0003658D01*
X0046422Y0003594D01*
X0046358Y0003532D01*
X0046291Y0003473D01*
X0046222Y0003417D01*
X0046150Y0003364D01*
X0046076Y0003314D01*
X0046000Y0003268D01*
X0045922Y0003225D01*
X0045842Y0003186D01*
X0045760Y0003150D01*
X0045677Y0003118D01*
X0045593Y0003090D01*
X0045507Y0003065D01*
X0045420Y0003045D01*
X0045333Y0003028D01*
X0045244Y0003015D01*
X0045156Y0003006D01*
X0045067Y0003001D01*
X0044978Y0003000D01*
X0044889Y0003003D01*
X0044800Y0003010D01*
X0044711Y0003021D01*
X0044623Y0003036D01*
X0044536Y0003054D01*
X0044450Y0003077D01*
X0044365Y0003103D01*
X0044281Y0003134D01*
X0044199Y0003168D01*
X0044118Y0003205D01*
X0044039Y0003246D01*
X0043962Y0003291D01*
X0043887Y0003339D01*
X0043814Y0003390D01*
X0043743Y0003444D01*
X0043675Y0003502D01*
X0043610Y0003562D01*
X0043547Y0003626D01*
X0043487Y0003692D01*
X0043430Y0003761D01*
X0043377Y0003832D01*
X0043326Y0003905D01*
X0043279Y0003981D01*
X0043236Y0004058D01*
X0043195Y0004138D01*
X0043159Y0004219D01*
X0043126Y0004302D01*
X0043097Y0004386D01*
X0043071Y0004472D01*
X0043049Y0004558D01*
X0043032Y0004645D01*
X0043018Y0004733D01*
X0043008Y0004822D01*
X0043002Y0004911D01*
X0043000Y0005000D01*
X0003500Y0010000D02*
X0003502Y0010161D01*
X0003508Y0010321D01*
X0003518Y0010482D01*
X0003532Y0010642D01*
X0003550Y0010802D01*
X0003571Y0010961D01*
X0003597Y0011120D01*
X0003627Y0011278D01*
X0003660Y0011435D01*
X0003698Y0011592D01*
X0003739Y0011747D01*
X0003784Y0011901D01*
X0003833Y0012054D01*
X0003886Y0012206D01*
X0003942Y0012357D01*
X0004003Y0012506D01*
X0004066Y0012654D01*
X0004134Y0012800D01*
X0004205Y0012944D01*
X0004279Y0013086D01*
X0004357Y0013227D01*
X0004439Y0013365D01*
X0004524Y0013502D01*
X0004612Y0013636D01*
X0004704Y0013768D01*
X0004799Y0013898D01*
X0004897Y0014026D01*
X0004998Y0014151D01*
X0005102Y0014273D01*
X0005209Y0014393D01*
X0005319Y0014510D01*
X0005432Y0014625D01*
X0005548Y0014736D01*
X0005667Y0014845D01*
X0005788Y0014950D01*
X0005912Y0015053D01*
X0006038Y0015153D01*
X0006166Y0015249D01*
X0006297Y0015342D01*
X0006431Y0015432D01*
X0006566Y0015519D01*
X0006704Y0015602D01*
X0006843Y0015682D01*
X0006985Y0015758D01*
X0007128Y0015831D01*
X0007273Y0015900D01*
X0007420Y0015966D01*
X0007568Y0016028D01*
X0007718Y0016086D01*
X0007869Y0016141D01*
X0008022Y0016192D01*
X0008176Y0016239D01*
X0008331Y0016282D01*
X0008487Y0016321D01*
X0008643Y0016357D01*
X0008801Y0016388D01*
X0008959Y0016416D01*
X0009118Y0016440D01*
X0009278Y0016460D01*
X0009438Y0016476D01*
X0009598Y0016488D01*
X0009759Y0016496D01*
X0009920Y0016500D01*
X0010080Y0016500D01*
X0010241Y0016496D01*
X0010402Y0016488D01*
X0010562Y0016476D01*
X0010722Y0016460D01*
X0010882Y0016440D01*
X0011041Y0016416D01*
X0011199Y0016388D01*
X0011357Y0016357D01*
X0011513Y0016321D01*
X0011669Y0016282D01*
X0011824Y0016239D01*
X0011978Y0016192D01*
X0012131Y0016141D01*
X0012282Y0016086D01*
X0012432Y0016028D01*
X0012580Y0015966D01*
X0012727Y0015900D01*
X0012872Y0015831D01*
X0013015Y0015758D01*
X0013157Y0015682D01*
X0013296Y0015602D01*
X0013434Y0015519D01*
X0013569Y0015432D01*
X0013703Y0015342D01*
X0013834Y0015249D01*
X0013962Y0015153D01*
X0014088Y0015053D01*
X0014212Y0014950D01*
X0014333Y0014845D01*
X0014452Y0014736D01*
X0014568Y0014625D01*
X0014681Y0014510D01*
X0014791Y0014393D01*
X0014898Y0014273D01*
X0015002Y0014151D01*
X0015103Y0014026D01*
X0015201Y0013898D01*
X0015296Y0013768D01*
X0015388Y0013636D01*
X0015476Y0013502D01*
X0015561Y0013365D01*
X0015643Y0013227D01*
X0015721Y0013086D01*
X0015795Y0012944D01*
X0015866Y0012800D01*
X0015934Y0012654D01*
X0015997Y0012506D01*
X0016058Y0012357D01*
X0016114Y0012206D01*
X0016167Y0012054D01*
X0016216Y0011901D01*
X0016261Y0011747D01*
X0016302Y0011592D01*
X0016340Y0011435D01*
X0016373Y0011278D01*
X0016403Y0011120D01*
X0016429Y0010961D01*
X0016450Y0010802D01*
X0016468Y0010642D01*
X0016482Y0010482D01*
X0016492Y0010321D01*
X0016498Y0010161D01*
X0016500Y0010000D01*
X0016498Y0009839D01*
X0016492Y0009679D01*
X0016482Y0009518D01*
X0016468Y0009358D01*
X0016450Y0009198D01*
X0016429Y0009039D01*
X0016403Y0008880D01*
X0016373Y0008722D01*
X0016340Y0008565D01*
X0016302Y0008408D01*
X0016261Y0008253D01*
X0016216Y0008099D01*
X0016167Y0007946D01*
X0016114Y0007794D01*
X0016058Y0007643D01*
X0015997Y0007494D01*
X0015934Y0007346D01*
X0015866Y0007200D01*
X0015795Y0007056D01*
X0015721Y0006914D01*
X0015643Y0006773D01*
X0015561Y0006635D01*
X0015476Y0006498D01*
X0015388Y0006364D01*
X0015296Y0006232D01*
X0015201Y0006102D01*
X0015103Y0005974D01*
X0015002Y0005849D01*
X0014898Y0005727D01*
X0014791Y0005607D01*
X0014681Y0005490D01*
X0014568Y0005375D01*
X0014452Y0005264D01*
X0014333Y0005155D01*
X0014212Y0005050D01*
X0014088Y0004947D01*
X0013962Y0004847D01*
X0013834Y0004751D01*
X0013703Y0004658D01*
X0013569Y0004568D01*
X0013434Y0004481D01*
X0013296Y0004398D01*
X0013157Y0004318D01*
X0013015Y0004242D01*
X0012872Y0004169D01*
X0012727Y0004100D01*
X0012580Y0004034D01*
X0012432Y0003972D01*
X0012282Y0003914D01*
X0012131Y0003859D01*
X0011978Y0003808D01*
X0011824Y0003761D01*
X0011669Y0003718D01*
X0011513Y0003679D01*
X0011357Y0003643D01*
X0011199Y0003612D01*
X0011041Y0003584D01*
X0010882Y0003560D01*
X0010722Y0003540D01*
X0010562Y0003524D01*
X0010402Y0003512D01*
X0010241Y0003504D01*
X0010080Y0003500D01*
X0009920Y0003500D01*
X0009759Y0003504D01*
X0009598Y0003512D01*
X0009438Y0003524D01*
X0009278Y0003540D01*
X0009118Y0003560D01*
X0008959Y0003584D01*
X0008801Y0003612D01*
X0008643Y0003643D01*
X0008487Y0003679D01*
X0008331Y0003718D01*
X0008176Y0003761D01*
X0008022Y0003808D01*
X0007869Y0003859D01*
X0007718Y0003914D01*
X0007568Y0003972D01*
X0007420Y0004034D01*
X0007273Y0004100D01*
X0007128Y0004169D01*
X0006985Y0004242D01*
X0006843Y0004318D01*
X0006704Y0004398D01*
X0006566Y0004481D01*
X0006431Y0004568D01*
X0006297Y0004658D01*
X0006166Y0004751D01*
X0006038Y0004847D01*
X0005912Y0004947D01*
X0005788Y0005050D01*
X0005667Y0005155D01*
X0005548Y0005264D01*
X0005432Y0005375D01*
X0005319Y0005490D01*
X0005209Y0005607D01*
X0005102Y0005727D01*
X0004998Y0005849D01*
X0004897Y0005974D01*
X0004799Y0006102D01*
X0004704Y0006232D01*
X0004612Y0006364D01*
X0004524Y0006498D01*
X0004439Y0006635D01*
X0004357Y0006773D01*
X0004279Y0006914D01*
X0004205Y0007056D01*
X0004134Y0007200D01*
X0004066Y0007346D01*
X0004003Y0007494D01*
X0003942Y0007643D01*
X0003886Y0007794D01*
X0003833Y0007946D01*
X0003784Y0008099D01*
X0003739Y0008253D01*
X0003698Y0008408D01*
X0003660Y0008565D01*
X0003627Y0008722D01*
X0003597Y0008880D01*
X0003571Y0009039D01*
X0003550Y0009198D01*
X0003532Y0009358D01*
X0003518Y0009518D01*
X0003508Y0009679D01*
X0003502Y0009839D01*
X0003500Y0010000D01*
X0003500Y0130000D02*
X0003502Y0130161D01*
X0003508Y0130321D01*
X0003518Y0130482D01*
X0003532Y0130642D01*
X0003550Y0130802D01*
X0003571Y0130961D01*
X0003597Y0131120D01*
X0003627Y0131278D01*
X0003660Y0131435D01*
X0003698Y0131592D01*
X0003739Y0131747D01*
X0003784Y0131901D01*
X0003833Y0132054D01*
X0003886Y0132206D01*
X0003942Y0132357D01*
X0004003Y0132506D01*
X0004066Y0132654D01*
X0004134Y0132800D01*
X0004205Y0132944D01*
X0004279Y0133086D01*
X0004357Y0133227D01*
X0004439Y0133365D01*
X0004524Y0133502D01*
X0004612Y0133636D01*
X0004704Y0133768D01*
X0004799Y0133898D01*
X0004897Y0134026D01*
X0004998Y0134151D01*
X0005102Y0134273D01*
X0005209Y0134393D01*
X0005319Y0134510D01*
X0005432Y0134625D01*
X0005548Y0134736D01*
X0005667Y0134845D01*
X0005788Y0134950D01*
X0005912Y0135053D01*
X0006038Y0135153D01*
X0006166Y0135249D01*
X0006297Y0135342D01*
X0006431Y0135432D01*
X0006566Y0135519D01*
X0006704Y0135602D01*
X0006843Y0135682D01*
X0006985Y0135758D01*
X0007128Y0135831D01*
X0007273Y0135900D01*
X0007420Y0135966D01*
X0007568Y0136028D01*
X0007718Y0136086D01*
X0007869Y0136141D01*
X0008022Y0136192D01*
X0008176Y0136239D01*
X0008331Y0136282D01*
X0008487Y0136321D01*
X0008643Y0136357D01*
X0008801Y0136388D01*
X0008959Y0136416D01*
X0009118Y0136440D01*
X0009278Y0136460D01*
X0009438Y0136476D01*
X0009598Y0136488D01*
X0009759Y0136496D01*
X0009920Y0136500D01*
X0010080Y0136500D01*
X0010241Y0136496D01*
X0010402Y0136488D01*
X0010562Y0136476D01*
X0010722Y0136460D01*
X0010882Y0136440D01*
X0011041Y0136416D01*
X0011199Y0136388D01*
X0011357Y0136357D01*
X0011513Y0136321D01*
X0011669Y0136282D01*
X0011824Y0136239D01*
X0011978Y0136192D01*
X0012131Y0136141D01*
X0012282Y0136086D01*
X0012432Y0136028D01*
X0012580Y0135966D01*
X0012727Y0135900D01*
X0012872Y0135831D01*
X0013015Y0135758D01*
X0013157Y0135682D01*
X0013296Y0135602D01*
X0013434Y0135519D01*
X0013569Y0135432D01*
X0013703Y0135342D01*
X0013834Y0135249D01*
X0013962Y0135153D01*
X0014088Y0135053D01*
X0014212Y0134950D01*
X0014333Y0134845D01*
X0014452Y0134736D01*
X0014568Y0134625D01*
X0014681Y0134510D01*
X0014791Y0134393D01*
X0014898Y0134273D01*
X0015002Y0134151D01*
X0015103Y0134026D01*
X0015201Y0133898D01*
X0015296Y0133768D01*
X0015388Y0133636D01*
X0015476Y0133502D01*
X0015561Y0133365D01*
X0015643Y0133227D01*
X0015721Y0133086D01*
X0015795Y0132944D01*
X0015866Y0132800D01*
X0015934Y0132654D01*
X0015997Y0132506D01*
X0016058Y0132357D01*
X0016114Y0132206D01*
X0016167Y0132054D01*
X0016216Y0131901D01*
X0016261Y0131747D01*
X0016302Y0131592D01*
X0016340Y0131435D01*
X0016373Y0131278D01*
X0016403Y0131120D01*
X0016429Y0130961D01*
X0016450Y0130802D01*
X0016468Y0130642D01*
X0016482Y0130482D01*
X0016492Y0130321D01*
X0016498Y0130161D01*
X0016500Y0130000D01*
X0016498Y0129839D01*
X0016492Y0129679D01*
X0016482Y0129518D01*
X0016468Y0129358D01*
X0016450Y0129198D01*
X0016429Y0129039D01*
X0016403Y0128880D01*
X0016373Y0128722D01*
X0016340Y0128565D01*
X0016302Y0128408D01*
X0016261Y0128253D01*
X0016216Y0128099D01*
X0016167Y0127946D01*
X0016114Y0127794D01*
X0016058Y0127643D01*
X0015997Y0127494D01*
X0015934Y0127346D01*
X0015866Y0127200D01*
X0015795Y0127056D01*
X0015721Y0126914D01*
X0015643Y0126773D01*
X0015561Y0126635D01*
X0015476Y0126498D01*
X0015388Y0126364D01*
X0015296Y0126232D01*
X0015201Y0126102D01*
X0015103Y0125974D01*
X0015002Y0125849D01*
X0014898Y0125727D01*
X0014791Y0125607D01*
X0014681Y0125490D01*
X0014568Y0125375D01*
X0014452Y0125264D01*
X0014333Y0125155D01*
X0014212Y0125050D01*
X0014088Y0124947D01*
X0013962Y0124847D01*
X0013834Y0124751D01*
X0013703Y0124658D01*
X0013569Y0124568D01*
X0013434Y0124481D01*
X0013296Y0124398D01*
X0013157Y0124318D01*
X0013015Y0124242D01*
X0012872Y0124169D01*
X0012727Y0124100D01*
X0012580Y0124034D01*
X0012432Y0123972D01*
X0012282Y0123914D01*
X0012131Y0123859D01*
X0011978Y0123808D01*
X0011824Y0123761D01*
X0011669Y0123718D01*
X0011513Y0123679D01*
X0011357Y0123643D01*
X0011199Y0123612D01*
X0011041Y0123584D01*
X0010882Y0123560D01*
X0010722Y0123540D01*
X0010562Y0123524D01*
X0010402Y0123512D01*
X0010241Y0123504D01*
X0010080Y0123500D01*
X0009920Y0123500D01*
X0009759Y0123504D01*
X0009598Y0123512D01*
X0009438Y0123524D01*
X0009278Y0123540D01*
X0009118Y0123560D01*
X0008959Y0123584D01*
X0008801Y0123612D01*
X0008643Y0123643D01*
X0008487Y0123679D01*
X0008331Y0123718D01*
X0008176Y0123761D01*
X0008022Y0123808D01*
X0007869Y0123859D01*
X0007718Y0123914D01*
X0007568Y0123972D01*
X0007420Y0124034D01*
X0007273Y0124100D01*
X0007128Y0124169D01*
X0006985Y0124242D01*
X0006843Y0124318D01*
X0006704Y0124398D01*
X0006566Y0124481D01*
X0006431Y0124568D01*
X0006297Y0124658D01*
X0006166Y0124751D01*
X0006038Y0124847D01*
X0005912Y0124947D01*
X0005788Y0125050D01*
X0005667Y0125155D01*
X0005548Y0125264D01*
X0005432Y0125375D01*
X0005319Y0125490D01*
X0005209Y0125607D01*
X0005102Y0125727D01*
X0004998Y0125849D01*
X0004897Y0125974D01*
X0004799Y0126102D01*
X0004704Y0126232D01*
X0004612Y0126364D01*
X0004524Y0126498D01*
X0004439Y0126635D01*
X0004357Y0126773D01*
X0004279Y0126914D01*
X0004205Y0127056D01*
X0004134Y0127200D01*
X0004066Y0127346D01*
X0004003Y0127494D01*
X0003942Y0127643D01*
X0003886Y0127794D01*
X0003833Y0127946D01*
X0003784Y0128099D01*
X0003739Y0128253D01*
X0003698Y0128408D01*
X0003660Y0128565D01*
X0003627Y0128722D01*
X0003597Y0128880D01*
X0003571Y0129039D01*
X0003550Y0129198D01*
X0003532Y0129358D01*
X0003518Y0129518D01*
X0003508Y0129679D01*
X0003502Y0129839D01*
X0003500Y0130000D01*
X0143500Y0130000D02*
X0143502Y0130161D01*
X0143508Y0130321D01*
X0143518Y0130482D01*
X0143532Y0130642D01*
X0143550Y0130802D01*
X0143571Y0130961D01*
X0143597Y0131120D01*
X0143627Y0131278D01*
X0143660Y0131435D01*
X0143698Y0131592D01*
X0143739Y0131747D01*
X0143784Y0131901D01*
X0143833Y0132054D01*
X0143886Y0132206D01*
X0143942Y0132357D01*
X0144003Y0132506D01*
X0144066Y0132654D01*
X0144134Y0132800D01*
X0144205Y0132944D01*
X0144279Y0133086D01*
X0144357Y0133227D01*
X0144439Y0133365D01*
X0144524Y0133502D01*
X0144612Y0133636D01*
X0144704Y0133768D01*
X0144799Y0133898D01*
X0144897Y0134026D01*
X0144998Y0134151D01*
X0145102Y0134273D01*
X0145209Y0134393D01*
X0145319Y0134510D01*
X0145432Y0134625D01*
X0145548Y0134736D01*
X0145667Y0134845D01*
X0145788Y0134950D01*
X0145912Y0135053D01*
X0146038Y0135153D01*
X0146166Y0135249D01*
X0146297Y0135342D01*
X0146431Y0135432D01*
X0146566Y0135519D01*
X0146704Y0135602D01*
X0146843Y0135682D01*
X0146985Y0135758D01*
X0147128Y0135831D01*
X0147273Y0135900D01*
X0147420Y0135966D01*
X0147568Y0136028D01*
X0147718Y0136086D01*
X0147869Y0136141D01*
X0148022Y0136192D01*
X0148176Y0136239D01*
X0148331Y0136282D01*
X0148487Y0136321D01*
X0148643Y0136357D01*
X0148801Y0136388D01*
X0148959Y0136416D01*
X0149118Y0136440D01*
X0149278Y0136460D01*
X0149438Y0136476D01*
X0149598Y0136488D01*
X0149759Y0136496D01*
X0149920Y0136500D01*
X0150080Y0136500D01*
X0150241Y0136496D01*
X0150402Y0136488D01*
X0150562Y0136476D01*
X0150722Y0136460D01*
X0150882Y0136440D01*
X0151041Y0136416D01*
X0151199Y0136388D01*
X0151357Y0136357D01*
X0151513Y0136321D01*
X0151669Y0136282D01*
X0151824Y0136239D01*
X0151978Y0136192D01*
X0152131Y0136141D01*
X0152282Y0136086D01*
X0152432Y0136028D01*
X0152580Y0135966D01*
X0152727Y0135900D01*
X0152872Y0135831D01*
X0153015Y0135758D01*
X0153157Y0135682D01*
X0153296Y0135602D01*
X0153434Y0135519D01*
X0153569Y0135432D01*
X0153703Y0135342D01*
X0153834Y0135249D01*
X0153962Y0135153D01*
X0154088Y0135053D01*
X0154212Y0134950D01*
X0154333Y0134845D01*
X0154452Y0134736D01*
X0154568Y0134625D01*
X0154681Y0134510D01*
X0154791Y0134393D01*
X0154898Y0134273D01*
X0155002Y0134151D01*
X0155103Y0134026D01*
X0155201Y0133898D01*
X0155296Y0133768D01*
X0155388Y0133636D01*
X0155476Y0133502D01*
X0155561Y0133365D01*
X0155643Y0133227D01*
X0155721Y0133086D01*
X0155795Y0132944D01*
X0155866Y0132800D01*
X0155934Y0132654D01*
X0155997Y0132506D01*
X0156058Y0132357D01*
X0156114Y0132206D01*
X0156167Y0132054D01*
X0156216Y0131901D01*
X0156261Y0131747D01*
X0156302Y0131592D01*
X0156340Y0131435D01*
X0156373Y0131278D01*
X0156403Y0131120D01*
X0156429Y0130961D01*
X0156450Y0130802D01*
X0156468Y0130642D01*
X0156482Y0130482D01*
X0156492Y0130321D01*
X0156498Y0130161D01*
X0156500Y0130000D01*
X0156498Y0129839D01*
X0156492Y0129679D01*
X0156482Y0129518D01*
X0156468Y0129358D01*
X0156450Y0129198D01*
X0156429Y0129039D01*
X0156403Y0128880D01*
X0156373Y0128722D01*
X0156340Y0128565D01*
X0156302Y0128408D01*
X0156261Y0128253D01*
X0156216Y0128099D01*
X0156167Y0127946D01*
X0156114Y0127794D01*
X0156058Y0127643D01*
X0155997Y0127494D01*
X0155934Y0127346D01*
X0155866Y0127200D01*
X0155795Y0127056D01*
X0155721Y0126914D01*
X0155643Y0126773D01*
X0155561Y0126635D01*
X0155476Y0126498D01*
X0155388Y0126364D01*
X0155296Y0126232D01*
X0155201Y0126102D01*
X0155103Y0125974D01*
X0155002Y0125849D01*
X0154898Y0125727D01*
X0154791Y0125607D01*
X0154681Y0125490D01*
X0154568Y0125375D01*
X0154452Y0125264D01*
X0154333Y0125155D01*
X0154212Y0125050D01*
X0154088Y0124947D01*
X0153962Y0124847D01*
X0153834Y0124751D01*
X0153703Y0124658D01*
X0153569Y0124568D01*
X0153434Y0124481D01*
X0153296Y0124398D01*
X0153157Y0124318D01*
X0153015Y0124242D01*
X0152872Y0124169D01*
X0152727Y0124100D01*
X0152580Y0124034D01*
X0152432Y0123972D01*
X0152282Y0123914D01*
X0152131Y0123859D01*
X0151978Y0123808D01*
X0151824Y0123761D01*
X0151669Y0123718D01*
X0151513Y0123679D01*
X0151357Y0123643D01*
X0151199Y0123612D01*
X0151041Y0123584D01*
X0150882Y0123560D01*
X0150722Y0123540D01*
X0150562Y0123524D01*
X0150402Y0123512D01*
X0150241Y0123504D01*
X0150080Y0123500D01*
X0149920Y0123500D01*
X0149759Y0123504D01*
X0149598Y0123512D01*
X0149438Y0123524D01*
X0149278Y0123540D01*
X0149118Y0123560D01*
X0148959Y0123584D01*
X0148801Y0123612D01*
X0148643Y0123643D01*
X0148487Y0123679D01*
X0148331Y0123718D01*
X0148176Y0123761D01*
X0148022Y0123808D01*
X0147869Y0123859D01*
X0147718Y0123914D01*
X0147568Y0123972D01*
X0147420Y0124034D01*
X0147273Y0124100D01*
X0147128Y0124169D01*
X0146985Y0124242D01*
X0146843Y0124318D01*
X0146704Y0124398D01*
X0146566Y0124481D01*
X0146431Y0124568D01*
X0146297Y0124658D01*
X0146166Y0124751D01*
X0146038Y0124847D01*
X0145912Y0124947D01*
X0145788Y0125050D01*
X0145667Y0125155D01*
X0145548Y0125264D01*
X0145432Y0125375D01*
X0145319Y0125490D01*
X0145209Y0125607D01*
X0145102Y0125727D01*
X0144998Y0125849D01*
X0144897Y0125974D01*
X0144799Y0126102D01*
X0144704Y0126232D01*
X0144612Y0126364D01*
X0144524Y0126498D01*
X0144439Y0126635D01*
X0144357Y0126773D01*
X0144279Y0126914D01*
X0144205Y0127056D01*
X0144134Y0127200D01*
X0144066Y0127346D01*
X0144003Y0127494D01*
X0143942Y0127643D01*
X0143886Y0127794D01*
X0143833Y0127946D01*
X0143784Y0128099D01*
X0143739Y0128253D01*
X0143698Y0128408D01*
X0143660Y0128565D01*
X0143627Y0128722D01*
X0143597Y0128880D01*
X0143571Y0129039D01*
X0143550Y0129198D01*
X0143532Y0129358D01*
X0143518Y0129518D01*
X0143508Y0129679D01*
X0143502Y0129839D01*
X0143500Y0130000D01*
D15*
X0125000Y0125000D03*
X0115000Y0125000D03*
X0115000Y0115000D03*
X0125000Y0115000D03*
X0125000Y0105000D03*
X0115000Y0105000D03*
X0115000Y0095000D03*
X0125000Y0095000D03*
X0125000Y0085000D03*
X0115000Y0085000D03*
X0115000Y0075000D03*
X0115000Y0065000D03*
X0125000Y0065000D03*
X0125000Y0075000D03*
X0125000Y0055000D03*
X0115000Y0055000D03*
X0115000Y0045000D03*
X0125000Y0045000D03*
X0125000Y0035000D03*
X0115000Y0035000D03*
X0115000Y0025000D03*
X0125000Y0025000D03*
X0125000Y0015000D03*
X0115000Y0015000D03*
X0045000Y0015000D03*
X0035000Y0015000D03*
X0035000Y0025000D03*
X0045000Y0025000D03*
X0045000Y0035000D03*
X0035000Y0035000D03*
X0035000Y0045000D03*
X0045000Y0045000D03*
X0045000Y0055000D03*
X0035000Y0055000D03*
X0035000Y0065000D03*
X0035000Y0075000D03*
X0045000Y0075000D03*
X0045000Y0065000D03*
X0045000Y0085000D03*
X0035000Y0085000D03*
X0035000Y0095000D03*
X0045000Y0095000D03*
X0045000Y0105000D03*
X0035000Y0105000D03*
X0035000Y0115000D03*
X0045000Y0115000D03*
X0045000Y0125000D03*
X0035000Y0125000D03*
D16*
X0045000Y0125000D01*
X0048200Y0124200D02*
X0031900Y0124200D01*
X0031800Y0123850D01*
X0026200Y0123850D01*
X0026200Y0126150D01*
X0031800Y0126150D01*
X0031800Y0125800D01*
X0048200Y0125800D01*
X0048200Y0126150D01*
X0053800Y0126150D01*
X0053800Y0123850D01*
X0048200Y0123850D01*
X0048200Y0124200D01*
X0048757Y0121050D02*
X0054357Y0121050D01*
X0055386Y0121476D01*
X0056174Y0122264D01*
X0056600Y0123293D01*
X0056600Y0126707D01*
X0056174Y0127736D01*
X0055386Y0128524D01*
X0054357Y0128950D01*
X0048757Y0128950D01*
X0048087Y0129620D01*
X0046084Y0130450D01*
X0043916Y0130450D01*
X0041913Y0129620D01*
X0040893Y0128600D01*
X0039107Y0128600D01*
X0038087Y0129620D01*
X0036084Y0130450D01*
X0033916Y0130450D01*
X0031913Y0129620D01*
X0031243Y0128950D01*
X0029182Y0128950D01*
X0028257Y0129875D01*
X0026144Y0130750D01*
X0023856Y0130750D01*
X0021743Y0129875D01*
X0020125Y0128257D01*
X0019250Y0126144D01*
X0019250Y0123856D01*
X0020125Y0121743D01*
X0021743Y0120125D01*
X0022046Y0120000D01*
X0021743Y0119875D01*
X0020125Y0118257D01*
X0019250Y0116144D01*
X0019250Y0113856D01*
X0020125Y0111743D01*
X0021743Y0110125D01*
X0022046Y0110000D01*
X0021743Y0109875D01*
X0020125Y0108257D01*
X0019250Y0106144D01*
X0019250Y0103856D01*
X0020125Y0101743D01*
X0021743Y0100125D01*
X0022046Y0100000D01*
X0021743Y0099875D01*
X0020125Y0098257D01*
X0019250Y0096144D01*
X0019250Y0093856D01*
X0020125Y0091743D01*
X0021743Y0090125D01*
X0022046Y0090000D01*
X0021743Y0089875D01*
X0020125Y0088257D01*
X0019250Y0086144D01*
X0019250Y0083856D01*
X0020125Y0081743D01*
X0021743Y0080125D01*
X0022046Y0080000D01*
X0021743Y0079875D01*
X0020125Y0078257D01*
X0019250Y0076144D01*
X0019250Y0073856D01*
X0020125Y0071743D01*
X0021743Y0070125D01*
X0022046Y0070000D01*
X0021743Y0069875D01*
X0020125Y0068257D01*
X0019250Y0066144D01*
X0019250Y0063856D01*
X0020125Y0061743D01*
X0021743Y0060125D01*
X0022046Y0060000D01*
X0021743Y0059875D01*
X0020125Y0058257D01*
X0019250Y0056144D01*
X0019250Y0053856D01*
X0020125Y0051743D01*
X0021743Y0050125D01*
X0022046Y0050000D01*
X0021743Y0049875D01*
X0020125Y0048257D01*
X0019250Y0046144D01*
X0019250Y0043856D01*
X0020125Y0041743D01*
X0021743Y0040125D01*
X0022046Y0040000D01*
X0021743Y0039875D01*
X0020125Y0038257D01*
X0019250Y0036144D01*
X0019250Y0033856D01*
X0020125Y0031743D01*
X0021743Y0030125D01*
X0022046Y0030000D01*
X0021743Y0029875D01*
X0020125Y0028257D01*
X0019250Y0026144D01*
X0019250Y0023856D01*
X0020125Y0021743D01*
X0021743Y0020125D01*
X0022046Y0020000D01*
X0021743Y0019875D01*
X0020125Y0018257D01*
X0019250Y0016144D01*
X0019250Y0013856D01*
X0020125Y0011743D01*
X0021743Y0010125D01*
X0023856Y0009250D01*
X0026144Y0009250D01*
X0028257Y0010125D01*
X0029182Y0011050D01*
X0031243Y0011050D01*
X0031913Y0010380D01*
X0033916Y0009550D01*
X0036084Y0009550D01*
X0038087Y0010380D01*
X0039107Y0011400D01*
X0040893Y0011400D01*
X0041913Y0010380D01*
X0043679Y0009648D01*
X0042281Y0009069D01*
X0040931Y0007719D01*
X0040200Y0005955D01*
X0040200Y0004045D01*
X0040550Y0003200D01*
X0016987Y0003200D01*
X0017545Y0003669D01*
X0019256Y0006631D01*
X0019850Y0010000D01*
X0019256Y0013369D01*
X0017545Y0016331D01*
X0017545Y0016331D01*
X0014925Y0018530D01*
X0014925Y0018530D01*
X0011710Y0019700D01*
X0008290Y0019700D01*
X0005075Y0018530D01*
X0003200Y0016957D01*
X0003200Y0123043D01*
X0005075Y0121470D01*
X0005075Y0121470D01*
X0008290Y0120300D01*
X0011710Y0120300D01*
X0014925Y0121470D01*
X0017545Y0123669D01*
X0019256Y0126631D01*
X0019850Y0130000D01*
X0019256Y0133369D01*
X0017545Y0136331D01*
X0017545Y0136331D01*
X0016987Y0136800D01*
X0143013Y0136800D01*
X0142455Y0136331D01*
X0140744Y0133369D01*
X0140744Y0133369D01*
X0140150Y0130000D01*
X0140744Y0126631D01*
X0142455Y0123669D01*
X0145075Y0121470D01*
X0145075Y0121470D01*
X0148290Y0120300D01*
X0151710Y0120300D01*
X0154925Y0121470D01*
X0156800Y0123043D01*
X0156800Y0103954D01*
X0156080Y0104252D01*
X0154592Y0104252D01*
X0154237Y0104105D01*
X0153709Y0103887D01*
X0151940Y0102117D01*
X0151923Y0102117D01*
X0151041Y0101751D01*
X0150365Y0101076D01*
X0150000Y0100194D01*
X0150000Y0099239D01*
X0150233Y0098676D01*
X0150000Y0098112D01*
X0150000Y0096090D01*
X0150365Y0095208D01*
X0150899Y0094674D01*
X0151574Y0093999D01*
X0151601Y0093988D01*
X0151601Y0091873D01*
X0151935Y0091067D01*
X0151923Y0091067D01*
X0151041Y0090702D01*
X0150365Y0090027D01*
X0150000Y0089145D01*
X0150000Y0088190D01*
X0150233Y0087627D01*
X0150000Y0087063D01*
X0150000Y0085041D01*
X0150365Y0084159D01*
X0150899Y0083625D01*
X0151574Y0082950D01*
X0151601Y0082938D01*
X0151601Y0081799D01*
X0151574Y0081788D01*
X0150899Y0081113D01*
X0150365Y0080579D01*
X0150000Y0079697D01*
X0150000Y0077674D01*
X0150233Y0077111D01*
X0150000Y0076547D01*
X0150000Y0073457D01*
X0150233Y0072894D01*
X0150000Y0072330D01*
X0150000Y0070308D01*
X0150233Y0069745D01*
X0150000Y0069181D01*
X0150000Y0066091D01*
X0150365Y0065209D01*
X0151041Y0064534D01*
X0151923Y0064169D01*
X0152877Y0064169D01*
X0153734Y0064524D01*
X0154592Y0064169D01*
X0155546Y0064169D01*
X0156428Y0064534D01*
X0156800Y0064905D01*
X0156800Y0016957D01*
X0154925Y0018530D01*
X0154925Y0018530D01*
X0151710Y0019700D01*
X0148290Y0019700D01*
X0145075Y0018530D01*
X0142455Y0016331D01*
X0140744Y0013369D01*
X0140744Y0013369D01*
X0140150Y0010000D01*
X0140744Y0006631D01*
X0142455Y0003669D01*
X0143013Y0003200D01*
X0119450Y0003200D01*
X0119800Y0004045D01*
X0119800Y0004233D01*
X0121972Y0008578D01*
X0122035Y0008641D01*
X0122185Y0009003D01*
X0122360Y0009354D01*
X0122366Y0009441D01*
X0122400Y0009523D01*
X0122400Y0009915D01*
X0122418Y0010170D01*
X0123916Y0009550D01*
X0126084Y0009550D01*
X0128087Y0010380D01*
X0128757Y0011050D01*
X0130818Y0011050D01*
X0131743Y0010125D01*
X0133856Y0009250D01*
X0136144Y0009250D01*
X0138257Y0010125D01*
X0139875Y0011743D01*
X0140750Y0013856D01*
X0140750Y0016144D01*
X0139875Y0018257D01*
X0138257Y0019875D01*
X0137954Y0020000D01*
X0138257Y0020125D01*
X0139875Y0021743D01*
X0140750Y0023856D01*
X0140750Y0026144D01*
X0139875Y0028257D01*
X0138257Y0029875D01*
X0137954Y0030000D01*
X0138257Y0030125D01*
X0139875Y0031743D01*
X0140750Y0033856D01*
X0140750Y0036144D01*
X0139875Y0038257D01*
X0138257Y0039875D01*
X0137954Y0040000D01*
X0138257Y0040125D01*
X0139875Y0041743D01*
X0140750Y0043856D01*
X0140750Y0046144D01*
X0139875Y0048257D01*
X0138257Y0049875D01*
X0137954Y0050000D01*
X0138257Y0050125D01*
X0139875Y0051743D01*
X0140750Y0053856D01*
X0140750Y0056144D01*
X0139875Y0058257D01*
X0138257Y0059875D01*
X0137954Y0060000D01*
X0138257Y0060125D01*
X0139875Y0061743D01*
X0140750Y0063856D01*
X0140750Y0066144D01*
X0139875Y0068257D01*
X0138257Y0069875D01*
X0137954Y0070000D01*
X0138257Y0070125D01*
X0139875Y0071743D01*
X0140750Y0073856D01*
X0140750Y0076144D01*
X0139875Y0078257D01*
X0138257Y0079875D01*
X0137954Y0080000D01*
X0138257Y0080125D01*
X0139875Y0081743D01*
X0140750Y0083856D01*
X0140750Y0086144D01*
X0139875Y0088257D01*
X0138257Y0089875D01*
X0137655Y0090124D01*
X0137909Y0090253D01*
X0138616Y0090767D01*
X0139233Y0091384D01*
X0139747Y0092091D01*
X0140143Y0092870D01*
X0140413Y0093700D01*
X0140550Y0094563D01*
X0140550Y0094810D01*
X0135200Y0094800D01*
X0135200Y0095200D01*
X0136400Y0095200D01*
X0136400Y0095202D01*
X0140550Y0095210D01*
X0140550Y0095437D01*
X0140413Y0096300D01*
X0140143Y0097130D01*
X0139747Y0097909D01*
X0139233Y0098616D01*
X0138616Y0099233D01*
X0137909Y0099747D01*
X0137655Y0099876D01*
X0138257Y0100125D01*
X0139875Y0101743D01*
X0140750Y0103856D01*
X0140750Y0106144D01*
X0139875Y0108257D01*
X0138257Y0109875D01*
X0137954Y0110000D01*
X0138257Y0110125D01*
X0139875Y0111743D01*
X0140750Y0113856D01*
X0140750Y0116144D01*
X0139875Y0118257D01*
X0138257Y0119875D01*
X0137954Y0120000D01*
X0138257Y0120125D01*
X0139875Y0121743D01*
X0140750Y0123856D01*
X0140750Y0126144D01*
X0139875Y0128257D01*
X0138257Y0129875D01*
X0136144Y0130750D01*
X0133856Y0130750D01*
X0131743Y0129875D01*
X0130818Y0128950D01*
X0128757Y0128950D01*
X0128087Y0129620D01*
X0126084Y0130450D01*
X0123916Y0130450D01*
X0121913Y0129620D01*
X0120893Y0128600D01*
X0119107Y0128600D01*
X0118087Y0129620D01*
X0116084Y0130450D01*
X0113916Y0130450D01*
X0111913Y0129620D01*
X0111243Y0128950D01*
X0105643Y0128950D01*
X0104614Y0128524D01*
X0103890Y0127800D01*
X0096320Y0127800D01*
X0096089Y0127853D01*
X0095768Y0127800D01*
X0095443Y0127800D01*
X0095224Y0127709D01*
X0094990Y0127670D01*
X0094714Y0127498D01*
X0094414Y0127374D01*
X0094246Y0127206D01*
X0094045Y0127081D01*
X0093856Y0126816D01*
X0093626Y0126586D01*
X0093536Y0126367D01*
X0085416Y0115000D01*
X0085204Y0115000D01*
X0084604Y0114751D01*
X0084391Y0115266D01*
X0083266Y0116391D01*
X0081796Y0117000D01*
X0080204Y0117000D01*
X0078734Y0116391D01*
X0077609Y0115266D01*
X0077000Y0113796D01*
X0077000Y0112204D01*
X0077196Y0111731D01*
X0061584Y0096119D01*
X0060881Y0095416D01*
X0060500Y0094497D01*
X0060500Y0069036D01*
X0058964Y0067500D01*
X0056272Y0067500D01*
X0056174Y0067736D01*
X0055386Y0068524D01*
X0054357Y0068950D01*
X0048757Y0068950D01*
X0048087Y0069620D01*
X0047170Y0070000D01*
X0048087Y0070380D01*
X0048757Y0071050D01*
X0054357Y0071050D01*
X0055386Y0071476D01*
X0056174Y0072264D01*
X0056600Y0073293D01*
X0056600Y0076707D01*
X0056174Y0077736D01*
X0055386Y0078524D01*
X0054357Y0078950D01*
X0048757Y0078950D01*
X0048087Y0079620D01*
X0047170Y0080000D01*
X0048087Y0080380D01*
X0048757Y0081050D01*
X0054357Y0081050D01*
X0055386Y0081476D01*
X0056174Y0082264D01*
X0056600Y0083293D01*
X0056600Y0086707D01*
X0056174Y0087736D01*
X0055386Y0088524D01*
X0054357Y0088950D01*
X0048757Y0088950D01*
X0048087Y0089620D01*
X0047170Y0090000D01*
X0048087Y0090380D01*
X0048757Y0091050D01*
X0054357Y0091050D01*
X0055386Y0091476D01*
X0056174Y0092264D01*
X0056600Y0093293D01*
X0056600Y0096707D01*
X0056174Y0097736D01*
X0055386Y0098524D01*
X0054357Y0098950D01*
X0048757Y0098950D01*
X0048087Y0099620D01*
X0047170Y0100000D01*
X0048087Y0100380D01*
X0048757Y0101050D01*
X0054357Y0101050D01*
X0055386Y0101476D01*
X0056174Y0102264D01*
X0056600Y0103293D01*
X0056600Y0106707D01*
X0056174Y0107736D01*
X0055386Y0108524D01*
X0054357Y0108950D01*
X0048757Y0108950D01*
X0048087Y0109620D01*
X0047170Y0110000D01*
X0048087Y0110380D01*
X0048757Y0111050D01*
X0054357Y0111050D01*
X0055386Y0111476D01*
X0056174Y0112264D01*
X0056600Y0113293D01*
X0056600Y0116707D01*
X0056174Y0117736D01*
X0055386Y0118524D01*
X0054357Y0118950D01*
X0048757Y0118950D01*
X0048087Y0119620D01*
X0047170Y0120000D01*
X0048087Y0120380D01*
X0048757Y0121050D01*
X0047440Y0119888D02*
X0088908Y0119888D01*
X0087766Y0118290D02*
X0055620Y0118290D01*
X0056600Y0116691D02*
X0079459Y0116691D01*
X0077537Y0115093D02*
X0056600Y0115093D01*
X0056600Y0113494D02*
X0077000Y0113494D01*
X0077128Y0111896D02*
X0055806Y0111896D01*
X0053800Y0113850D02*
X0048200Y0113850D01*
X0048200Y0114200D01*
X0031900Y0114200D01*
X0031800Y0113850D01*
X0026200Y0113850D01*
X0026200Y0116150D01*
X0031800Y0116150D01*
X0031800Y0115800D01*
X0048200Y0115800D01*
X0048200Y0116150D01*
X0053800Y0116150D01*
X0053800Y0113850D01*
X0053800Y0115093D02*
X0026200Y0115093D01*
X0025000Y0115000D02*
X0035000Y0115000D01*
X0045000Y0115000D01*
X0047888Y0110297D02*
X0075762Y0110297D01*
X0074163Y0108699D02*
X0054963Y0108699D01*
X0056437Y0107100D02*
X0072565Y0107100D01*
X0070966Y0105502D02*
X0056600Y0105502D01*
X0056600Y0103903D02*
X0069368Y0103903D01*
X0067769Y0102305D02*
X0056191Y0102305D01*
X0053800Y0103850D02*
X0048200Y0103850D01*
X0048200Y0104200D01*
X0031900Y0104200D01*
X0031800Y0103850D01*
X0026200Y0103850D01*
X0026200Y0106150D01*
X0031800Y0106150D01*
X0031800Y0105800D01*
X0048200Y0105800D01*
X0048200Y0106150D01*
X0053800Y0106150D01*
X0053800Y0103850D01*
X0053800Y0103903D02*
X0048200Y0103903D01*
X0048414Y0100706D02*
X0066171Y0100706D01*
X0064572Y0099108D02*
X0048600Y0099108D01*
X0048200Y0096150D02*
X0053800Y0096150D01*
X0053800Y0093850D01*
X0048200Y0093850D01*
X0048200Y0094200D01*
X0031900Y0094200D01*
X0031800Y0093850D01*
X0026200Y0093850D01*
X0026200Y0096150D01*
X0031800Y0096150D01*
X0031800Y0095800D01*
X0048200Y0095800D01*
X0048200Y0096150D01*
X0048200Y0095911D02*
X0053800Y0095911D01*
X0053800Y0094312D02*
X0026200Y0094312D01*
X0025000Y0095000D02*
X0035000Y0095000D01*
X0045000Y0095000D01*
X0048191Y0089517D02*
X0060500Y0089517D01*
X0060500Y0091115D02*
X0054514Y0091115D01*
X0056360Y0092714D02*
X0060500Y0092714D01*
X0060500Y0094312D02*
X0056600Y0094312D01*
X0056600Y0095911D02*
X0061375Y0095911D01*
X0062974Y0097509D02*
X0056268Y0097509D01*
X0053800Y0105502D02*
X0026200Y0105502D01*
X0025000Y0105000D02*
X0035000Y0105000D01*
X0045000Y0105000D01*
X0031815Y0103903D02*
X0026200Y0103903D01*
X0021162Y0100706D02*
X0003200Y0100706D01*
X0003200Y0099108D02*
X0020976Y0099108D01*
X0019816Y0097509D02*
X0003200Y0097509D01*
X0003200Y0095911D02*
X0019250Y0095911D01*
X0019250Y0094312D02*
X0003200Y0094312D01*
X0003200Y0092714D02*
X0019723Y0092714D01*
X0020753Y0091115D02*
X0003200Y0091115D01*
X0003200Y0089517D02*
X0021385Y0089517D01*
X0019985Y0087918D02*
X0003200Y0087918D01*
X0003200Y0086320D02*
X0019323Y0086320D01*
X0019250Y0084721D02*
X0003200Y0084721D01*
X0003200Y0083123D02*
X0019554Y0083123D01*
X0020344Y0081524D02*
X0003200Y0081524D01*
X0003200Y0079926D02*
X0021866Y0079926D01*
X0020195Y0078327D02*
X0003200Y0078327D01*
X0003200Y0076729D02*
X0019492Y0076729D01*
X0019250Y0075130D02*
X0003200Y0075130D01*
X0003200Y0073532D02*
X0019384Y0073532D01*
X0020047Y0071933D02*
X0003200Y0071933D01*
X0003200Y0070334D02*
X0021534Y0070334D01*
X0020604Y0068736D02*
X0003200Y0068736D01*
X0003200Y0067137D02*
X0019662Y0067137D01*
X0019250Y0065539D02*
X0003200Y0065539D01*
X0003200Y0063940D02*
X0019250Y0063940D01*
X0019877Y0062342D02*
X0003200Y0062342D01*
X0003200Y0060743D02*
X0021125Y0060743D01*
X0021013Y0059145D02*
X0003200Y0059145D01*
X0003200Y0057546D02*
X0019831Y0057546D01*
X0019250Y0055948D02*
X0003200Y0055948D01*
X0003200Y0054349D02*
X0019250Y0054349D01*
X0019708Y0052751D02*
X0003200Y0052751D01*
X0003200Y0051152D02*
X0020716Y0051152D01*
X0021422Y0049554D02*
X0003200Y0049554D01*
X0003200Y0047955D02*
X0020000Y0047955D01*
X0019338Y0046357D02*
X0003200Y0046357D01*
X0003200Y0044758D02*
X0019250Y0044758D01*
X0019538Y0043160D02*
X0003200Y0043160D01*
X0003200Y0041561D02*
X0020307Y0041561D01*
X0021956Y0039963D02*
X0003200Y0039963D01*
X0003200Y0038364D02*
X0020233Y0038364D01*
X0019508Y0036766D02*
X0003200Y0036766D01*
X0003200Y0035167D02*
X0019250Y0035167D01*
X0019369Y0033569D02*
X0003200Y0033569D01*
X0003200Y0031970D02*
X0020031Y0031970D01*
X0021497Y0030372D02*
X0003200Y0030372D01*
X0003200Y0028773D02*
X0020641Y0028773D01*
X0019677Y0027175D02*
X0003200Y0027175D01*
X0003200Y0025576D02*
X0019250Y0025576D01*
X0019250Y0023978D02*
X0003200Y0023978D01*
X0003200Y0022379D02*
X0019862Y0022379D01*
X0021088Y0020781D02*
X0003200Y0020781D01*
X0003200Y0019182D02*
X0006867Y0019182D01*
X0005075Y0018530D02*
X0005075Y0018530D01*
X0003947Y0017584D02*
X0003200Y0017584D01*
X0013133Y0019182D02*
X0021050Y0019182D01*
X0019846Y0017584D02*
X0016053Y0017584D01*
X0017745Y0015985D02*
X0019250Y0015985D01*
X0019250Y0014387D02*
X0018668Y0014387D01*
X0019256Y0013369D02*
X0019256Y0013369D01*
X0019358Y0012788D02*
X0019692Y0012788D01*
X0019640Y0011190D02*
X0020679Y0011190D01*
X0019850Y0010000D02*
X0019850Y0010000D01*
X0019778Y0009591D02*
X0023033Y0009591D01*
X0026967Y0009591D02*
X0033817Y0009591D01*
X0036183Y0009591D02*
X0043541Y0009591D01*
X0046321Y0009648D02*
X0048087Y0010380D01*
X0048757Y0011050D01*
X0054357Y0011050D01*
X0055386Y0011476D01*
X0056174Y0012264D01*
X0056600Y0013293D01*
X0056600Y0016707D01*
X0056174Y0017736D01*
X0055386Y0018524D01*
X0054357Y0018950D01*
X0048757Y0018950D01*
X0048087Y0019620D01*
X0047170Y0020000D01*
X0048087Y0020380D01*
X0048757Y0021050D01*
X0054357Y0021050D01*
X0055386Y0021476D01*
X0056174Y0022264D01*
X0056600Y0023293D01*
X0056600Y0026707D01*
X0056174Y0027736D01*
X0055386Y0028524D01*
X0054357Y0028950D01*
X0048757Y0028950D01*
X0048087Y0029620D01*
X0047170Y0030000D01*
X0048087Y0030380D01*
X0048757Y0031050D01*
X0054357Y0031050D01*
X0055386Y0031476D01*
X0056174Y0032264D01*
X0056271Y0032500D01*
X0057497Y0032500D01*
X0058416Y0032881D01*
X0058866Y0033331D01*
X0058866Y0028646D01*
X0059800Y0026392D01*
X0061525Y0024666D01*
X0063780Y0023732D01*
X0066220Y0023732D01*
X0068475Y0024666D01*
X0070000Y0026192D01*
X0071525Y0024666D01*
X0073780Y0023732D01*
X0076220Y0023732D01*
X0078475Y0024666D01*
X0080000Y0026192D01*
X0081525Y0024666D01*
X0083780Y0023732D01*
X0086220Y0023732D01*
X0088475Y0024666D01*
X0090194Y0026386D01*
X0090474Y0026000D01*
X0091134Y0025340D01*
X0091890Y0024791D01*
X0092722Y0024367D01*
X0093610Y0024078D01*
X0094422Y0023950D01*
X0094422Y0033422D01*
X0095578Y0033422D01*
X0095578Y0034578D01*
X0100934Y0034578D01*
X0100934Y0038601D01*
X0100788Y0039523D01*
X0100714Y0039751D01*
X0103505Y0036960D01*
X0103400Y0036707D01*
X0103400Y0033293D01*
X0103826Y0032264D01*
X0104614Y0031476D01*
X0105643Y0031050D01*
X0111243Y0031050D01*
X0111913Y0030380D01*
X0112830Y0030000D01*
X0111913Y0029620D01*
X0111243Y0028950D01*
X0105643Y0028950D01*
X0104614Y0028524D01*
X0103826Y0027736D01*
X0103400Y0026707D01*
X0103400Y0023293D01*
X0103826Y0022264D01*
X0104614Y0021476D01*
X0105643Y0021050D01*
X0111243Y0021050D01*
X0111913Y0020380D01*
X0112830Y0020000D01*
X0111913Y0019620D01*
X0111843Y0019551D01*
X0111359Y0020035D01*
X0110477Y0020400D01*
X0071323Y0020400D01*
X0070441Y0020035D01*
X0069765Y0019359D01*
X0069400Y0018477D01*
X0069400Y0003200D01*
X0049450Y0003200D01*
X0049800Y0004045D01*
X0049800Y0005955D01*
X0049069Y0007719D01*
X0047719Y0009069D01*
X0046321Y0009648D01*
X0046459Y0009591D02*
X0069400Y0009591D01*
X0069400Y0007993D02*
X0048796Y0007993D01*
X0049618Y0006394D02*
X0069400Y0006394D01*
X0069400Y0004796D02*
X0049800Y0004796D01*
X0054694Y0011190D02*
X0069400Y0011190D01*
X0069400Y0012788D02*
X0056391Y0012788D01*
X0056600Y0014387D02*
X0069400Y0014387D01*
X0069400Y0015985D02*
X0056600Y0015985D01*
X0056237Y0017584D02*
X0069400Y0017584D01*
X0069692Y0019182D02*
X0048525Y0019182D01*
X0048488Y0020781D02*
X0111512Y0020781D01*
X0111800Y0023850D02*
X0106200Y0023850D01*
X0106200Y0026150D01*
X0111800Y0026150D01*
X0111800Y0025800D01*
X0128200Y0025800D01*
X0128200Y0026150D01*
X0133800Y0026150D01*
X0133800Y0023850D01*
X0128200Y0023850D01*
X0128200Y0024200D01*
X0111900Y0024200D01*
X0111800Y0023850D01*
X0111836Y0023978D02*
X0106200Y0023978D01*
X0106200Y0025576D02*
X0133800Y0025576D01*
X0135000Y0025000D02*
X0125000Y0025000D01*
X0115000Y0025000D01*
X0111932Y0030372D02*
X0100934Y0030372D01*
X0100934Y0029399D02*
X0100934Y0033422D01*
X0095578Y0033422D01*
X0095578Y0023950D01*
X0096390Y0024078D01*
X0097278Y0024367D01*
X0098110Y0024791D01*
X0098866Y0025340D01*
X0099526Y0026000D01*
X0100075Y0026756D01*
X0100499Y0027588D01*
X0100788Y0028477D01*
X0100934Y0029399D01*
X0100835Y0028773D02*
X0105216Y0028773D01*
X0103594Y0027175D02*
X0100288Y0027175D01*
X0099102Y0025576D02*
X0103400Y0025576D01*
X0103400Y0023978D02*
X0095754Y0023978D01*
X0095578Y0023978D02*
X0094422Y0023978D01*
X0094246Y0023978D02*
X0086813Y0023978D01*
X0089385Y0025576D02*
X0090898Y0025576D01*
X0094422Y0025576D02*
X0095578Y0025576D01*
X0095578Y0027175D02*
X0094422Y0027175D01*
X0094422Y0028773D02*
X0095578Y0028773D01*
X0095578Y0030372D02*
X0094422Y0030372D01*
X0094422Y0031970D02*
X0095578Y0031970D01*
X0095578Y0033569D02*
X0103400Y0033569D01*
X0103400Y0035167D02*
X0100934Y0035167D01*
X0100934Y0036766D02*
X0103424Y0036766D01*
X0102100Y0038364D02*
X0100934Y0038364D01*
X0095578Y0038364D02*
X0094422Y0038364D01*
X0094422Y0036766D02*
X0095578Y0036766D01*
X0095578Y0035167D02*
X0094422Y0035167D01*
X0094422Y0034578D02*
X0094422Y0044050D01*
X0093610Y0043922D01*
X0092722Y0043633D01*
X0091890Y0043209D01*
X0091134Y0042660D01*
X0090474Y0041999D01*
X0090194Y0041614D01*
X0088475Y0043334D01*
X0086220Y0044268D01*
X0084838Y0044268D01*
X0085660Y0045500D01*
X0087828Y0045500D01*
X0089000Y0046672D01*
X0089000Y0055328D01*
X0088600Y0055728D01*
X0088600Y0059448D01*
X0089500Y0060348D01*
X0089500Y0051503D01*
X0089881Y0050584D01*
X0096617Y0043848D01*
X0096390Y0043922D01*
X0095578Y0044050D01*
X0095578Y0034578D01*
X0094422Y0034578D01*
X0094422Y0039963D02*
X0095578Y0039963D01*
X0095578Y0041561D02*
X0094422Y0041561D01*
X0094422Y0043160D02*
X0095578Y0043160D01*
X0095706Y0044758D02*
X0085166Y0044758D01*
X0088649Y0043160D02*
X0091822Y0043160D01*
X0094108Y0046357D02*
X0088685Y0046357D01*
X0089000Y0047955D02*
X0092509Y0047955D01*
X0090911Y0049554D02*
X0089000Y0049554D01*
X0089000Y0051152D02*
X0089645Y0051152D01*
X0089500Y0052751D02*
X0089000Y0052751D01*
X0089000Y0054349D02*
X0089500Y0054349D01*
X0089500Y0055948D02*
X0088600Y0055948D01*
X0088600Y0057546D02*
X0089500Y0057546D01*
X0089500Y0059145D02*
X0088600Y0059145D01*
X0094500Y0059145D02*
X0111437Y0059145D01*
X0111243Y0058950D02*
X0105643Y0058950D01*
X0104614Y0058524D01*
X0103826Y0057736D01*
X0103728Y0057500D01*
X0103503Y0057500D01*
X0102584Y0057119D01*
X0101881Y0056416D01*
X0100464Y0055000D01*
X0099204Y0055000D01*
X0097734Y0054391D01*
X0096609Y0053266D01*
X0096000Y0051796D01*
X0096000Y0051536D01*
X0094500Y0053036D01*
X0094500Y0062926D01*
X0094525Y0063350D01*
X0094500Y0063421D01*
X0094500Y0063497D01*
X0094338Y0063889D01*
X0094199Y0064289D01*
X0094148Y0064346D01*
X0094119Y0064416D01*
X0093820Y0064716D01*
X0090148Y0068846D01*
X0090119Y0068916D01*
X0089820Y0069216D01*
X0089538Y0069533D01*
X0089470Y0069566D01*
X0089416Y0069619D01*
X0089025Y0069782D01*
X0088643Y0069966D01*
X0088567Y0069971D01*
X0088497Y0070000D01*
X0088073Y0070000D01*
X0087650Y0070025D01*
X0087579Y0070000D01*
X0083380Y0070000D01*
X0083269Y0070035D01*
X0082887Y0070000D01*
X0082503Y0070000D01*
X0082395Y0069955D01*
X0082278Y0069945D01*
X0081939Y0069766D01*
X0081584Y0069619D01*
X0081501Y0069537D01*
X0081398Y0069482D01*
X0081152Y0069188D01*
X0080881Y0068916D01*
X0080836Y0068808D01*
X0079131Y0066763D01*
X0078234Y0066391D01*
X0077109Y0065266D01*
X0076500Y0063796D01*
X0076500Y0062204D01*
X0077109Y0060734D01*
X0078234Y0059609D01*
X0079704Y0059000D01*
X0081296Y0059000D01*
X0081400Y0059043D01*
X0081400Y0055728D01*
X0081000Y0055328D01*
X0081000Y0051490D01*
X0079073Y0048600D01*
X0079000Y0048600D01*
X0079000Y0055328D01*
X0077828Y0056500D01*
X0072172Y0056500D01*
X0071000Y0055328D01*
X0071000Y0053871D01*
X0069842Y0053640D01*
X0069686Y0053657D01*
X0069144Y0053500D01*
X0069009Y0053473D01*
X0071119Y0055584D01*
X0071500Y0056503D01*
X0071500Y0089964D01*
X0073439Y0091904D01*
X0073734Y0091609D01*
X0075204Y0091000D01*
X0076796Y0091000D01*
X0078266Y0091609D01*
X0079391Y0092734D01*
X0080000Y0094204D01*
X0080000Y0095796D01*
X0079391Y0097266D01*
X0078266Y0098391D01*
X0077319Y0098783D01*
X0079036Y0100500D01*
X0085843Y0100500D01*
X0086734Y0099609D01*
X0088204Y0099000D01*
X0089796Y0099000D01*
X0091266Y0099609D01*
X0092391Y0100734D01*
X0093000Y0102204D01*
X0093000Y0103796D01*
X0092708Y0104500D01*
X0094497Y0104500D01*
X0095416Y0104881D01*
X0096119Y0105584D01*
X0097536Y0107000D01*
X0098796Y0107000D01*
X0100266Y0107609D01*
X0101391Y0108734D01*
X0102000Y0110204D01*
X0102000Y0111796D01*
X0101391Y0113266D01*
X0100266Y0114391D01*
X0098796Y0115000D01*
X0097204Y0115000D01*
X0095734Y0114391D01*
X0094609Y0113266D01*
X0094000Y0111796D01*
X0094000Y0110536D01*
X0092964Y0109500D01*
X0089708Y0109500D01*
X0090000Y0110204D01*
X0090000Y0111783D01*
X0097441Y0122200D01*
X0103890Y0122200D01*
X0104614Y0121476D01*
X0105643Y0121050D01*
X0111243Y0121050D01*
X0111913Y0120380D01*
X0112830Y0120000D01*
X0111913Y0119620D01*
X0111243Y0118950D01*
X0105643Y0118950D01*
X0104614Y0118524D01*
X0103826Y0117736D01*
X0103400Y0116707D01*
X0103400Y0113293D01*
X0103826Y0112264D01*
X0104614Y0111476D01*
X0105643Y0111050D01*
X0111243Y0111050D01*
X0111913Y0110380D01*
X0112830Y0110000D01*
X0111913Y0109620D01*
X0111243Y0108950D01*
X0105643Y0108950D01*
X0104614Y0108524D01*
X0103826Y0107736D01*
X0103400Y0106707D01*
X0103400Y0103293D01*
X0103826Y0102264D01*
X0104614Y0101476D01*
X0105643Y0101050D01*
X0111243Y0101050D01*
X0111913Y0100380D01*
X0113080Y0099896D01*
X0112985Y0099865D01*
X0112248Y0099490D01*
X0111580Y0099004D01*
X0111325Y0098750D01*
X0105944Y0098750D01*
X0105442Y0098650D01*
X0104968Y0098454D01*
X0104543Y0098170D01*
X0104180Y0097807D01*
X0103896Y0097382D01*
X0103700Y0096908D01*
X0103600Y0096406D01*
X0103600Y0095200D01*
X0114800Y0095200D01*
X0114800Y0094800D01*
X0103600Y0094800D01*
X0103600Y0093594D01*
X0103700Y0093092D01*
X0103896Y0092618D01*
X0104180Y0092193D01*
X0104543Y0091830D01*
X0104968Y0091546D01*
X0105442Y0091350D01*
X0105944Y0091250D01*
X0111325Y0091250D01*
X0111580Y0090996D01*
X0112248Y0090510D01*
X0112985Y0090135D01*
X0113080Y0090104D01*
X0111913Y0089620D01*
X0111243Y0088950D01*
X0105643Y0088950D01*
X0104614Y0088524D01*
X0103826Y0087736D01*
X0103400Y0086707D01*
X0103400Y0083293D01*
X0103826Y0082264D01*
X0104614Y0081476D01*
X0105643Y0081050D01*
X0111243Y0081050D01*
X0111913Y0080380D01*
X0112830Y0080000D01*
X0111913Y0079620D01*
X0111243Y0078950D01*
X0105643Y0078950D01*
X0104614Y0078524D01*
X0103826Y0077736D01*
X0103400Y0076707D01*
X0103400Y0073293D01*
X0103826Y0072264D01*
X0104614Y0071476D01*
X0105643Y0071050D01*
X0111243Y0071050D01*
X0111913Y0070380D01*
X0112830Y0070000D01*
X0111913Y0069620D01*
X0111243Y0068950D01*
X0105643Y0068950D01*
X0104614Y0068524D01*
X0103826Y0067736D01*
X0103400Y0066707D01*
X0103400Y0063293D01*
X0103826Y0062264D01*
X0104614Y0061476D01*
X0105643Y0061050D01*
X0111243Y0061050D01*
X0111913Y0060380D01*
X0112830Y0060000D01*
X0111913Y0059620D01*
X0111243Y0058950D01*
X0111549Y0060743D02*
X0094500Y0060743D01*
X0094500Y0062342D02*
X0103794Y0062342D01*
X0103400Y0063940D02*
X0094320Y0063940D01*
X0093088Y0065539D02*
X0103400Y0065539D01*
X0103578Y0067137D02*
X0091667Y0067137D01*
X0090246Y0068736D02*
X0105126Y0068736D01*
X0106200Y0066150D02*
X0111800Y0066150D01*
X0111800Y0065800D01*
X0128200Y0065800D01*
X0128200Y0066150D01*
X0133800Y0066150D01*
X0133800Y0063850D01*
X0128200Y0063850D01*
X0128200Y0064200D01*
X0111900Y0064200D01*
X0111800Y0063850D01*
X0106200Y0063850D01*
X0106200Y0066150D01*
X0106200Y0065539D02*
X0133800Y0065539D01*
X0135000Y0065000D02*
X0125000Y0065000D01*
X0115000Y0065000D01*
X0111826Y0063940D02*
X0106200Y0063940D01*
X0101000Y0064000D02*
X0101000Y0057000D01*
X0101412Y0055948D02*
X0094500Y0055948D01*
X0094500Y0057546D02*
X0103748Y0057546D01*
X0106200Y0056150D02*
X0111800Y0056150D01*
X0111800Y0055800D01*
X0128200Y0055800D01*
X0128200Y0056150D01*
X0133800Y0056150D01*
X0133800Y0053850D01*
X0128200Y0053850D01*
X0128200Y0054200D01*
X0111900Y0054200D01*
X0111800Y0053850D01*
X0106200Y0053850D01*
X0106200Y0056150D01*
X0106200Y0055948D02*
X0111800Y0055948D01*
X0113000Y0055000D02*
X0115000Y0055000D01*
X0125000Y0055000D01*
X0135000Y0055000D01*
X0133800Y0054349D02*
X0106200Y0054349D01*
X0106200Y0046150D02*
X0111800Y0046150D01*
X0111800Y0045800D01*
X0128200Y0045800D01*
X0128200Y0046150D01*
X0133800Y0046150D01*
X0133800Y0043850D01*
X0128200Y0043850D01*
X0128200Y0044200D01*
X0111900Y0044200D01*
X0111800Y0043850D01*
X0106200Y0043850D01*
X0106200Y0046150D01*
X0106200Y0044758D02*
X0133800Y0044758D01*
X0135000Y0045000D02*
X0125000Y0045000D01*
X0115000Y0045000D01*
X0111800Y0036150D02*
X0106200Y0036150D01*
X0106200Y0033850D01*
X0111800Y0033850D01*
X0111900Y0034200D01*
X0128200Y0034200D01*
X0128200Y0033850D01*
X0133800Y0033850D01*
X0133800Y0036150D01*
X0128200Y0036150D01*
X0128200Y0035800D01*
X0111800Y0035800D01*
X0111800Y0036150D01*
X0115000Y0035000D02*
X0125000Y0035000D01*
X0135000Y0035000D01*
X0133800Y0035167D02*
X0106200Y0035167D01*
X0104120Y0031970D02*
X0100934Y0031970D01*
X0103779Y0022379D02*
X0056221Y0022379D01*
X0056600Y0023978D02*
X0063187Y0023978D01*
X0060615Y0025576D02*
X0056600Y0025576D01*
X0056406Y0027175D02*
X0059476Y0027175D01*
X0058866Y0028773D02*
X0054784Y0028773D01*
X0053800Y0026150D02*
X0053800Y0023850D01*
X0048200Y0023850D01*
X0048200Y0024200D01*
X0031900Y0024200D01*
X0031800Y0023850D01*
X0026200Y0023850D01*
X0026200Y0026150D01*
X0031800Y0026150D01*
X0031800Y0025800D01*
X0048200Y0025800D01*
X0048200Y0026150D01*
X0053800Y0026150D01*
X0053800Y0025576D02*
X0026200Y0025576D01*
X0025000Y0025000D02*
X0035000Y0025000D01*
X0045000Y0025000D01*
X0048200Y0023978D02*
X0053800Y0023978D01*
X0058866Y0030372D02*
X0048068Y0030372D01*
X0048200Y0033850D02*
X0048200Y0034200D01*
X0031900Y0034200D01*
X0031800Y0033850D01*
X0026200Y0033850D01*
X0026200Y0036150D01*
X0031800Y0036150D01*
X0031800Y0035800D01*
X0048200Y0035800D01*
X0048200Y0036150D01*
X0053800Y0036150D01*
X0053800Y0033850D01*
X0048200Y0033850D01*
X0045000Y0035000D02*
X0035000Y0035000D01*
X0025000Y0035000D01*
X0026200Y0035167D02*
X0053800Y0035167D01*
X0055880Y0031970D02*
X0058866Y0031970D01*
X0066813Y0023978D02*
X0073187Y0023978D01*
X0070615Y0025576D02*
X0069385Y0025576D01*
X0076813Y0023978D02*
X0083187Y0023978D01*
X0080615Y0025576D02*
X0079385Y0025576D01*
X0053800Y0016150D02*
X0053800Y0013850D01*
X0048200Y0013850D01*
X0048200Y0014200D01*
X0031900Y0014200D01*
X0031800Y0013850D01*
X0026200Y0013850D01*
X0026200Y0016150D01*
X0031800Y0016150D01*
X0031800Y0015800D01*
X0048200Y0015800D01*
X0048200Y0016150D01*
X0053800Y0016150D01*
X0053800Y0015985D02*
X0048200Y0015985D01*
X0045000Y0015000D02*
X0035000Y0015000D01*
X0025000Y0015000D01*
X0026200Y0014387D02*
X0053800Y0014387D01*
X0041103Y0011190D02*
X0038897Y0011190D01*
X0041204Y0007993D02*
X0019496Y0007993D01*
X0019256Y0006631D02*
X0019256Y0006631D01*
X0019119Y0006394D02*
X0040382Y0006394D01*
X0040200Y0004796D02*
X0018196Y0004796D01*
X0017545Y0003669D02*
X0017545Y0003669D01*
X0017545Y0003669D01*
X0026200Y0015985D02*
X0031800Y0015985D01*
X0031836Y0023978D02*
X0026200Y0023978D01*
X0026200Y0043850D02*
X0026200Y0046150D01*
X0031800Y0046150D01*
X0031800Y0045800D01*
X0048200Y0045800D01*
X0048200Y0046150D01*
X0053800Y0046150D01*
X0053800Y0043850D01*
X0048200Y0043850D01*
X0048200Y0044200D01*
X0031900Y0044200D01*
X0031800Y0043850D01*
X0026200Y0043850D01*
X0026200Y0044758D02*
X0053800Y0044758D01*
X0045000Y0045000D02*
X0035000Y0045000D01*
X0025000Y0045000D01*
X0026200Y0053850D02*
X0026200Y0056150D01*
X0031800Y0056150D01*
X0031800Y0055800D01*
X0048200Y0055800D01*
X0048200Y0056150D01*
X0053800Y0056150D01*
X0053800Y0053850D01*
X0048200Y0053850D01*
X0048200Y0054200D01*
X0031900Y0054200D01*
X0031800Y0053850D01*
X0026200Y0053850D01*
X0026200Y0054349D02*
X0053800Y0054349D01*
X0053800Y0055948D02*
X0048200Y0055948D01*
X0045000Y0055000D02*
X0035000Y0055000D01*
X0025000Y0055000D01*
X0026200Y0055948D02*
X0031800Y0055948D01*
X0031800Y0063850D02*
X0026200Y0063850D01*
X0026200Y0066150D01*
X0031800Y0066150D01*
X0031800Y0065800D01*
X0048200Y0065800D01*
X0048200Y0066150D01*
X0053800Y0066150D01*
X0053800Y0063850D01*
X0048200Y0063850D01*
X0048200Y0064200D01*
X0031900Y0064200D01*
X0031800Y0063850D01*
X0031826Y0063940D02*
X0026200Y0063940D01*
X0026200Y0065539D02*
X0053800Y0065539D01*
X0053800Y0063940D02*
X0048200Y0063940D01*
X0045000Y0065000D02*
X0035000Y0065000D01*
X0025000Y0065000D01*
X0026200Y0073850D02*
X0026200Y0076150D01*
X0031800Y0076150D01*
X0031800Y0075800D01*
X0048200Y0075800D01*
X0048200Y0076150D01*
X0053800Y0076150D01*
X0053800Y0073850D01*
X0048200Y0073850D01*
X0048200Y0074200D01*
X0031900Y0074200D01*
X0031800Y0073850D01*
X0026200Y0073850D01*
X0026200Y0075130D02*
X0053800Y0075130D01*
X0055583Y0078327D02*
X0060500Y0078327D01*
X0060500Y0076729D02*
X0056591Y0076729D01*
X0056600Y0075130D02*
X0060500Y0075130D01*
X0060500Y0073532D02*
X0056600Y0073532D01*
X0055843Y0071933D02*
X0060500Y0071933D01*
X0060500Y0070334D02*
X0047978Y0070334D01*
X0045000Y0075000D02*
X0035000Y0075000D01*
X0025000Y0075000D01*
X0026200Y0083850D02*
X0026200Y0086150D01*
X0031800Y0086150D01*
X0031800Y0085800D01*
X0048200Y0085800D01*
X0048200Y0086150D01*
X0053800Y0086150D01*
X0053800Y0083850D01*
X0048200Y0083850D01*
X0048200Y0084200D01*
X0031900Y0084200D01*
X0031800Y0083850D01*
X0026200Y0083850D01*
X0026200Y0084721D02*
X0053800Y0084721D01*
X0055434Y0081524D02*
X0060500Y0081524D01*
X0060500Y0079926D02*
X0047350Y0079926D01*
X0045000Y0085000D02*
X0035000Y0085000D01*
X0025000Y0085000D01*
X0026200Y0095911D02*
X0031800Y0095911D01*
X0019893Y0102305D02*
X0003200Y0102305D01*
X0003200Y0103903D02*
X0019250Y0103903D01*
X0019250Y0105502D02*
X0003200Y0105502D01*
X0003200Y0107100D02*
X0019646Y0107100D01*
X0020567Y0108699D02*
X0003200Y0108699D01*
X0003200Y0110297D02*
X0021571Y0110297D01*
X0020062Y0111896D02*
X0003200Y0111896D01*
X0003200Y0113494D02*
X0019400Y0113494D01*
X0019250Y0115093D02*
X0003200Y0115093D01*
X0003200Y0116691D02*
X0019477Y0116691D01*
X0020158Y0118290D02*
X0003200Y0118290D01*
X0003200Y0119888D02*
X0021776Y0119888D01*
X0020381Y0121487D02*
X0014945Y0121487D01*
X0014925Y0121470D02*
X0014925Y0121470D01*
X0016850Y0123085D02*
X0019569Y0123085D01*
X0019250Y0124684D02*
X0018131Y0124684D01*
X0017545Y0123669D02*
X0017545Y0123669D01*
X0017545Y0123669D01*
X0019054Y0126282D02*
X0019307Y0126282D01*
X0019256Y0126631D02*
X0019256Y0126631D01*
X0019476Y0127881D02*
X0019970Y0127881D01*
X0019758Y0129479D02*
X0021348Y0129479D01*
X0019850Y0130000D02*
X0019850Y0130000D01*
X0019660Y0131078D02*
X0140340Y0131078D01*
X0140150Y0130000D02*
X0140150Y0130000D01*
X0140242Y0129479D02*
X0138652Y0129479D01*
X0140030Y0127881D02*
X0140524Y0127881D01*
X0140744Y0126631D02*
X0140744Y0126631D01*
X0140693Y0126282D02*
X0140946Y0126282D01*
X0140750Y0124684D02*
X0141869Y0124684D01*
X0142455Y0123669D02*
X0142455Y0123669D01*
X0143150Y0123085D02*
X0140431Y0123085D01*
X0139619Y0121487D02*
X0145055Y0121487D01*
X0139842Y0118290D02*
X0156800Y0118290D01*
X0156800Y0119888D02*
X0138224Y0119888D01*
X0140523Y0116691D02*
X0156800Y0116691D01*
X0156800Y0115093D02*
X0140750Y0115093D01*
X0140600Y0113494D02*
X0156800Y0113494D01*
X0156800Y0111896D02*
X0139938Y0111896D01*
X0138429Y0110297D02*
X0156800Y0110297D01*
X0156800Y0108699D02*
X0139433Y0108699D01*
X0140354Y0107100D02*
X0156800Y0107100D01*
X0156800Y0105502D02*
X0140750Y0105502D01*
X0140750Y0103903D02*
X0153750Y0103903D01*
X0152128Y0102305D02*
X0140107Y0102305D01*
X0138838Y0100706D02*
X0150212Y0100706D01*
X0150055Y0099108D02*
X0138741Y0099108D01*
X0139950Y0097509D02*
X0150000Y0097509D01*
X0150074Y0095911D02*
X0140475Y0095911D01*
X0140510Y0094312D02*
X0151261Y0094312D01*
X0151601Y0092714D02*
X0140064Y0092714D01*
X0138964Y0091115D02*
X0151915Y0091115D01*
X0150154Y0089517D02*
X0138615Y0089517D01*
X0140015Y0087918D02*
X0150113Y0087918D01*
X0150000Y0086320D02*
X0140677Y0086320D01*
X0140750Y0084721D02*
X0150132Y0084721D01*
X0151401Y0083123D02*
X0140446Y0083123D01*
X0139656Y0081524D02*
X0151311Y0081524D01*
X0150095Y0079926D02*
X0138134Y0079926D01*
X0139805Y0078327D02*
X0150000Y0078327D01*
X0150075Y0076729D02*
X0140508Y0076729D01*
X0140750Y0075130D02*
X0150000Y0075130D01*
X0150000Y0073532D02*
X0140615Y0073532D01*
X0139953Y0071933D02*
X0150000Y0071933D01*
X0150000Y0070334D02*
X0138466Y0070334D01*
X0139396Y0068736D02*
X0150000Y0068736D01*
X0150000Y0067137D02*
X0140338Y0067137D01*
X0140750Y0065539D02*
X0150229Y0065539D01*
X0156800Y0063940D02*
X0140750Y0063940D01*
X0140123Y0062342D02*
X0156800Y0062342D01*
X0156800Y0060743D02*
X0138875Y0060743D01*
X0138987Y0059145D02*
X0156800Y0059145D01*
X0156800Y0057546D02*
X0140169Y0057546D01*
X0140750Y0055948D02*
X0156800Y0055948D01*
X0156800Y0054349D02*
X0140750Y0054349D01*
X0140292Y0052751D02*
X0156800Y0052751D01*
X0156800Y0051152D02*
X0139284Y0051152D01*
X0138578Y0049554D02*
X0156800Y0049554D01*
X0156800Y0047955D02*
X0140000Y0047955D01*
X0140662Y0046357D02*
X0156800Y0046357D01*
X0156800Y0044758D02*
X0140750Y0044758D01*
X0140462Y0043160D02*
X0156800Y0043160D01*
X0156800Y0041561D02*
X0139693Y0041561D01*
X0138044Y0039963D02*
X0156800Y0039963D01*
X0156800Y0038364D02*
X0139767Y0038364D01*
X0140492Y0036766D02*
X0156800Y0036766D01*
X0156800Y0035167D02*
X0140750Y0035167D01*
X0140631Y0033569D02*
X0156800Y0033569D01*
X0156800Y0031970D02*
X0139969Y0031970D01*
X0138503Y0030372D02*
X0156800Y0030372D01*
X0156800Y0028773D02*
X0139359Y0028773D01*
X0140323Y0027175D02*
X0156800Y0027175D01*
X0156800Y0025576D02*
X0140750Y0025576D01*
X0140750Y0023978D02*
X0156800Y0023978D01*
X0156800Y0022379D02*
X0140138Y0022379D01*
X0138912Y0020781D02*
X0156800Y0020781D01*
X0156800Y0019182D02*
X0153133Y0019182D01*
X0156053Y0017584D02*
X0156800Y0017584D01*
X0146867Y0019182D02*
X0138950Y0019182D01*
X0140154Y0017584D02*
X0143947Y0017584D01*
X0145075Y0018530D02*
X0145075Y0018530D01*
X0142455Y0016331D02*
X0142455Y0016331D01*
X0142455Y0016331D01*
X0142255Y0015985D02*
X0140750Y0015985D01*
X0140750Y0014387D02*
X0141332Y0014387D01*
X0140642Y0012788D02*
X0140308Y0012788D01*
X0140360Y0011190D02*
X0139321Y0011190D01*
X0140150Y0010000D02*
X0140150Y0010000D01*
X0140222Y0009591D02*
X0136967Y0009591D01*
X0133033Y0009591D02*
X0126183Y0009591D01*
X0123817Y0009591D02*
X0122400Y0009591D01*
X0121680Y0007993D02*
X0140504Y0007993D01*
X0140744Y0006631D02*
X0140744Y0006631D01*
X0140881Y0006394D02*
X0120880Y0006394D01*
X0120081Y0004796D02*
X0141804Y0004796D01*
X0142455Y0003669D02*
X0142455Y0003669D01*
X0133800Y0013850D02*
X0128200Y0013850D01*
X0128200Y0014200D01*
X0111900Y0014200D01*
X0111800Y0013850D01*
X0106200Y0013850D01*
X0106200Y0016150D01*
X0111800Y0016150D01*
X0111800Y0015800D01*
X0128200Y0015800D01*
X0128200Y0016150D01*
X0133800Y0016150D01*
X0133800Y0013850D01*
X0133800Y0014387D02*
X0106200Y0014387D01*
X0106200Y0015985D02*
X0111800Y0015985D01*
X0115000Y0015000D02*
X0125000Y0015000D01*
X0135000Y0015000D01*
X0133800Y0015985D02*
X0128200Y0015985D01*
X0128200Y0023978D02*
X0133800Y0023978D01*
X0097693Y0054349D02*
X0094500Y0054349D01*
X0094785Y0052751D02*
X0096396Y0052751D01*
X0101000Y0064000D02*
X0094000Y0067000D01*
X0094000Y0086000D01*
X0088500Y0091000D01*
X0081500Y0091000D01*
X0079371Y0092714D02*
X0103856Y0092714D01*
X0103600Y0094312D02*
X0080000Y0094312D01*
X0079952Y0095911D02*
X0103600Y0095911D01*
X0103981Y0097509D02*
X0079148Y0097509D01*
X0077643Y0099108D02*
X0087944Y0099108D01*
X0090056Y0099108D02*
X0111722Y0099108D01*
X0111586Y0100706D02*
X0092363Y0100706D01*
X0093000Y0102305D02*
X0103809Y0102305D01*
X0103400Y0103903D02*
X0092955Y0103903D01*
X0096037Y0105502D02*
X0103400Y0105502D01*
X0103563Y0107100D02*
X0099038Y0107100D01*
X0101356Y0108699D02*
X0105037Y0108699D01*
X0106200Y0106150D02*
X0111800Y0106150D01*
X0111800Y0105800D01*
X0128200Y0105800D01*
X0128200Y0106150D01*
X0133800Y0106150D01*
X0133800Y0103850D01*
X0128200Y0103850D01*
X0128200Y0104200D01*
X0111900Y0104200D01*
X0111800Y0103850D01*
X0106200Y0103850D01*
X0106200Y0106150D01*
X0106200Y0105502D02*
X0133800Y0105502D01*
X0135000Y0105000D02*
X0125000Y0105000D01*
X0115000Y0105000D01*
X0111815Y0103903D02*
X0106200Y0103903D01*
X0106200Y0096150D02*
X0111800Y0096150D01*
X0111800Y0095800D01*
X0128200Y0095800D01*
X0128200Y0096150D01*
X0133800Y0096150D01*
X0133800Y0093850D01*
X0128200Y0093850D01*
X0128200Y0094200D01*
X0111900Y0094200D01*
X0111800Y0093850D01*
X0106200Y0093850D01*
X0106200Y0096150D01*
X0106200Y0095911D02*
X0111800Y0095911D01*
X0115200Y0095200D02*
X0120250Y0095200D01*
X0124800Y0095200D01*
X0124800Y0094800D01*
X0115200Y0094800D01*
X0115200Y0095200D01*
X0111460Y0091115D02*
X0077074Y0091115D01*
X0074926Y0091115D02*
X0072651Y0091115D01*
X0071500Y0089517D02*
X0111809Y0089517D01*
X0111800Y0086150D02*
X0111800Y0085800D01*
X0128200Y0085800D01*
X0128200Y0086150D01*
X0133800Y0086150D01*
X0133800Y0083850D01*
X0128200Y0083850D01*
X0128200Y0084200D01*
X0111900Y0084200D01*
X0111800Y0083850D01*
X0106200Y0083850D01*
X0106200Y0086150D01*
X0111800Y0086150D01*
X0115000Y0085000D02*
X0125000Y0085000D01*
X0135000Y0085000D01*
X0133800Y0084721D02*
X0106200Y0084721D01*
X0103400Y0084721D02*
X0071500Y0084721D01*
X0071500Y0083123D02*
X0103471Y0083123D01*
X0104566Y0081524D02*
X0071500Y0081524D01*
X0071500Y0079926D02*
X0112650Y0079926D01*
X0111800Y0076150D02*
X0106200Y0076150D01*
X0106200Y0073850D01*
X0111800Y0073850D01*
X0111900Y0074200D01*
X0128200Y0074200D01*
X0128200Y0073850D01*
X0133800Y0073850D01*
X0133800Y0076150D01*
X0128200Y0076150D01*
X0128200Y0075800D01*
X0111800Y0075800D01*
X0111800Y0076150D01*
X0115000Y0075000D02*
X0125000Y0075000D01*
X0135000Y0075000D01*
X0133800Y0075130D02*
X0106200Y0075130D01*
X0103400Y0075130D02*
X0071500Y0075130D01*
X0071500Y0073532D02*
X0103400Y0073532D01*
X0104157Y0071933D02*
X0071500Y0071933D01*
X0071500Y0070334D02*
X0112022Y0070334D01*
X0103409Y0076729D02*
X0071500Y0076729D01*
X0071500Y0078327D02*
X0104417Y0078327D01*
X0103400Y0086320D02*
X0071500Y0086320D01*
X0071500Y0087918D02*
X0104008Y0087918D01*
X0106200Y0094312D02*
X0133800Y0094312D01*
X0134800Y0094800D02*
X0125200Y0094800D01*
X0125200Y0095200D01*
X0129450Y0095200D01*
X0129450Y0095190D01*
X0134800Y0095200D01*
X0134800Y0094800D01*
X0133800Y0095911D02*
X0128200Y0095911D01*
X0128200Y0103903D02*
X0133800Y0103903D01*
X0133800Y0113850D02*
X0128200Y0113850D01*
X0128200Y0114200D01*
X0111900Y0114200D01*
X0111800Y0113850D01*
X0106200Y0113850D01*
X0106200Y0116150D01*
X0111800Y0116150D01*
X0111800Y0115800D01*
X0128200Y0115800D01*
X0128200Y0116150D01*
X0133800Y0116150D01*
X0133800Y0113850D01*
X0133800Y0115093D02*
X0106200Y0115093D01*
X0103400Y0115093D02*
X0092364Y0115093D01*
X0091223Y0113494D02*
X0094837Y0113494D01*
X0094041Y0111896D02*
X0090081Y0111896D01*
X0090000Y0110297D02*
X0093762Y0110297D01*
X0093506Y0116691D02*
X0103400Y0116691D01*
X0104380Y0118290D02*
X0094648Y0118290D01*
X0095790Y0119888D02*
X0112560Y0119888D01*
X0111800Y0123850D02*
X0106200Y0123850D01*
X0106200Y0126150D01*
X0111800Y0126150D01*
X0111800Y0125800D01*
X0128200Y0125800D01*
X0128200Y0126150D01*
X0133800Y0126150D01*
X0133800Y0123850D01*
X0128200Y0123850D01*
X0128200Y0124200D01*
X0111900Y0124200D01*
X0111800Y0123850D01*
X0115000Y0125000D02*
X0125000Y0125000D01*
X0135000Y0125000D01*
X0133800Y0124684D02*
X0106200Y0124684D01*
X0104603Y0121487D02*
X0096932Y0121487D01*
X0096000Y0125000D02*
X0115000Y0125000D01*
X0118228Y0129479D02*
X0121772Y0129479D01*
X0128228Y0129479D02*
X0131348Y0129479D01*
X0140622Y0132676D02*
X0019378Y0132676D01*
X0019256Y0133369D02*
X0019256Y0133369D01*
X0018732Y0134275D02*
X0141268Y0134275D01*
X0142190Y0135873D02*
X0017810Y0135873D01*
X0028652Y0129479D02*
X0031772Y0129479D01*
X0035000Y0125000D02*
X0025000Y0125000D01*
X0026200Y0124684D02*
X0053800Y0124684D01*
X0055397Y0121487D02*
X0090050Y0121487D01*
X0091191Y0123085D02*
X0056514Y0123085D01*
X0056600Y0124684D02*
X0092333Y0124684D01*
X0093475Y0126282D02*
X0056600Y0126282D01*
X0056029Y0127881D02*
X0103971Y0127881D01*
X0111772Y0129479D02*
X0048228Y0129479D01*
X0041772Y0129479D02*
X0038228Y0129479D01*
X0005055Y0121487D02*
X0003200Y0121487D01*
X0055992Y0087918D02*
X0060500Y0087918D01*
X0060500Y0086320D02*
X0056600Y0086320D01*
X0056600Y0084721D02*
X0060500Y0084721D01*
X0060500Y0083123D02*
X0056529Y0083123D01*
X0054874Y0068736D02*
X0060200Y0068736D01*
X0071500Y0068736D02*
X0080776Y0068736D01*
X0079444Y0067137D02*
X0071500Y0067137D01*
X0071500Y0065539D02*
X0077382Y0065539D01*
X0076560Y0063940D02*
X0071500Y0063940D01*
X0071500Y0062342D02*
X0076500Y0062342D01*
X0077105Y0060743D02*
X0071500Y0060743D01*
X0071500Y0059145D02*
X0079354Y0059145D01*
X0081400Y0057546D02*
X0071500Y0057546D01*
X0071619Y0055948D02*
X0071270Y0055948D01*
X0071000Y0054349D02*
X0069885Y0054349D01*
X0078381Y0055948D02*
X0081400Y0055948D01*
X0081000Y0054349D02*
X0079000Y0054349D01*
X0079000Y0052751D02*
X0081000Y0052751D01*
X0080775Y0051152D02*
X0079000Y0051152D01*
X0079000Y0049554D02*
X0079709Y0049554D01*
X0124000Y0065000D02*
X0125000Y0065000D01*
X0128200Y0063940D02*
X0133800Y0063940D01*
X0133800Y0055948D02*
X0128200Y0055948D01*
X0112112Y0110297D02*
X0102000Y0110297D01*
X0101959Y0111896D02*
X0104194Y0111896D01*
X0103400Y0113494D02*
X0101163Y0113494D01*
X0115000Y0115000D02*
X0125000Y0115000D01*
X0135000Y0115000D01*
X0154925Y0121470D02*
X0154925Y0121470D01*
X0154945Y0121487D02*
X0156800Y0121487D01*
X0142455Y0136331D02*
X0142455Y0136331D01*
X0142455Y0136331D01*
X0096000Y0125000D02*
X0086000Y0111000D01*
X0085483Y0115093D02*
X0084463Y0115093D01*
X0082541Y0116691D02*
X0086624Y0116691D01*
D17*
X0081000Y0113000D03*
X0086000Y0111000D03*
X0089000Y0103000D03*
X0098000Y0111000D03*
X0076000Y0095000D03*
X0081500Y0091000D03*
X0088500Y0091000D03*
X0080500Y0063000D03*
X0100000Y0051000D03*
D18*
X0101000Y0057000D03*
X0094000Y0067000D03*
X0086000Y0063000D03*
X0065000Y0046000D03*
D19*
X0070000Y0050000D01*
X0075000Y0051000D01*
X0072000Y0045000D02*
X0081000Y0045000D01*
X0085000Y0051000D01*
X0085000Y0060500D01*
X0086000Y0063000D01*
X0072000Y0045000D02*
X0065000Y0037000D01*
X0065000Y0034000D01*
D20*
X0059000Y0037000D02*
X0057000Y0035000D01*
X0045000Y0035000D01*
X0045000Y0045000D02*
X0054000Y0045000D01*
X0067000Y0058000D01*
X0067000Y0092000D01*
X0078000Y0103000D01*
X0089000Y0103000D01*
X0094000Y0107000D02*
X0079000Y0107000D01*
X0065000Y0093000D01*
X0065000Y0059000D01*
X0061000Y0055000D01*
X0045000Y0055000D01*
X0045000Y0065000D02*
X0060000Y0065000D01*
X0063000Y0068000D01*
X0063000Y0094000D01*
X0080000Y0111000D01*
X0081000Y0113000D01*
X0094000Y0107000D02*
X0098000Y0111000D01*
X0076000Y0095000D02*
X0073000Y0095000D01*
X0069000Y0091000D01*
X0069000Y0057000D01*
X0059000Y0047000D01*
X0059000Y0037000D01*
X0080500Y0063000D02*
X0080500Y0064500D01*
X0083000Y0067500D01*
X0088000Y0067500D01*
X0092000Y0063000D01*
X0092000Y0052000D01*
X0109000Y0035000D01*
X0115000Y0035000D01*
X0100000Y0051000D02*
X0104000Y0055000D01*
X0113000Y0055000D01*
M02*
