G75*
%MOIN*%
%OFA0B0*%
%FSLAX25Y25*%
%IPPOS*%
%LPD*%
%AMOC8*
5,1,8,0,0,1.08239X$1,22.5*
%
%ADD10C,0.00800*%
%ADD11R,0.04331X0.03937*%
%ADD12R,0.05512X0.05512*%
%ADD13R,0.03150X0.05906*%
%ADD14R,0.05512X0.07480*%
%ADD15R,0.07087X0.05512*%
%ADD16R,0.05118X0.05906*%
%ADD17R,0.02717X0.03898*%
%ADD18R,0.03937X0.04331*%
%ADD19R,0.06299X0.07087*%
%ADD20C,0.08268*%
%ADD21C,0.07500*%
%ADD22C,0.00000*%
%ADD23C,0.06900*%
%ADD24C,0.01600*%
%ADD25C,0.04000*%
%ADD26C,0.01000*%
%ADD27C,0.04700*%
%ADD28C,0.03200*%
D10*
X0010000Y0000000D02*
X0150000Y0000000D01*
X0150242Y0000003D01*
X0150483Y0000012D01*
X0150724Y0000026D01*
X0150965Y0000047D01*
X0151205Y0000073D01*
X0151445Y0000105D01*
X0151684Y0000143D01*
X0151921Y0000186D01*
X0152158Y0000236D01*
X0152393Y0000291D01*
X0152627Y0000351D01*
X0152859Y0000418D01*
X0153090Y0000489D01*
X0153319Y0000567D01*
X0153546Y0000650D01*
X0153771Y0000738D01*
X0153994Y0000832D01*
X0154214Y0000931D01*
X0154432Y0001036D01*
X0154647Y0001145D01*
X0154860Y0001260D01*
X0155070Y0001380D01*
X0155276Y0001505D01*
X0155480Y0001635D01*
X0155681Y0001770D01*
X0155878Y0001910D01*
X0156072Y0002054D01*
X0156262Y0002203D01*
X0156448Y0002357D01*
X0156631Y0002515D01*
X0156810Y0002677D01*
X0156985Y0002844D01*
X0157156Y0003015D01*
X0157323Y0003190D01*
X0157485Y0003369D01*
X0157643Y0003552D01*
X0157797Y0003738D01*
X0157946Y0003928D01*
X0158090Y0004122D01*
X0158230Y0004319D01*
X0158365Y0004520D01*
X0158495Y0004724D01*
X0158620Y0004930D01*
X0158740Y0005140D01*
X0158855Y0005353D01*
X0158964Y0005568D01*
X0159069Y0005786D01*
X0159168Y0006006D01*
X0159262Y0006229D01*
X0159350Y0006454D01*
X0159433Y0006681D01*
X0159511Y0006910D01*
X0159582Y0007141D01*
X0159649Y0007373D01*
X0159709Y0007607D01*
X0159764Y0007842D01*
X0159814Y0008079D01*
X0159857Y0008316D01*
X0159895Y0008555D01*
X0159927Y0008795D01*
X0159953Y0009035D01*
X0159974Y0009276D01*
X0159988Y0009517D01*
X0159997Y0009758D01*
X0160000Y0010000D01*
X0160000Y0130000D01*
X0159997Y0130242D01*
X0159988Y0130483D01*
X0159974Y0130724D01*
X0159953Y0130965D01*
X0159927Y0131205D01*
X0159895Y0131445D01*
X0159857Y0131684D01*
X0159814Y0131921D01*
X0159764Y0132158D01*
X0159709Y0132393D01*
X0159649Y0132627D01*
X0159582Y0132859D01*
X0159511Y0133090D01*
X0159433Y0133319D01*
X0159350Y0133546D01*
X0159262Y0133771D01*
X0159168Y0133994D01*
X0159069Y0134214D01*
X0158964Y0134432D01*
X0158855Y0134647D01*
X0158740Y0134860D01*
X0158620Y0135070D01*
X0158495Y0135276D01*
X0158365Y0135480D01*
X0158230Y0135681D01*
X0158090Y0135878D01*
X0157946Y0136072D01*
X0157797Y0136262D01*
X0157643Y0136448D01*
X0157485Y0136631D01*
X0157323Y0136810D01*
X0157156Y0136985D01*
X0156985Y0137156D01*
X0156810Y0137323D01*
X0156631Y0137485D01*
X0156448Y0137643D01*
X0156262Y0137797D01*
X0156072Y0137946D01*
X0155878Y0138090D01*
X0155681Y0138230D01*
X0155480Y0138365D01*
X0155276Y0138495D01*
X0155070Y0138620D01*
X0154860Y0138740D01*
X0154647Y0138855D01*
X0154432Y0138964D01*
X0154214Y0139069D01*
X0153994Y0139168D01*
X0153771Y0139262D01*
X0153546Y0139350D01*
X0153319Y0139433D01*
X0153090Y0139511D01*
X0152859Y0139582D01*
X0152627Y0139649D01*
X0152393Y0139709D01*
X0152158Y0139764D01*
X0151921Y0139814D01*
X0151684Y0139857D01*
X0151445Y0139895D01*
X0151205Y0139927D01*
X0150965Y0139953D01*
X0150724Y0139974D01*
X0150483Y0139988D01*
X0150242Y0139997D01*
X0150000Y0140000D01*
X0010000Y0140000D01*
X0009758Y0139997D01*
X0009517Y0139988D01*
X0009276Y0139974D01*
X0009035Y0139953D01*
X0008795Y0139927D01*
X0008555Y0139895D01*
X0008316Y0139857D01*
X0008079Y0139814D01*
X0007842Y0139764D01*
X0007607Y0139709D01*
X0007373Y0139649D01*
X0007141Y0139582D01*
X0006910Y0139511D01*
X0006681Y0139433D01*
X0006454Y0139350D01*
X0006229Y0139262D01*
X0006006Y0139168D01*
X0005786Y0139069D01*
X0005568Y0138964D01*
X0005353Y0138855D01*
X0005140Y0138740D01*
X0004930Y0138620D01*
X0004724Y0138495D01*
X0004520Y0138365D01*
X0004319Y0138230D01*
X0004122Y0138090D01*
X0003928Y0137946D01*
X0003738Y0137797D01*
X0003552Y0137643D01*
X0003369Y0137485D01*
X0003190Y0137323D01*
X0003015Y0137156D01*
X0002844Y0136985D01*
X0002677Y0136810D01*
X0002515Y0136631D01*
X0002357Y0136448D01*
X0002203Y0136262D01*
X0002054Y0136072D01*
X0001910Y0135878D01*
X0001770Y0135681D01*
X0001635Y0135480D01*
X0001505Y0135276D01*
X0001380Y0135070D01*
X0001260Y0134860D01*
X0001145Y0134647D01*
X0001036Y0134432D01*
X0000931Y0134214D01*
X0000832Y0133994D01*
X0000738Y0133771D01*
X0000650Y0133546D01*
X0000567Y0133319D01*
X0000489Y0133090D01*
X0000418Y0132859D01*
X0000351Y0132627D01*
X0000291Y0132393D01*
X0000236Y0132158D01*
X0000186Y0131921D01*
X0000143Y0131684D01*
X0000105Y0131445D01*
X0000073Y0131205D01*
X0000047Y0130965D01*
X0000026Y0130724D01*
X0000012Y0130483D01*
X0000003Y0130242D01*
X0000000Y0130000D01*
X0000000Y0010000D01*
X0000003Y0009758D01*
X0000012Y0009517D01*
X0000026Y0009276D01*
X0000047Y0009035D01*
X0000073Y0008795D01*
X0000105Y0008555D01*
X0000143Y0008316D01*
X0000186Y0008079D01*
X0000236Y0007842D01*
X0000291Y0007607D01*
X0000351Y0007373D01*
X0000418Y0007141D01*
X0000489Y0006910D01*
X0000567Y0006681D01*
X0000650Y0006454D01*
X0000738Y0006229D01*
X0000832Y0006006D01*
X0000931Y0005786D01*
X0001036Y0005568D01*
X0001145Y0005353D01*
X0001260Y0005140D01*
X0001380Y0004930D01*
X0001505Y0004724D01*
X0001635Y0004520D01*
X0001770Y0004319D01*
X0001910Y0004122D01*
X0002054Y0003928D01*
X0002203Y0003738D01*
X0002357Y0003552D01*
X0002515Y0003369D01*
X0002677Y0003190D01*
X0002844Y0003015D01*
X0003015Y0002844D01*
X0003190Y0002677D01*
X0003369Y0002515D01*
X0003552Y0002357D01*
X0003738Y0002203D01*
X0003928Y0002054D01*
X0004122Y0001910D01*
X0004319Y0001770D01*
X0004520Y0001635D01*
X0004724Y0001505D01*
X0004930Y0001380D01*
X0005140Y0001260D01*
X0005353Y0001145D01*
X0005568Y0001036D01*
X0005786Y0000931D01*
X0006006Y0000832D01*
X0006229Y0000738D01*
X0006454Y0000650D01*
X0006681Y0000567D01*
X0006910Y0000489D01*
X0007141Y0000418D01*
X0007373Y0000351D01*
X0007607Y0000291D01*
X0007842Y0000236D01*
X0008079Y0000186D01*
X0008316Y0000143D01*
X0008555Y0000105D01*
X0008795Y0000073D01*
X0009035Y0000047D01*
X0009276Y0000026D01*
X0009517Y0000012D01*
X0009758Y0000003D01*
X0010000Y0000000D01*
D11*
X0055654Y0061000D03*
X0062346Y0061000D03*
D12*
X0056000Y0042480D03*
X0056000Y0027520D03*
D13*
X0076634Y0117551D03*
X0072303Y0119126D03*
X0080965Y0119126D03*
X0085295Y0119913D03*
X0089626Y0119126D03*
X0093957Y0119913D03*
X0098287Y0119126D03*
X0102618Y0119126D03*
D14*
X0105728Y0130346D03*
X0053957Y0134283D03*
D15*
X0076988Y0078575D03*
X0099429Y0078575D03*
D16*
X0062346Y0070000D03*
X0055654Y0070000D03*
D17*
X0071260Y0057079D03*
X0075000Y0057079D03*
X0078740Y0057079D03*
X0088260Y0057079D03*
X0092000Y0057079D03*
X0095740Y0057079D03*
X0095740Y0046882D03*
X0088260Y0046882D03*
X0078740Y0046882D03*
X0071260Y0046882D03*
D18*
X0099654Y0066000D03*
X0106346Y0066000D03*
X0098346Y0021000D03*
X0091654Y0021000D03*
X0085346Y0021000D03*
X0078654Y0021000D03*
D19*
X0075488Y0069000D03*
X0086512Y0069000D03*
D20*
X0085000Y0038134D02*
X0085000Y0029866D01*
X0075000Y0029866D02*
X0075000Y0038134D01*
X0065000Y0038134D02*
X0065000Y0029866D01*
X0095000Y0029866D02*
X0095000Y0038134D01*
D21*
X0135000Y0035000D03*
X0135000Y0025000D03*
X0135000Y0015000D03*
X0135000Y0045000D03*
X0135000Y0055000D03*
X0135000Y0065000D03*
X0135000Y0075000D03*
X0135000Y0085000D03*
X0135000Y0095000D03*
X0135000Y0105000D03*
X0135000Y0115000D03*
X0135000Y0125000D03*
X0025000Y0125000D03*
X0025000Y0115000D03*
X0025000Y0105000D03*
X0025000Y0095000D03*
X0025000Y0085000D03*
X0025000Y0075000D03*
X0025000Y0065000D03*
X0025000Y0055000D03*
X0025000Y0045000D03*
X0025000Y0035000D03*
X0025000Y0025000D03*
X0025000Y0015000D03*
D22*
X0003500Y0010000D02*
X0003502Y0010161D01*
X0003508Y0010321D01*
X0003518Y0010482D01*
X0003532Y0010642D01*
X0003550Y0010802D01*
X0003571Y0010961D01*
X0003597Y0011120D01*
X0003627Y0011278D01*
X0003660Y0011435D01*
X0003698Y0011592D01*
X0003739Y0011747D01*
X0003784Y0011901D01*
X0003833Y0012054D01*
X0003886Y0012206D01*
X0003942Y0012357D01*
X0004003Y0012506D01*
X0004066Y0012654D01*
X0004134Y0012800D01*
X0004205Y0012944D01*
X0004279Y0013086D01*
X0004357Y0013227D01*
X0004439Y0013365D01*
X0004524Y0013502D01*
X0004612Y0013636D01*
X0004704Y0013768D01*
X0004799Y0013898D01*
X0004897Y0014026D01*
X0004998Y0014151D01*
X0005102Y0014273D01*
X0005209Y0014393D01*
X0005319Y0014510D01*
X0005432Y0014625D01*
X0005548Y0014736D01*
X0005667Y0014845D01*
X0005788Y0014950D01*
X0005912Y0015053D01*
X0006038Y0015153D01*
X0006166Y0015249D01*
X0006297Y0015342D01*
X0006431Y0015432D01*
X0006566Y0015519D01*
X0006704Y0015602D01*
X0006843Y0015682D01*
X0006985Y0015758D01*
X0007128Y0015831D01*
X0007273Y0015900D01*
X0007420Y0015966D01*
X0007568Y0016028D01*
X0007718Y0016086D01*
X0007869Y0016141D01*
X0008022Y0016192D01*
X0008176Y0016239D01*
X0008331Y0016282D01*
X0008487Y0016321D01*
X0008643Y0016357D01*
X0008801Y0016388D01*
X0008959Y0016416D01*
X0009118Y0016440D01*
X0009278Y0016460D01*
X0009438Y0016476D01*
X0009598Y0016488D01*
X0009759Y0016496D01*
X0009920Y0016500D01*
X0010080Y0016500D01*
X0010241Y0016496D01*
X0010402Y0016488D01*
X0010562Y0016476D01*
X0010722Y0016460D01*
X0010882Y0016440D01*
X0011041Y0016416D01*
X0011199Y0016388D01*
X0011357Y0016357D01*
X0011513Y0016321D01*
X0011669Y0016282D01*
X0011824Y0016239D01*
X0011978Y0016192D01*
X0012131Y0016141D01*
X0012282Y0016086D01*
X0012432Y0016028D01*
X0012580Y0015966D01*
X0012727Y0015900D01*
X0012872Y0015831D01*
X0013015Y0015758D01*
X0013157Y0015682D01*
X0013296Y0015602D01*
X0013434Y0015519D01*
X0013569Y0015432D01*
X0013703Y0015342D01*
X0013834Y0015249D01*
X0013962Y0015153D01*
X0014088Y0015053D01*
X0014212Y0014950D01*
X0014333Y0014845D01*
X0014452Y0014736D01*
X0014568Y0014625D01*
X0014681Y0014510D01*
X0014791Y0014393D01*
X0014898Y0014273D01*
X0015002Y0014151D01*
X0015103Y0014026D01*
X0015201Y0013898D01*
X0015296Y0013768D01*
X0015388Y0013636D01*
X0015476Y0013502D01*
X0015561Y0013365D01*
X0015643Y0013227D01*
X0015721Y0013086D01*
X0015795Y0012944D01*
X0015866Y0012800D01*
X0015934Y0012654D01*
X0015997Y0012506D01*
X0016058Y0012357D01*
X0016114Y0012206D01*
X0016167Y0012054D01*
X0016216Y0011901D01*
X0016261Y0011747D01*
X0016302Y0011592D01*
X0016340Y0011435D01*
X0016373Y0011278D01*
X0016403Y0011120D01*
X0016429Y0010961D01*
X0016450Y0010802D01*
X0016468Y0010642D01*
X0016482Y0010482D01*
X0016492Y0010321D01*
X0016498Y0010161D01*
X0016500Y0010000D01*
X0016498Y0009839D01*
X0016492Y0009679D01*
X0016482Y0009518D01*
X0016468Y0009358D01*
X0016450Y0009198D01*
X0016429Y0009039D01*
X0016403Y0008880D01*
X0016373Y0008722D01*
X0016340Y0008565D01*
X0016302Y0008408D01*
X0016261Y0008253D01*
X0016216Y0008099D01*
X0016167Y0007946D01*
X0016114Y0007794D01*
X0016058Y0007643D01*
X0015997Y0007494D01*
X0015934Y0007346D01*
X0015866Y0007200D01*
X0015795Y0007056D01*
X0015721Y0006914D01*
X0015643Y0006773D01*
X0015561Y0006635D01*
X0015476Y0006498D01*
X0015388Y0006364D01*
X0015296Y0006232D01*
X0015201Y0006102D01*
X0015103Y0005974D01*
X0015002Y0005849D01*
X0014898Y0005727D01*
X0014791Y0005607D01*
X0014681Y0005490D01*
X0014568Y0005375D01*
X0014452Y0005264D01*
X0014333Y0005155D01*
X0014212Y0005050D01*
X0014088Y0004947D01*
X0013962Y0004847D01*
X0013834Y0004751D01*
X0013703Y0004658D01*
X0013569Y0004568D01*
X0013434Y0004481D01*
X0013296Y0004398D01*
X0013157Y0004318D01*
X0013015Y0004242D01*
X0012872Y0004169D01*
X0012727Y0004100D01*
X0012580Y0004034D01*
X0012432Y0003972D01*
X0012282Y0003914D01*
X0012131Y0003859D01*
X0011978Y0003808D01*
X0011824Y0003761D01*
X0011669Y0003718D01*
X0011513Y0003679D01*
X0011357Y0003643D01*
X0011199Y0003612D01*
X0011041Y0003584D01*
X0010882Y0003560D01*
X0010722Y0003540D01*
X0010562Y0003524D01*
X0010402Y0003512D01*
X0010241Y0003504D01*
X0010080Y0003500D01*
X0009920Y0003500D01*
X0009759Y0003504D01*
X0009598Y0003512D01*
X0009438Y0003524D01*
X0009278Y0003540D01*
X0009118Y0003560D01*
X0008959Y0003584D01*
X0008801Y0003612D01*
X0008643Y0003643D01*
X0008487Y0003679D01*
X0008331Y0003718D01*
X0008176Y0003761D01*
X0008022Y0003808D01*
X0007869Y0003859D01*
X0007718Y0003914D01*
X0007568Y0003972D01*
X0007420Y0004034D01*
X0007273Y0004100D01*
X0007128Y0004169D01*
X0006985Y0004242D01*
X0006843Y0004318D01*
X0006704Y0004398D01*
X0006566Y0004481D01*
X0006431Y0004568D01*
X0006297Y0004658D01*
X0006166Y0004751D01*
X0006038Y0004847D01*
X0005912Y0004947D01*
X0005788Y0005050D01*
X0005667Y0005155D01*
X0005548Y0005264D01*
X0005432Y0005375D01*
X0005319Y0005490D01*
X0005209Y0005607D01*
X0005102Y0005727D01*
X0004998Y0005849D01*
X0004897Y0005974D01*
X0004799Y0006102D01*
X0004704Y0006232D01*
X0004612Y0006364D01*
X0004524Y0006498D01*
X0004439Y0006635D01*
X0004357Y0006773D01*
X0004279Y0006914D01*
X0004205Y0007056D01*
X0004134Y0007200D01*
X0004066Y0007346D01*
X0004003Y0007494D01*
X0003942Y0007643D01*
X0003886Y0007794D01*
X0003833Y0007946D01*
X0003784Y0008099D01*
X0003739Y0008253D01*
X0003698Y0008408D01*
X0003660Y0008565D01*
X0003627Y0008722D01*
X0003597Y0008880D01*
X0003571Y0009039D01*
X0003550Y0009198D01*
X0003532Y0009358D01*
X0003518Y0009518D01*
X0003508Y0009679D01*
X0003502Y0009839D01*
X0003500Y0010000D01*
X0043000Y0005000D02*
X0043002Y0005089D01*
X0043008Y0005178D01*
X0043018Y0005267D01*
X0043032Y0005355D01*
X0043049Y0005442D01*
X0043071Y0005528D01*
X0043097Y0005614D01*
X0043126Y0005698D01*
X0043159Y0005781D01*
X0043195Y0005862D01*
X0043236Y0005942D01*
X0043279Y0006019D01*
X0043326Y0006095D01*
X0043377Y0006168D01*
X0043430Y0006239D01*
X0043487Y0006308D01*
X0043547Y0006374D01*
X0043610Y0006438D01*
X0043675Y0006498D01*
X0043743Y0006556D01*
X0043814Y0006610D01*
X0043887Y0006661D01*
X0043962Y0006709D01*
X0044039Y0006754D01*
X0044118Y0006795D01*
X0044199Y0006832D01*
X0044281Y0006866D01*
X0044365Y0006897D01*
X0044450Y0006923D01*
X0044536Y0006946D01*
X0044623Y0006964D01*
X0044711Y0006979D01*
X0044800Y0006990D01*
X0044889Y0006997D01*
X0044978Y0007000D01*
X0045067Y0006999D01*
X0045156Y0006994D01*
X0045244Y0006985D01*
X0045333Y0006972D01*
X0045420Y0006955D01*
X0045507Y0006935D01*
X0045593Y0006910D01*
X0045677Y0006882D01*
X0045760Y0006850D01*
X0045842Y0006814D01*
X0045922Y0006775D01*
X0046000Y0006732D01*
X0046076Y0006686D01*
X0046150Y0006636D01*
X0046222Y0006583D01*
X0046291Y0006527D01*
X0046358Y0006468D01*
X0046422Y0006406D01*
X0046483Y0006342D01*
X0046542Y0006274D01*
X0046597Y0006204D01*
X0046649Y0006132D01*
X0046698Y0006057D01*
X0046743Y0005981D01*
X0046785Y0005902D01*
X0046823Y0005822D01*
X0046858Y0005740D01*
X0046889Y0005656D01*
X0046917Y0005571D01*
X0046940Y0005485D01*
X0046960Y0005398D01*
X0046976Y0005311D01*
X0046988Y0005222D01*
X0046996Y0005134D01*
X0047000Y0005045D01*
X0047000Y0004955D01*
X0046996Y0004866D01*
X0046988Y0004778D01*
X0046976Y0004689D01*
X0046960Y0004602D01*
X0046940Y0004515D01*
X0046917Y0004429D01*
X0046889Y0004344D01*
X0046858Y0004260D01*
X0046823Y0004178D01*
X0046785Y0004098D01*
X0046743Y0004019D01*
X0046698Y0003943D01*
X0046649Y0003868D01*
X0046597Y0003796D01*
X0046542Y0003726D01*
X0046483Y0003658D01*
X0046422Y0003594D01*
X0046358Y0003532D01*
X0046291Y0003473D01*
X0046222Y0003417D01*
X0046150Y0003364D01*
X0046076Y0003314D01*
X0046000Y0003268D01*
X0045922Y0003225D01*
X0045842Y0003186D01*
X0045760Y0003150D01*
X0045677Y0003118D01*
X0045593Y0003090D01*
X0045507Y0003065D01*
X0045420Y0003045D01*
X0045333Y0003028D01*
X0045244Y0003015D01*
X0045156Y0003006D01*
X0045067Y0003001D01*
X0044978Y0003000D01*
X0044889Y0003003D01*
X0044800Y0003010D01*
X0044711Y0003021D01*
X0044623Y0003036D01*
X0044536Y0003054D01*
X0044450Y0003077D01*
X0044365Y0003103D01*
X0044281Y0003134D01*
X0044199Y0003168D01*
X0044118Y0003205D01*
X0044039Y0003246D01*
X0043962Y0003291D01*
X0043887Y0003339D01*
X0043814Y0003390D01*
X0043743Y0003444D01*
X0043675Y0003502D01*
X0043610Y0003562D01*
X0043547Y0003626D01*
X0043487Y0003692D01*
X0043430Y0003761D01*
X0043377Y0003832D01*
X0043326Y0003905D01*
X0043279Y0003981D01*
X0043236Y0004058D01*
X0043195Y0004138D01*
X0043159Y0004219D01*
X0043126Y0004302D01*
X0043097Y0004386D01*
X0043071Y0004472D01*
X0043049Y0004558D01*
X0043032Y0004645D01*
X0043018Y0004733D01*
X0043008Y0004822D01*
X0043002Y0004911D01*
X0043000Y0005000D01*
X0113000Y0005000D02*
X0113002Y0005089D01*
X0113008Y0005178D01*
X0113018Y0005267D01*
X0113032Y0005355D01*
X0113049Y0005442D01*
X0113071Y0005528D01*
X0113097Y0005614D01*
X0113126Y0005698D01*
X0113159Y0005781D01*
X0113195Y0005862D01*
X0113236Y0005942D01*
X0113279Y0006019D01*
X0113326Y0006095D01*
X0113377Y0006168D01*
X0113430Y0006239D01*
X0113487Y0006308D01*
X0113547Y0006374D01*
X0113610Y0006438D01*
X0113675Y0006498D01*
X0113743Y0006556D01*
X0113814Y0006610D01*
X0113887Y0006661D01*
X0113962Y0006709D01*
X0114039Y0006754D01*
X0114118Y0006795D01*
X0114199Y0006832D01*
X0114281Y0006866D01*
X0114365Y0006897D01*
X0114450Y0006923D01*
X0114536Y0006946D01*
X0114623Y0006964D01*
X0114711Y0006979D01*
X0114800Y0006990D01*
X0114889Y0006997D01*
X0114978Y0007000D01*
X0115067Y0006999D01*
X0115156Y0006994D01*
X0115244Y0006985D01*
X0115333Y0006972D01*
X0115420Y0006955D01*
X0115507Y0006935D01*
X0115593Y0006910D01*
X0115677Y0006882D01*
X0115760Y0006850D01*
X0115842Y0006814D01*
X0115922Y0006775D01*
X0116000Y0006732D01*
X0116076Y0006686D01*
X0116150Y0006636D01*
X0116222Y0006583D01*
X0116291Y0006527D01*
X0116358Y0006468D01*
X0116422Y0006406D01*
X0116483Y0006342D01*
X0116542Y0006274D01*
X0116597Y0006204D01*
X0116649Y0006132D01*
X0116698Y0006057D01*
X0116743Y0005981D01*
X0116785Y0005902D01*
X0116823Y0005822D01*
X0116858Y0005740D01*
X0116889Y0005656D01*
X0116917Y0005571D01*
X0116940Y0005485D01*
X0116960Y0005398D01*
X0116976Y0005311D01*
X0116988Y0005222D01*
X0116996Y0005134D01*
X0117000Y0005045D01*
X0117000Y0004955D01*
X0116996Y0004866D01*
X0116988Y0004778D01*
X0116976Y0004689D01*
X0116960Y0004602D01*
X0116940Y0004515D01*
X0116917Y0004429D01*
X0116889Y0004344D01*
X0116858Y0004260D01*
X0116823Y0004178D01*
X0116785Y0004098D01*
X0116743Y0004019D01*
X0116698Y0003943D01*
X0116649Y0003868D01*
X0116597Y0003796D01*
X0116542Y0003726D01*
X0116483Y0003658D01*
X0116422Y0003594D01*
X0116358Y0003532D01*
X0116291Y0003473D01*
X0116222Y0003417D01*
X0116150Y0003364D01*
X0116076Y0003314D01*
X0116000Y0003268D01*
X0115922Y0003225D01*
X0115842Y0003186D01*
X0115760Y0003150D01*
X0115677Y0003118D01*
X0115593Y0003090D01*
X0115507Y0003065D01*
X0115420Y0003045D01*
X0115333Y0003028D01*
X0115244Y0003015D01*
X0115156Y0003006D01*
X0115067Y0003001D01*
X0114978Y0003000D01*
X0114889Y0003003D01*
X0114800Y0003010D01*
X0114711Y0003021D01*
X0114623Y0003036D01*
X0114536Y0003054D01*
X0114450Y0003077D01*
X0114365Y0003103D01*
X0114281Y0003134D01*
X0114199Y0003168D01*
X0114118Y0003205D01*
X0114039Y0003246D01*
X0113962Y0003291D01*
X0113887Y0003339D01*
X0113814Y0003390D01*
X0113743Y0003444D01*
X0113675Y0003502D01*
X0113610Y0003562D01*
X0113547Y0003626D01*
X0113487Y0003692D01*
X0113430Y0003761D01*
X0113377Y0003832D01*
X0113326Y0003905D01*
X0113279Y0003981D01*
X0113236Y0004058D01*
X0113195Y0004138D01*
X0113159Y0004219D01*
X0113126Y0004302D01*
X0113097Y0004386D01*
X0113071Y0004472D01*
X0113049Y0004558D01*
X0113032Y0004645D01*
X0113018Y0004733D01*
X0113008Y0004822D01*
X0113002Y0004911D01*
X0113000Y0005000D01*
X0143500Y0010000D02*
X0143502Y0010161D01*
X0143508Y0010321D01*
X0143518Y0010482D01*
X0143532Y0010642D01*
X0143550Y0010802D01*
X0143571Y0010961D01*
X0143597Y0011120D01*
X0143627Y0011278D01*
X0143660Y0011435D01*
X0143698Y0011592D01*
X0143739Y0011747D01*
X0143784Y0011901D01*
X0143833Y0012054D01*
X0143886Y0012206D01*
X0143942Y0012357D01*
X0144003Y0012506D01*
X0144066Y0012654D01*
X0144134Y0012800D01*
X0144205Y0012944D01*
X0144279Y0013086D01*
X0144357Y0013227D01*
X0144439Y0013365D01*
X0144524Y0013502D01*
X0144612Y0013636D01*
X0144704Y0013768D01*
X0144799Y0013898D01*
X0144897Y0014026D01*
X0144998Y0014151D01*
X0145102Y0014273D01*
X0145209Y0014393D01*
X0145319Y0014510D01*
X0145432Y0014625D01*
X0145548Y0014736D01*
X0145667Y0014845D01*
X0145788Y0014950D01*
X0145912Y0015053D01*
X0146038Y0015153D01*
X0146166Y0015249D01*
X0146297Y0015342D01*
X0146431Y0015432D01*
X0146566Y0015519D01*
X0146704Y0015602D01*
X0146843Y0015682D01*
X0146985Y0015758D01*
X0147128Y0015831D01*
X0147273Y0015900D01*
X0147420Y0015966D01*
X0147568Y0016028D01*
X0147718Y0016086D01*
X0147869Y0016141D01*
X0148022Y0016192D01*
X0148176Y0016239D01*
X0148331Y0016282D01*
X0148487Y0016321D01*
X0148643Y0016357D01*
X0148801Y0016388D01*
X0148959Y0016416D01*
X0149118Y0016440D01*
X0149278Y0016460D01*
X0149438Y0016476D01*
X0149598Y0016488D01*
X0149759Y0016496D01*
X0149920Y0016500D01*
X0150080Y0016500D01*
X0150241Y0016496D01*
X0150402Y0016488D01*
X0150562Y0016476D01*
X0150722Y0016460D01*
X0150882Y0016440D01*
X0151041Y0016416D01*
X0151199Y0016388D01*
X0151357Y0016357D01*
X0151513Y0016321D01*
X0151669Y0016282D01*
X0151824Y0016239D01*
X0151978Y0016192D01*
X0152131Y0016141D01*
X0152282Y0016086D01*
X0152432Y0016028D01*
X0152580Y0015966D01*
X0152727Y0015900D01*
X0152872Y0015831D01*
X0153015Y0015758D01*
X0153157Y0015682D01*
X0153296Y0015602D01*
X0153434Y0015519D01*
X0153569Y0015432D01*
X0153703Y0015342D01*
X0153834Y0015249D01*
X0153962Y0015153D01*
X0154088Y0015053D01*
X0154212Y0014950D01*
X0154333Y0014845D01*
X0154452Y0014736D01*
X0154568Y0014625D01*
X0154681Y0014510D01*
X0154791Y0014393D01*
X0154898Y0014273D01*
X0155002Y0014151D01*
X0155103Y0014026D01*
X0155201Y0013898D01*
X0155296Y0013768D01*
X0155388Y0013636D01*
X0155476Y0013502D01*
X0155561Y0013365D01*
X0155643Y0013227D01*
X0155721Y0013086D01*
X0155795Y0012944D01*
X0155866Y0012800D01*
X0155934Y0012654D01*
X0155997Y0012506D01*
X0156058Y0012357D01*
X0156114Y0012206D01*
X0156167Y0012054D01*
X0156216Y0011901D01*
X0156261Y0011747D01*
X0156302Y0011592D01*
X0156340Y0011435D01*
X0156373Y0011278D01*
X0156403Y0011120D01*
X0156429Y0010961D01*
X0156450Y0010802D01*
X0156468Y0010642D01*
X0156482Y0010482D01*
X0156492Y0010321D01*
X0156498Y0010161D01*
X0156500Y0010000D01*
X0156498Y0009839D01*
X0156492Y0009679D01*
X0156482Y0009518D01*
X0156468Y0009358D01*
X0156450Y0009198D01*
X0156429Y0009039D01*
X0156403Y0008880D01*
X0156373Y0008722D01*
X0156340Y0008565D01*
X0156302Y0008408D01*
X0156261Y0008253D01*
X0156216Y0008099D01*
X0156167Y0007946D01*
X0156114Y0007794D01*
X0156058Y0007643D01*
X0155997Y0007494D01*
X0155934Y0007346D01*
X0155866Y0007200D01*
X0155795Y0007056D01*
X0155721Y0006914D01*
X0155643Y0006773D01*
X0155561Y0006635D01*
X0155476Y0006498D01*
X0155388Y0006364D01*
X0155296Y0006232D01*
X0155201Y0006102D01*
X0155103Y0005974D01*
X0155002Y0005849D01*
X0154898Y0005727D01*
X0154791Y0005607D01*
X0154681Y0005490D01*
X0154568Y0005375D01*
X0154452Y0005264D01*
X0154333Y0005155D01*
X0154212Y0005050D01*
X0154088Y0004947D01*
X0153962Y0004847D01*
X0153834Y0004751D01*
X0153703Y0004658D01*
X0153569Y0004568D01*
X0153434Y0004481D01*
X0153296Y0004398D01*
X0153157Y0004318D01*
X0153015Y0004242D01*
X0152872Y0004169D01*
X0152727Y0004100D01*
X0152580Y0004034D01*
X0152432Y0003972D01*
X0152282Y0003914D01*
X0152131Y0003859D01*
X0151978Y0003808D01*
X0151824Y0003761D01*
X0151669Y0003718D01*
X0151513Y0003679D01*
X0151357Y0003643D01*
X0151199Y0003612D01*
X0151041Y0003584D01*
X0150882Y0003560D01*
X0150722Y0003540D01*
X0150562Y0003524D01*
X0150402Y0003512D01*
X0150241Y0003504D01*
X0150080Y0003500D01*
X0149920Y0003500D01*
X0149759Y0003504D01*
X0149598Y0003512D01*
X0149438Y0003524D01*
X0149278Y0003540D01*
X0149118Y0003560D01*
X0148959Y0003584D01*
X0148801Y0003612D01*
X0148643Y0003643D01*
X0148487Y0003679D01*
X0148331Y0003718D01*
X0148176Y0003761D01*
X0148022Y0003808D01*
X0147869Y0003859D01*
X0147718Y0003914D01*
X0147568Y0003972D01*
X0147420Y0004034D01*
X0147273Y0004100D01*
X0147128Y0004169D01*
X0146985Y0004242D01*
X0146843Y0004318D01*
X0146704Y0004398D01*
X0146566Y0004481D01*
X0146431Y0004568D01*
X0146297Y0004658D01*
X0146166Y0004751D01*
X0146038Y0004847D01*
X0145912Y0004947D01*
X0145788Y0005050D01*
X0145667Y0005155D01*
X0145548Y0005264D01*
X0145432Y0005375D01*
X0145319Y0005490D01*
X0145209Y0005607D01*
X0145102Y0005727D01*
X0144998Y0005849D01*
X0144897Y0005974D01*
X0144799Y0006102D01*
X0144704Y0006232D01*
X0144612Y0006364D01*
X0144524Y0006498D01*
X0144439Y0006635D01*
X0144357Y0006773D01*
X0144279Y0006914D01*
X0144205Y0007056D01*
X0144134Y0007200D01*
X0144066Y0007346D01*
X0144003Y0007494D01*
X0143942Y0007643D01*
X0143886Y0007794D01*
X0143833Y0007946D01*
X0143784Y0008099D01*
X0143739Y0008253D01*
X0143698Y0008408D01*
X0143660Y0008565D01*
X0143627Y0008722D01*
X0143597Y0008880D01*
X0143571Y0009039D01*
X0143550Y0009198D01*
X0143532Y0009358D01*
X0143518Y0009518D01*
X0143508Y0009679D01*
X0143502Y0009839D01*
X0143500Y0010000D01*
X0143500Y0130000D02*
X0143502Y0130161D01*
X0143508Y0130321D01*
X0143518Y0130482D01*
X0143532Y0130642D01*
X0143550Y0130802D01*
X0143571Y0130961D01*
X0143597Y0131120D01*
X0143627Y0131278D01*
X0143660Y0131435D01*
X0143698Y0131592D01*
X0143739Y0131747D01*
X0143784Y0131901D01*
X0143833Y0132054D01*
X0143886Y0132206D01*
X0143942Y0132357D01*
X0144003Y0132506D01*
X0144066Y0132654D01*
X0144134Y0132800D01*
X0144205Y0132944D01*
X0144279Y0133086D01*
X0144357Y0133227D01*
X0144439Y0133365D01*
X0144524Y0133502D01*
X0144612Y0133636D01*
X0144704Y0133768D01*
X0144799Y0133898D01*
X0144897Y0134026D01*
X0144998Y0134151D01*
X0145102Y0134273D01*
X0145209Y0134393D01*
X0145319Y0134510D01*
X0145432Y0134625D01*
X0145548Y0134736D01*
X0145667Y0134845D01*
X0145788Y0134950D01*
X0145912Y0135053D01*
X0146038Y0135153D01*
X0146166Y0135249D01*
X0146297Y0135342D01*
X0146431Y0135432D01*
X0146566Y0135519D01*
X0146704Y0135602D01*
X0146843Y0135682D01*
X0146985Y0135758D01*
X0147128Y0135831D01*
X0147273Y0135900D01*
X0147420Y0135966D01*
X0147568Y0136028D01*
X0147718Y0136086D01*
X0147869Y0136141D01*
X0148022Y0136192D01*
X0148176Y0136239D01*
X0148331Y0136282D01*
X0148487Y0136321D01*
X0148643Y0136357D01*
X0148801Y0136388D01*
X0148959Y0136416D01*
X0149118Y0136440D01*
X0149278Y0136460D01*
X0149438Y0136476D01*
X0149598Y0136488D01*
X0149759Y0136496D01*
X0149920Y0136500D01*
X0150080Y0136500D01*
X0150241Y0136496D01*
X0150402Y0136488D01*
X0150562Y0136476D01*
X0150722Y0136460D01*
X0150882Y0136440D01*
X0151041Y0136416D01*
X0151199Y0136388D01*
X0151357Y0136357D01*
X0151513Y0136321D01*
X0151669Y0136282D01*
X0151824Y0136239D01*
X0151978Y0136192D01*
X0152131Y0136141D01*
X0152282Y0136086D01*
X0152432Y0136028D01*
X0152580Y0135966D01*
X0152727Y0135900D01*
X0152872Y0135831D01*
X0153015Y0135758D01*
X0153157Y0135682D01*
X0153296Y0135602D01*
X0153434Y0135519D01*
X0153569Y0135432D01*
X0153703Y0135342D01*
X0153834Y0135249D01*
X0153962Y0135153D01*
X0154088Y0135053D01*
X0154212Y0134950D01*
X0154333Y0134845D01*
X0154452Y0134736D01*
X0154568Y0134625D01*
X0154681Y0134510D01*
X0154791Y0134393D01*
X0154898Y0134273D01*
X0155002Y0134151D01*
X0155103Y0134026D01*
X0155201Y0133898D01*
X0155296Y0133768D01*
X0155388Y0133636D01*
X0155476Y0133502D01*
X0155561Y0133365D01*
X0155643Y0133227D01*
X0155721Y0133086D01*
X0155795Y0132944D01*
X0155866Y0132800D01*
X0155934Y0132654D01*
X0155997Y0132506D01*
X0156058Y0132357D01*
X0156114Y0132206D01*
X0156167Y0132054D01*
X0156216Y0131901D01*
X0156261Y0131747D01*
X0156302Y0131592D01*
X0156340Y0131435D01*
X0156373Y0131278D01*
X0156403Y0131120D01*
X0156429Y0130961D01*
X0156450Y0130802D01*
X0156468Y0130642D01*
X0156482Y0130482D01*
X0156492Y0130321D01*
X0156498Y0130161D01*
X0156500Y0130000D01*
X0156498Y0129839D01*
X0156492Y0129679D01*
X0156482Y0129518D01*
X0156468Y0129358D01*
X0156450Y0129198D01*
X0156429Y0129039D01*
X0156403Y0128880D01*
X0156373Y0128722D01*
X0156340Y0128565D01*
X0156302Y0128408D01*
X0156261Y0128253D01*
X0156216Y0128099D01*
X0156167Y0127946D01*
X0156114Y0127794D01*
X0156058Y0127643D01*
X0155997Y0127494D01*
X0155934Y0127346D01*
X0155866Y0127200D01*
X0155795Y0127056D01*
X0155721Y0126914D01*
X0155643Y0126773D01*
X0155561Y0126635D01*
X0155476Y0126498D01*
X0155388Y0126364D01*
X0155296Y0126232D01*
X0155201Y0126102D01*
X0155103Y0125974D01*
X0155002Y0125849D01*
X0154898Y0125727D01*
X0154791Y0125607D01*
X0154681Y0125490D01*
X0154568Y0125375D01*
X0154452Y0125264D01*
X0154333Y0125155D01*
X0154212Y0125050D01*
X0154088Y0124947D01*
X0153962Y0124847D01*
X0153834Y0124751D01*
X0153703Y0124658D01*
X0153569Y0124568D01*
X0153434Y0124481D01*
X0153296Y0124398D01*
X0153157Y0124318D01*
X0153015Y0124242D01*
X0152872Y0124169D01*
X0152727Y0124100D01*
X0152580Y0124034D01*
X0152432Y0123972D01*
X0152282Y0123914D01*
X0152131Y0123859D01*
X0151978Y0123808D01*
X0151824Y0123761D01*
X0151669Y0123718D01*
X0151513Y0123679D01*
X0151357Y0123643D01*
X0151199Y0123612D01*
X0151041Y0123584D01*
X0150882Y0123560D01*
X0150722Y0123540D01*
X0150562Y0123524D01*
X0150402Y0123512D01*
X0150241Y0123504D01*
X0150080Y0123500D01*
X0149920Y0123500D01*
X0149759Y0123504D01*
X0149598Y0123512D01*
X0149438Y0123524D01*
X0149278Y0123540D01*
X0149118Y0123560D01*
X0148959Y0123584D01*
X0148801Y0123612D01*
X0148643Y0123643D01*
X0148487Y0123679D01*
X0148331Y0123718D01*
X0148176Y0123761D01*
X0148022Y0123808D01*
X0147869Y0123859D01*
X0147718Y0123914D01*
X0147568Y0123972D01*
X0147420Y0124034D01*
X0147273Y0124100D01*
X0147128Y0124169D01*
X0146985Y0124242D01*
X0146843Y0124318D01*
X0146704Y0124398D01*
X0146566Y0124481D01*
X0146431Y0124568D01*
X0146297Y0124658D01*
X0146166Y0124751D01*
X0146038Y0124847D01*
X0145912Y0124947D01*
X0145788Y0125050D01*
X0145667Y0125155D01*
X0145548Y0125264D01*
X0145432Y0125375D01*
X0145319Y0125490D01*
X0145209Y0125607D01*
X0145102Y0125727D01*
X0144998Y0125849D01*
X0144897Y0125974D01*
X0144799Y0126102D01*
X0144704Y0126232D01*
X0144612Y0126364D01*
X0144524Y0126498D01*
X0144439Y0126635D01*
X0144357Y0126773D01*
X0144279Y0126914D01*
X0144205Y0127056D01*
X0144134Y0127200D01*
X0144066Y0127346D01*
X0144003Y0127494D01*
X0143942Y0127643D01*
X0143886Y0127794D01*
X0143833Y0127946D01*
X0143784Y0128099D01*
X0143739Y0128253D01*
X0143698Y0128408D01*
X0143660Y0128565D01*
X0143627Y0128722D01*
X0143597Y0128880D01*
X0143571Y0129039D01*
X0143550Y0129198D01*
X0143532Y0129358D01*
X0143518Y0129518D01*
X0143508Y0129679D01*
X0143502Y0129839D01*
X0143500Y0130000D01*
X0003500Y0130000D02*
X0003502Y0130161D01*
X0003508Y0130321D01*
X0003518Y0130482D01*
X0003532Y0130642D01*
X0003550Y0130802D01*
X0003571Y0130961D01*
X0003597Y0131120D01*
X0003627Y0131278D01*
X0003660Y0131435D01*
X0003698Y0131592D01*
X0003739Y0131747D01*
X0003784Y0131901D01*
X0003833Y0132054D01*
X0003886Y0132206D01*
X0003942Y0132357D01*
X0004003Y0132506D01*
X0004066Y0132654D01*
X0004134Y0132800D01*
X0004205Y0132944D01*
X0004279Y0133086D01*
X0004357Y0133227D01*
X0004439Y0133365D01*
X0004524Y0133502D01*
X0004612Y0133636D01*
X0004704Y0133768D01*
X0004799Y0133898D01*
X0004897Y0134026D01*
X0004998Y0134151D01*
X0005102Y0134273D01*
X0005209Y0134393D01*
X0005319Y0134510D01*
X0005432Y0134625D01*
X0005548Y0134736D01*
X0005667Y0134845D01*
X0005788Y0134950D01*
X0005912Y0135053D01*
X0006038Y0135153D01*
X0006166Y0135249D01*
X0006297Y0135342D01*
X0006431Y0135432D01*
X0006566Y0135519D01*
X0006704Y0135602D01*
X0006843Y0135682D01*
X0006985Y0135758D01*
X0007128Y0135831D01*
X0007273Y0135900D01*
X0007420Y0135966D01*
X0007568Y0136028D01*
X0007718Y0136086D01*
X0007869Y0136141D01*
X0008022Y0136192D01*
X0008176Y0136239D01*
X0008331Y0136282D01*
X0008487Y0136321D01*
X0008643Y0136357D01*
X0008801Y0136388D01*
X0008959Y0136416D01*
X0009118Y0136440D01*
X0009278Y0136460D01*
X0009438Y0136476D01*
X0009598Y0136488D01*
X0009759Y0136496D01*
X0009920Y0136500D01*
X0010080Y0136500D01*
X0010241Y0136496D01*
X0010402Y0136488D01*
X0010562Y0136476D01*
X0010722Y0136460D01*
X0010882Y0136440D01*
X0011041Y0136416D01*
X0011199Y0136388D01*
X0011357Y0136357D01*
X0011513Y0136321D01*
X0011669Y0136282D01*
X0011824Y0136239D01*
X0011978Y0136192D01*
X0012131Y0136141D01*
X0012282Y0136086D01*
X0012432Y0136028D01*
X0012580Y0135966D01*
X0012727Y0135900D01*
X0012872Y0135831D01*
X0013015Y0135758D01*
X0013157Y0135682D01*
X0013296Y0135602D01*
X0013434Y0135519D01*
X0013569Y0135432D01*
X0013703Y0135342D01*
X0013834Y0135249D01*
X0013962Y0135153D01*
X0014088Y0135053D01*
X0014212Y0134950D01*
X0014333Y0134845D01*
X0014452Y0134736D01*
X0014568Y0134625D01*
X0014681Y0134510D01*
X0014791Y0134393D01*
X0014898Y0134273D01*
X0015002Y0134151D01*
X0015103Y0134026D01*
X0015201Y0133898D01*
X0015296Y0133768D01*
X0015388Y0133636D01*
X0015476Y0133502D01*
X0015561Y0133365D01*
X0015643Y0133227D01*
X0015721Y0133086D01*
X0015795Y0132944D01*
X0015866Y0132800D01*
X0015934Y0132654D01*
X0015997Y0132506D01*
X0016058Y0132357D01*
X0016114Y0132206D01*
X0016167Y0132054D01*
X0016216Y0131901D01*
X0016261Y0131747D01*
X0016302Y0131592D01*
X0016340Y0131435D01*
X0016373Y0131278D01*
X0016403Y0131120D01*
X0016429Y0130961D01*
X0016450Y0130802D01*
X0016468Y0130642D01*
X0016482Y0130482D01*
X0016492Y0130321D01*
X0016498Y0130161D01*
X0016500Y0130000D01*
X0016498Y0129839D01*
X0016492Y0129679D01*
X0016482Y0129518D01*
X0016468Y0129358D01*
X0016450Y0129198D01*
X0016429Y0129039D01*
X0016403Y0128880D01*
X0016373Y0128722D01*
X0016340Y0128565D01*
X0016302Y0128408D01*
X0016261Y0128253D01*
X0016216Y0128099D01*
X0016167Y0127946D01*
X0016114Y0127794D01*
X0016058Y0127643D01*
X0015997Y0127494D01*
X0015934Y0127346D01*
X0015866Y0127200D01*
X0015795Y0127056D01*
X0015721Y0126914D01*
X0015643Y0126773D01*
X0015561Y0126635D01*
X0015476Y0126498D01*
X0015388Y0126364D01*
X0015296Y0126232D01*
X0015201Y0126102D01*
X0015103Y0125974D01*
X0015002Y0125849D01*
X0014898Y0125727D01*
X0014791Y0125607D01*
X0014681Y0125490D01*
X0014568Y0125375D01*
X0014452Y0125264D01*
X0014333Y0125155D01*
X0014212Y0125050D01*
X0014088Y0124947D01*
X0013962Y0124847D01*
X0013834Y0124751D01*
X0013703Y0124658D01*
X0013569Y0124568D01*
X0013434Y0124481D01*
X0013296Y0124398D01*
X0013157Y0124318D01*
X0013015Y0124242D01*
X0012872Y0124169D01*
X0012727Y0124100D01*
X0012580Y0124034D01*
X0012432Y0123972D01*
X0012282Y0123914D01*
X0012131Y0123859D01*
X0011978Y0123808D01*
X0011824Y0123761D01*
X0011669Y0123718D01*
X0011513Y0123679D01*
X0011357Y0123643D01*
X0011199Y0123612D01*
X0011041Y0123584D01*
X0010882Y0123560D01*
X0010722Y0123540D01*
X0010562Y0123524D01*
X0010402Y0123512D01*
X0010241Y0123504D01*
X0010080Y0123500D01*
X0009920Y0123500D01*
X0009759Y0123504D01*
X0009598Y0123512D01*
X0009438Y0123524D01*
X0009278Y0123540D01*
X0009118Y0123560D01*
X0008959Y0123584D01*
X0008801Y0123612D01*
X0008643Y0123643D01*
X0008487Y0123679D01*
X0008331Y0123718D01*
X0008176Y0123761D01*
X0008022Y0123808D01*
X0007869Y0123859D01*
X0007718Y0123914D01*
X0007568Y0123972D01*
X0007420Y0124034D01*
X0007273Y0124100D01*
X0007128Y0124169D01*
X0006985Y0124242D01*
X0006843Y0124318D01*
X0006704Y0124398D01*
X0006566Y0124481D01*
X0006431Y0124568D01*
X0006297Y0124658D01*
X0006166Y0124751D01*
X0006038Y0124847D01*
X0005912Y0124947D01*
X0005788Y0125050D01*
X0005667Y0125155D01*
X0005548Y0125264D01*
X0005432Y0125375D01*
X0005319Y0125490D01*
X0005209Y0125607D01*
X0005102Y0125727D01*
X0004998Y0125849D01*
X0004897Y0125974D01*
X0004799Y0126102D01*
X0004704Y0126232D01*
X0004612Y0126364D01*
X0004524Y0126498D01*
X0004439Y0126635D01*
X0004357Y0126773D01*
X0004279Y0126914D01*
X0004205Y0127056D01*
X0004134Y0127200D01*
X0004066Y0127346D01*
X0004003Y0127494D01*
X0003942Y0127643D01*
X0003886Y0127794D01*
X0003833Y0127946D01*
X0003784Y0128099D01*
X0003739Y0128253D01*
X0003698Y0128408D01*
X0003660Y0128565D01*
X0003627Y0128722D01*
X0003597Y0128880D01*
X0003571Y0129039D01*
X0003550Y0129198D01*
X0003532Y0129358D01*
X0003518Y0129518D01*
X0003508Y0129679D01*
X0003502Y0129839D01*
X0003500Y0130000D01*
D23*
X0035000Y0125000D03*
X0045000Y0125000D03*
X0045000Y0115000D03*
X0035000Y0115000D03*
X0035000Y0105000D03*
X0045000Y0105000D03*
X0045000Y0095000D03*
X0035000Y0095000D03*
X0035000Y0085000D03*
X0045000Y0085000D03*
X0045000Y0075000D03*
X0045000Y0065000D03*
X0035000Y0065000D03*
X0035000Y0075000D03*
X0035000Y0055000D03*
X0045000Y0055000D03*
X0045000Y0045000D03*
X0035000Y0045000D03*
X0035000Y0035000D03*
X0045000Y0035000D03*
X0045000Y0025000D03*
X0035000Y0025000D03*
X0035000Y0015000D03*
X0045000Y0015000D03*
X0115000Y0015000D03*
X0125000Y0015000D03*
X0125000Y0025000D03*
X0115000Y0025000D03*
X0115000Y0035000D03*
X0125000Y0035000D03*
X0125000Y0045000D03*
X0115000Y0045000D03*
X0115000Y0055000D03*
X0125000Y0055000D03*
X0125000Y0065000D03*
X0125000Y0075000D03*
X0115000Y0075000D03*
X0115000Y0065000D03*
X0115000Y0085000D03*
X0125000Y0085000D03*
X0125000Y0095000D03*
X0115000Y0095000D03*
X0115000Y0105000D03*
X0125000Y0105000D03*
X0125000Y0115000D03*
X0115000Y0115000D03*
X0115000Y0125000D03*
X0125000Y0125000D03*
D24*
X0120000Y0127170D02*
X0119620Y0128087D01*
X0118087Y0129620D01*
X0116084Y0130450D01*
X0113916Y0130450D01*
X0111913Y0129620D01*
X0110380Y0128087D01*
X0110284Y0127857D01*
X0110284Y0129768D01*
X0106306Y0129768D01*
X0106306Y0124806D01*
X0108721Y0124806D01*
X0109179Y0124929D01*
X0109550Y0125143D01*
X0109550Y0123916D01*
X0110380Y0121913D01*
X0111913Y0120380D01*
X0112830Y0120000D01*
X0111913Y0119620D01*
X0110380Y0118087D01*
X0109550Y0116084D01*
X0109550Y0113916D01*
X0110380Y0111913D01*
X0111913Y0110380D01*
X0112830Y0110000D01*
X0111913Y0109620D01*
X0110380Y0108087D01*
X0109550Y0106084D01*
X0109550Y0103916D01*
X0110380Y0101913D01*
X0111913Y0100380D01*
X0113080Y0099896D01*
X0112985Y0099865D01*
X0112248Y0099490D01*
X0111580Y0099004D01*
X0110996Y0098420D01*
X0110510Y0097752D01*
X0110135Y0097015D01*
X0109879Y0096229D01*
X0109750Y0095413D01*
X0109750Y0095200D01*
X0114800Y0095200D01*
X0114800Y0094800D01*
X0109750Y0094800D01*
X0109750Y0094587D01*
X0109879Y0093771D01*
X0110135Y0092985D01*
X0110510Y0092248D01*
X0110996Y0091580D01*
X0111580Y0090996D01*
X0112248Y0090510D01*
X0112985Y0090135D01*
X0113080Y0090104D01*
X0111913Y0089620D01*
X0110380Y0088087D01*
X0109550Y0086084D01*
X0109550Y0083916D01*
X0110380Y0081913D01*
X0111913Y0080380D01*
X0112830Y0080000D01*
X0111913Y0079620D01*
X0110380Y0078087D01*
X0109550Y0076084D01*
X0109550Y0073916D01*
X0110380Y0071913D01*
X0111913Y0070380D01*
X0112830Y0070000D01*
X0111913Y0069620D01*
X0110380Y0068087D01*
X0110315Y0067931D01*
X0110315Y0068994D01*
X0109143Y0070165D01*
X0105223Y0070165D01*
X0105119Y0070416D01*
X0101717Y0073819D01*
X0103801Y0073819D01*
X0104972Y0074990D01*
X0104972Y0082159D01*
X0103801Y0083331D01*
X0095057Y0083331D01*
X0093886Y0082159D01*
X0093886Y0078650D01*
X0087795Y0084740D01*
X0087795Y0099169D01*
X0088204Y0099000D01*
X0089796Y0099000D01*
X0091266Y0099609D01*
X0092391Y0100734D01*
X0093000Y0102204D01*
X0093000Y0103796D01*
X0092391Y0105266D01*
X0092126Y0105531D01*
X0092126Y0114270D01*
X0093017Y0115161D01*
X0093957Y0115161D01*
X0094897Y0115161D01*
X0095500Y0114557D01*
X0095500Y0114157D01*
X0094609Y0113266D01*
X0094000Y0111796D01*
X0094000Y0110204D01*
X0094609Y0108734D01*
X0095734Y0107609D01*
X0097204Y0107000D01*
X0098796Y0107000D01*
X0100266Y0107609D01*
X0101391Y0108734D01*
X0102000Y0110204D01*
X0102000Y0111796D01*
X0101391Y0113266D01*
X0100500Y0114157D01*
X0100500Y0114173D01*
X0105021Y0114173D01*
X0106193Y0115345D01*
X0106193Y0122907D01*
X0105021Y0124079D01*
X0096864Y0124079D01*
X0096637Y0124306D01*
X0096226Y0124543D01*
X0095768Y0124666D01*
X0093957Y0124666D01*
X0093957Y0119914D01*
X0093957Y0119914D01*
X0093957Y0124666D01*
X0092145Y0124666D01*
X0091687Y0124543D01*
X0091277Y0124306D01*
X0091049Y0124079D01*
X0088486Y0124079D01*
X0087698Y0124866D01*
X0082892Y0124866D01*
X0082105Y0124079D01*
X0078561Y0124079D01*
X0077390Y0122907D01*
X0077390Y0122504D01*
X0075878Y0122504D01*
X0075878Y0122907D01*
X0074706Y0124079D01*
X0069900Y0124079D01*
X0068728Y0122907D01*
X0068728Y0115345D01*
X0069900Y0114173D01*
X0073059Y0114173D01*
X0073059Y0113770D01*
X0074134Y0112695D01*
X0074134Y0098557D01*
X0073734Y0098391D01*
X0072609Y0097266D01*
X0072000Y0095796D01*
X0072000Y0094204D01*
X0072609Y0092734D01*
X0073734Y0091609D01*
X0075204Y0091000D01*
X0076796Y0091000D01*
X0078266Y0091609D01*
X0079391Y0092734D01*
X0080000Y0094204D01*
X0080000Y0095796D01*
X0079391Y0097266D01*
X0079134Y0097523D01*
X0079134Y0109443D01*
X0080204Y0109000D01*
X0081796Y0109000D01*
X0082396Y0109249D01*
X0082609Y0108734D01*
X0082795Y0108548D01*
X0082795Y0083207D01*
X0083176Y0082289D01*
X0092881Y0072584D01*
X0092881Y0072584D01*
X0093584Y0071881D01*
X0094503Y0071500D01*
X0096964Y0071500D01*
X0098299Y0070165D01*
X0096857Y0070165D01*
X0095685Y0068994D01*
X0095685Y0067200D01*
X0095675Y0067186D01*
X0090442Y0061028D01*
X0089891Y0061028D01*
X0090350Y0062135D01*
X0090350Y0063457D01*
X0090490Y0063457D01*
X0091661Y0064628D01*
X0091661Y0073372D01*
X0090490Y0074543D01*
X0082534Y0074543D01*
X0081362Y0073372D01*
X0081362Y0066972D01*
X0081296Y0067000D01*
X0080438Y0067000D01*
X0080438Y0068225D01*
X0076263Y0068225D01*
X0076263Y0063657D01*
X0076500Y0063657D01*
X0076500Y0062204D01*
X0076987Y0061028D01*
X0072813Y0061028D01*
X0072613Y0060828D01*
X0071260Y0060828D01*
X0071260Y0057079D01*
X0071260Y0057079D01*
X0071260Y0060828D01*
X0069665Y0060828D01*
X0069207Y0060705D01*
X0068796Y0060468D01*
X0068461Y0060133D01*
X0068224Y0059722D01*
X0068102Y0059265D01*
X0068102Y0057079D01*
X0071260Y0057079D01*
X0071260Y0061772D01*
X0075488Y0069000D01*
X0074713Y0068736D02*
X0066705Y0068736D01*
X0066705Y0069520D02*
X0066705Y0066810D01*
X0066583Y0066352D01*
X0066346Y0065942D01*
X0066011Y0065607D01*
X0065600Y0065370D01*
X0065142Y0065247D01*
X0062826Y0065247D01*
X0062826Y0069520D01*
X0061867Y0069520D01*
X0061867Y0065247D01*
X0059550Y0065247D01*
X0059306Y0065313D01*
X0059254Y0065260D01*
X0059254Y0064511D01*
X0059486Y0064646D01*
X0059944Y0064768D01*
X0062162Y0064768D01*
X0062162Y0061184D01*
X0062531Y0061184D01*
X0066312Y0061184D01*
X0066312Y0063205D01*
X0066189Y0063663D01*
X0065952Y0064074D01*
X0065617Y0064409D01*
X0065207Y0064646D01*
X0064749Y0064768D01*
X0062531Y0064768D01*
X0062531Y0061184D01*
X0062531Y0060816D01*
X0066312Y0060816D01*
X0066312Y0058795D01*
X0066189Y0058337D01*
X0065952Y0057926D01*
X0065617Y0057591D01*
X0065207Y0057354D01*
X0064749Y0057231D01*
X0062531Y0057231D01*
X0062531Y0060816D01*
X0062162Y0060816D01*
X0062162Y0057231D01*
X0059944Y0057231D01*
X0059486Y0057354D01*
X0059254Y0057489D01*
X0059254Y0047465D01*
X0061184Y0048154D01*
X0061312Y0048464D01*
X0062536Y0049688D01*
X0062864Y0049824D01*
X0065914Y0052874D01*
X0066943Y0053300D01*
X0072643Y0053300D01*
X0072613Y0053330D01*
X0071260Y0053330D01*
X0071260Y0057079D01*
X0067268Y0056079D01*
X0062346Y0061000D01*
X0062346Y0070000D01*
X0069000Y0076654D01*
X0069000Y0081000D01*
X0081500Y0091000D01*
X0082795Y0091115D02*
X0077074Y0091115D01*
X0074926Y0091115D02*
X0059254Y0091115D01*
X0059254Y0089517D02*
X0082795Y0089517D01*
X0082795Y0087918D02*
X0059254Y0087918D01*
X0059254Y0086320D02*
X0082795Y0086320D01*
X0082795Y0084721D02*
X0059254Y0084721D01*
X0059254Y0083123D02*
X0072408Y0083123D01*
X0072616Y0083331D02*
X0071445Y0082159D01*
X0071445Y0074990D01*
X0072094Y0074341D01*
X0071644Y0074221D01*
X0071233Y0073984D01*
X0070898Y0073649D01*
X0070661Y0073238D01*
X0070539Y0072780D01*
X0070539Y0069775D01*
X0074713Y0069775D01*
X0074713Y0068225D01*
X0070539Y0068225D01*
X0070539Y0065220D01*
X0070661Y0064762D01*
X0070898Y0064351D01*
X0071233Y0064016D01*
X0071644Y0063779D01*
X0072102Y0063657D01*
X0074713Y0063657D01*
X0074713Y0068225D01*
X0076263Y0068225D01*
X0076263Y0069775D01*
X0080438Y0069775D01*
X0080438Y0072780D01*
X0080315Y0073238D01*
X0080078Y0073649D01*
X0079908Y0073819D01*
X0081360Y0073819D01*
X0082531Y0074990D01*
X0082531Y0082159D01*
X0081360Y0083331D01*
X0072616Y0083331D01*
X0071445Y0081524D02*
X0059254Y0081524D01*
X0059254Y0079926D02*
X0071445Y0079926D01*
X0071445Y0078327D02*
X0059254Y0078327D01*
X0059254Y0076729D02*
X0071445Y0076729D01*
X0071445Y0075130D02*
X0059254Y0075130D01*
X0059254Y0074740D02*
X0059254Y0121063D01*
X0058705Y0122386D01*
X0054052Y0127039D01*
X0053039Y0128052D01*
X0051716Y0128600D01*
X0049107Y0128600D01*
X0048087Y0129620D01*
X0046084Y0130450D01*
X0043916Y0130450D01*
X0041913Y0129620D01*
X0040893Y0128600D01*
X0039107Y0128600D01*
X0038087Y0129620D01*
X0036084Y0130450D01*
X0033916Y0130450D01*
X0031913Y0129620D01*
X0030380Y0128087D01*
X0030162Y0127562D01*
X0029875Y0128257D01*
X0028257Y0129875D01*
X0026144Y0130750D01*
X0023856Y0130750D01*
X0021743Y0129875D01*
X0020125Y0128257D01*
X0019250Y0126144D01*
X0019250Y0123856D01*
X0020125Y0121743D01*
X0021743Y0120125D01*
X0022046Y0120000D01*
X0021743Y0119875D01*
X0020125Y0118257D01*
X0019250Y0116144D01*
X0019250Y0113856D01*
X0020125Y0111743D01*
X0021743Y0110125D01*
X0022046Y0110000D01*
X0021743Y0109875D01*
X0020125Y0108257D01*
X0019250Y0106144D01*
X0019250Y0103856D01*
X0020125Y0101743D01*
X0021743Y0100125D01*
X0022046Y0100000D01*
X0021743Y0099875D01*
X0020125Y0098257D01*
X0019250Y0096144D01*
X0019250Y0093856D01*
X0020125Y0091743D01*
X0021743Y0090125D01*
X0022046Y0090000D01*
X0021743Y0089875D01*
X0020125Y0088257D01*
X0019250Y0086144D01*
X0019250Y0083856D01*
X0020125Y0081743D01*
X0021743Y0080125D01*
X0022046Y0080000D01*
X0021743Y0079875D01*
X0020125Y0078257D01*
X0019250Y0076144D01*
X0019250Y0073856D01*
X0020125Y0071743D01*
X0021743Y0070125D01*
X0022046Y0070000D01*
X0021743Y0069875D01*
X0020125Y0068257D01*
X0019250Y0066144D01*
X0019250Y0063856D01*
X0020125Y0061743D01*
X0021743Y0060125D01*
X0022046Y0060000D01*
X0021743Y0059875D01*
X0020125Y0058257D01*
X0019250Y0056144D01*
X0019250Y0053856D01*
X0020125Y0051743D01*
X0021743Y0050125D01*
X0022046Y0050000D01*
X0021743Y0049875D01*
X0020125Y0048257D01*
X0019250Y0046144D01*
X0019250Y0043856D01*
X0020125Y0041743D01*
X0021743Y0040125D01*
X0022046Y0040000D01*
X0021743Y0039875D01*
X0020125Y0038257D01*
X0019250Y0036144D01*
X0019250Y0033856D01*
X0020125Y0031743D01*
X0021743Y0030125D01*
X0022046Y0030000D01*
X0021743Y0029875D01*
X0020125Y0028257D01*
X0019250Y0026144D01*
X0019250Y0023856D01*
X0020125Y0021743D01*
X0021743Y0020125D01*
X0022046Y0020000D01*
X0021743Y0019875D01*
X0020125Y0018257D01*
X0019250Y0016144D01*
X0019250Y0013856D01*
X0020125Y0011743D01*
X0021743Y0010125D01*
X0023856Y0009250D01*
X0026144Y0009250D01*
X0028257Y0010125D01*
X0029875Y0011743D01*
X0030162Y0012438D01*
X0030380Y0011913D01*
X0031913Y0010380D01*
X0033916Y0009550D01*
X0036084Y0009550D01*
X0038087Y0010380D01*
X0039620Y0011913D01*
X0040000Y0012830D01*
X0040380Y0011913D01*
X0041913Y0010380D01*
X0043679Y0009648D01*
X0042281Y0009069D01*
X0040931Y0007719D01*
X0040200Y0005955D01*
X0040200Y0004045D01*
X0040550Y0003200D01*
X0016987Y0003200D01*
X0017545Y0003669D01*
X0019256Y0006631D01*
X0019850Y0010000D01*
X0019256Y0013369D01*
X0017545Y0016331D01*
X0014925Y0018530D01*
X0011710Y0019700D01*
X0008290Y0019700D01*
X0005075Y0018530D01*
X0003200Y0016957D01*
X0003200Y0123043D01*
X0005075Y0121470D01*
X0005075Y0121470D01*
X0008290Y0120300D01*
X0011710Y0120300D01*
X0014925Y0121470D01*
X0017545Y0123669D01*
X0019256Y0126631D01*
X0019850Y0130000D01*
X0019256Y0133369D01*
X0017545Y0136331D01*
X0017545Y0136331D01*
X0016987Y0136800D01*
X0049401Y0136800D01*
X0049401Y0134861D01*
X0053379Y0134861D01*
X0053379Y0133705D01*
X0054535Y0133705D01*
X0054535Y0128743D01*
X0056950Y0128743D01*
X0057407Y0128866D01*
X0057818Y0129103D01*
X0058153Y0129438D01*
X0058390Y0129849D01*
X0058513Y0130306D01*
X0058513Y0133705D01*
X0054535Y0133705D01*
X0054535Y0134861D01*
X0058513Y0134861D01*
X0058513Y0136800D01*
X0143013Y0136800D01*
X0142455Y0136331D01*
X0140744Y0133369D01*
X0140744Y0133369D01*
X0140150Y0130000D01*
X0140744Y0126631D01*
X0142455Y0123669D01*
X0145075Y0121470D01*
X0145075Y0121470D01*
X0148290Y0120300D01*
X0151710Y0120300D01*
X0154925Y0121470D01*
X0156800Y0123043D01*
X0156800Y0016957D01*
X0154925Y0018530D01*
X0154925Y0018530D01*
X0151710Y0019700D01*
X0148290Y0019700D01*
X0145075Y0018530D01*
X0142455Y0016331D01*
X0140744Y0013369D01*
X0140744Y0013369D01*
X0140150Y0010000D01*
X0140744Y0006631D01*
X0142455Y0003669D01*
X0143013Y0003200D01*
X0119450Y0003200D01*
X0119800Y0004045D01*
X0119800Y0004233D01*
X0121972Y0008578D01*
X0122035Y0008641D01*
X0122185Y0009003D01*
X0122360Y0009354D01*
X0122366Y0009441D01*
X0122400Y0009523D01*
X0122400Y0009915D01*
X0122418Y0010170D01*
X0123916Y0009550D01*
X0126084Y0009550D01*
X0128087Y0010380D01*
X0129620Y0011913D01*
X0129838Y0012438D01*
X0130125Y0011743D01*
X0131743Y0010125D01*
X0133856Y0009250D01*
X0136144Y0009250D01*
X0138257Y0010125D01*
X0139875Y0011743D01*
X0140750Y0013856D01*
X0140750Y0016144D01*
X0139875Y0018257D01*
X0138257Y0019875D01*
X0137954Y0020000D01*
X0138257Y0020125D01*
X0139875Y0021743D01*
X0140750Y0023856D01*
X0140750Y0026144D01*
X0139875Y0028257D01*
X0138257Y0029875D01*
X0137954Y0030000D01*
X0138257Y0030125D01*
X0139875Y0031743D01*
X0140750Y0033856D01*
X0140750Y0036144D01*
X0139875Y0038257D01*
X0138257Y0039875D01*
X0137954Y0040000D01*
X0138257Y0040125D01*
X0139875Y0041743D01*
X0140750Y0043856D01*
X0140750Y0046144D01*
X0139875Y0048257D01*
X0138257Y0049875D01*
X0137954Y0050000D01*
X0138257Y0050125D01*
X0139875Y0051743D01*
X0140750Y0053856D01*
X0140750Y0056144D01*
X0139875Y0058257D01*
X0138257Y0059875D01*
X0137954Y0060000D01*
X0138257Y0060125D01*
X0139875Y0061743D01*
X0140750Y0063856D01*
X0140750Y0066144D01*
X0139875Y0068257D01*
X0138257Y0069875D01*
X0137954Y0070000D01*
X0138257Y0070125D01*
X0139875Y0071743D01*
X0140750Y0073856D01*
X0140750Y0076144D01*
X0139875Y0078257D01*
X0138257Y0079875D01*
X0137954Y0080000D01*
X0138257Y0080125D01*
X0139875Y0081743D01*
X0140750Y0083856D01*
X0140750Y0086144D01*
X0139875Y0088257D01*
X0138257Y0089875D01*
X0137655Y0090124D01*
X0137909Y0090253D01*
X0138616Y0090767D01*
X0139233Y0091384D01*
X0139747Y0092091D01*
X0140143Y0092870D01*
X0140413Y0093700D01*
X0140550Y0094563D01*
X0140550Y0094810D01*
X0135200Y0094800D01*
X0135200Y0095200D01*
X0140550Y0095210D01*
X0140550Y0095437D01*
X0140413Y0096300D01*
X0140143Y0097130D01*
X0139747Y0097909D01*
X0139233Y0098616D01*
X0138616Y0099233D01*
X0137909Y0099747D01*
X0137655Y0099876D01*
X0138257Y0100125D01*
X0139875Y0101743D01*
X0140750Y0103856D01*
X0140750Y0106144D01*
X0139875Y0108257D01*
X0138257Y0109875D01*
X0137954Y0110000D01*
X0138257Y0110125D01*
X0139875Y0111743D01*
X0140750Y0113856D01*
X0140750Y0116144D01*
X0139875Y0118257D01*
X0138257Y0119875D01*
X0137954Y0120000D01*
X0138257Y0120125D01*
X0139875Y0121743D01*
X0140750Y0123856D01*
X0140750Y0126144D01*
X0139875Y0128257D01*
X0138257Y0129875D01*
X0136144Y0130750D01*
X0133856Y0130750D01*
X0131743Y0129875D01*
X0130125Y0128257D01*
X0129838Y0127562D01*
X0129620Y0128087D01*
X0128087Y0129620D01*
X0126084Y0130450D01*
X0123916Y0130450D01*
X0121913Y0129620D01*
X0120380Y0128087D01*
X0120000Y0127170D01*
X0119706Y0127881D02*
X0120294Y0127881D01*
X0121772Y0129479D02*
X0118228Y0129479D01*
X0111772Y0129479D02*
X0110284Y0129479D01*
X0110284Y0130924D02*
X0110284Y0134324D01*
X0110162Y0134781D01*
X0109925Y0135192D01*
X0109589Y0135527D01*
X0109179Y0135764D01*
X0108721Y0135887D01*
X0106306Y0135887D01*
X0106306Y0130924D01*
X0110284Y0130924D01*
X0110284Y0131078D02*
X0140340Y0131078D01*
X0140150Y0130000D02*
X0140150Y0130000D01*
X0140242Y0129479D02*
X0138652Y0129479D01*
X0140030Y0127881D02*
X0140524Y0127881D01*
X0140744Y0126631D02*
X0140744Y0126631D01*
X0140693Y0126282D02*
X0140946Y0126282D01*
X0140750Y0124684D02*
X0141869Y0124684D01*
X0142455Y0123669D02*
X0142455Y0123669D01*
X0143150Y0123085D02*
X0140431Y0123085D01*
X0139619Y0121487D02*
X0145055Y0121487D01*
X0139842Y0118290D02*
X0156800Y0118290D01*
X0156800Y0119888D02*
X0138224Y0119888D01*
X0140523Y0116691D02*
X0156800Y0116691D01*
X0156800Y0115093D02*
X0140750Y0115093D01*
X0140600Y0113494D02*
X0156800Y0113494D01*
X0156800Y0111896D02*
X0139938Y0111896D01*
X0138429Y0110297D02*
X0156800Y0110297D01*
X0156800Y0108699D02*
X0139433Y0108699D01*
X0140354Y0107100D02*
X0156800Y0107100D01*
X0156800Y0105502D02*
X0140750Y0105502D01*
X0140750Y0103903D02*
X0156800Y0103903D01*
X0156800Y0102305D02*
X0140107Y0102305D01*
X0138838Y0100706D02*
X0156800Y0100706D01*
X0156800Y0099108D02*
X0138741Y0099108D01*
X0139950Y0097509D02*
X0156800Y0097509D01*
X0156800Y0095911D02*
X0140475Y0095911D01*
X0140510Y0094312D02*
X0156800Y0094312D01*
X0156800Y0092714D02*
X0140064Y0092714D01*
X0138964Y0091115D02*
X0156800Y0091115D01*
X0156800Y0089517D02*
X0138615Y0089517D01*
X0140015Y0087918D02*
X0156800Y0087918D01*
X0156800Y0086320D02*
X0140677Y0086320D01*
X0140750Y0084721D02*
X0156800Y0084721D01*
X0156800Y0083123D02*
X0140446Y0083123D01*
X0139656Y0081524D02*
X0156800Y0081524D01*
X0156800Y0079926D02*
X0138134Y0079926D01*
X0139805Y0078327D02*
X0156800Y0078327D01*
X0156800Y0076729D02*
X0140508Y0076729D01*
X0140750Y0075130D02*
X0156800Y0075130D01*
X0156800Y0073532D02*
X0140615Y0073532D01*
X0139953Y0071933D02*
X0156800Y0071933D01*
X0156800Y0070334D02*
X0138466Y0070334D01*
X0139396Y0068736D02*
X0156800Y0068736D01*
X0156800Y0067137D02*
X0140338Y0067137D01*
X0140750Y0065539D02*
X0156800Y0065539D01*
X0156800Y0063940D02*
X0140750Y0063940D01*
X0140123Y0062342D02*
X0156800Y0062342D01*
X0156800Y0060743D02*
X0138875Y0060743D01*
X0138987Y0059145D02*
X0156800Y0059145D01*
X0156800Y0057546D02*
X0140169Y0057546D01*
X0140750Y0055948D02*
X0156800Y0055948D01*
X0156800Y0054349D02*
X0140750Y0054349D01*
X0140292Y0052751D02*
X0156800Y0052751D01*
X0156800Y0051152D02*
X0139284Y0051152D01*
X0138578Y0049554D02*
X0156800Y0049554D01*
X0156800Y0047955D02*
X0140000Y0047955D01*
X0140662Y0046357D02*
X0156800Y0046357D01*
X0156800Y0044758D02*
X0140750Y0044758D01*
X0140462Y0043160D02*
X0156800Y0043160D01*
X0156800Y0041561D02*
X0139693Y0041561D01*
X0138044Y0039963D02*
X0156800Y0039963D01*
X0156800Y0038364D02*
X0139767Y0038364D01*
X0140492Y0036766D02*
X0156800Y0036766D01*
X0156800Y0035167D02*
X0140750Y0035167D01*
X0140631Y0033569D02*
X0156800Y0033569D01*
X0156800Y0031970D02*
X0139969Y0031970D01*
X0138503Y0030372D02*
X0156800Y0030372D01*
X0156800Y0028773D02*
X0139359Y0028773D01*
X0140323Y0027175D02*
X0156800Y0027175D01*
X0156800Y0025576D02*
X0140750Y0025576D01*
X0140750Y0023978D02*
X0156800Y0023978D01*
X0156800Y0022379D02*
X0140138Y0022379D01*
X0138912Y0020781D02*
X0156800Y0020781D01*
X0156800Y0019182D02*
X0153133Y0019182D01*
X0156053Y0017584D02*
X0156800Y0017584D01*
X0146867Y0019182D02*
X0138950Y0019182D01*
X0140154Y0017584D02*
X0143947Y0017584D01*
X0145075Y0018530D02*
X0145075Y0018530D01*
X0142455Y0016331D02*
X0142455Y0016331D01*
X0142455Y0016331D01*
X0142255Y0015985D02*
X0140750Y0015985D01*
X0140750Y0014387D02*
X0141332Y0014387D01*
X0140642Y0012788D02*
X0140308Y0012788D01*
X0140360Y0011190D02*
X0139321Y0011190D01*
X0140150Y0010000D02*
X0140150Y0010000D01*
X0140222Y0009591D02*
X0136967Y0009591D01*
X0133033Y0009591D02*
X0126183Y0009591D01*
X0123817Y0009591D02*
X0122400Y0009591D01*
X0121680Y0007993D02*
X0140504Y0007993D01*
X0140744Y0006631D02*
X0140744Y0006631D01*
X0140881Y0006394D02*
X0120880Y0006394D01*
X0120081Y0004796D02*
X0141804Y0004796D01*
X0142455Y0003669D02*
X0142455Y0003669D01*
X0130679Y0011190D02*
X0128897Y0011190D01*
X0104500Y0033536D02*
X0104500Y0054964D01*
X0098237Y0061227D01*
X0097662Y0061803D01*
X0097003Y0061028D01*
X0097927Y0061028D01*
X0099098Y0059856D01*
X0099098Y0056115D01*
X0099994Y0055000D01*
X0100796Y0055000D01*
X0102266Y0054391D01*
X0103391Y0053266D01*
X0104000Y0051796D01*
X0104000Y0050204D01*
X0103391Y0048734D01*
X0102266Y0047609D01*
X0100796Y0047000D01*
X0099204Y0047000D01*
X0099098Y0047044D01*
X0099098Y0044105D01*
X0098164Y0043170D01*
X0098866Y0042660D01*
X0099526Y0041999D01*
X0100075Y0041244D01*
X0100499Y0040412D01*
X0100788Y0039523D01*
X0100934Y0038601D01*
X0100934Y0034578D01*
X0095578Y0034578D01*
X0095578Y0033422D01*
X0100934Y0033422D01*
X0100934Y0029969D01*
X0104500Y0033536D01*
X0104500Y0033569D02*
X0095578Y0033569D01*
X0095578Y0033422D02*
X0095578Y0027000D01*
X0094422Y0027000D01*
X0094422Y0033422D01*
X0095578Y0033422D01*
X0095000Y0034000D02*
X0097000Y0035000D01*
X0104000Y0042000D01*
X0104000Y0055000D01*
X0101000Y0057000D01*
X0101918Y0057546D02*
X0099098Y0057546D01*
X0099098Y0059145D02*
X0100320Y0059145D01*
X0098721Y0060743D02*
X0098211Y0060743D01*
X0094000Y0065000D02*
X0088260Y0059260D01*
X0088260Y0057079D01*
X0088260Y0057079D01*
X0085102Y0057079D01*
X0085102Y0058664D01*
X0083536Y0059312D01*
X0083002Y0059846D01*
X0082766Y0059609D01*
X0082200Y0059375D01*
X0082098Y0058950D01*
X0082098Y0056000D01*
X0085102Y0056000D01*
X0085102Y0057079D01*
X0088260Y0057079D01*
X0085102Y0057546D02*
X0082098Y0057546D01*
X0082145Y0059145D02*
X0083940Y0059145D01*
X0090350Y0062342D02*
X0091559Y0062342D01*
X0090974Y0063940D02*
X0092917Y0063940D01*
X0094000Y0065000D02*
X0094000Y0067000D01*
X0094276Y0065539D02*
X0091661Y0065539D01*
X0091661Y0067137D02*
X0095634Y0067137D01*
X0095685Y0068736D02*
X0091661Y0068736D01*
X0091661Y0070334D02*
X0098130Y0070334D01*
X0093531Y0071933D02*
X0091661Y0071933D01*
X0091502Y0073532D02*
X0091933Y0073532D01*
X0090334Y0075130D02*
X0082531Y0075130D01*
X0082531Y0076729D02*
X0088736Y0076729D01*
X0087137Y0078327D02*
X0082531Y0078327D01*
X0082531Y0079926D02*
X0085539Y0079926D01*
X0083940Y0081524D02*
X0082531Y0081524D01*
X0082830Y0083123D02*
X0081568Y0083123D01*
X0087814Y0084721D02*
X0109550Y0084721D01*
X0109648Y0086320D02*
X0087795Y0086320D01*
X0087795Y0087918D02*
X0110310Y0087918D01*
X0111809Y0089517D02*
X0087795Y0089517D01*
X0087795Y0091115D02*
X0111460Y0091115D01*
X0110273Y0092714D02*
X0087795Y0092714D01*
X0087795Y0094312D02*
X0109793Y0094312D01*
X0109829Y0095911D02*
X0087795Y0095911D01*
X0087795Y0097509D02*
X0110386Y0097509D01*
X0111722Y0099108D02*
X0090056Y0099108D01*
X0087944Y0099108D02*
X0087795Y0099108D01*
X0092363Y0100706D02*
X0111586Y0100706D01*
X0110217Y0102305D02*
X0093000Y0102305D01*
X0092955Y0103903D02*
X0109555Y0103903D01*
X0109550Y0105502D02*
X0092155Y0105502D01*
X0092126Y0107100D02*
X0096962Y0107100D01*
X0099038Y0107100D02*
X0109971Y0107100D01*
X0110991Y0108699D02*
X0101356Y0108699D01*
X0102000Y0110297D02*
X0112112Y0110297D01*
X0110397Y0111896D02*
X0101959Y0111896D01*
X0101163Y0113494D02*
X0109725Y0113494D01*
X0109550Y0115093D02*
X0105941Y0115093D01*
X0106193Y0116691D02*
X0109802Y0116691D01*
X0110582Y0118290D02*
X0106193Y0118290D01*
X0106193Y0119888D02*
X0112560Y0119888D01*
X0110806Y0121487D02*
X0106193Y0121487D01*
X0106015Y0123085D02*
X0109894Y0123085D01*
X0109550Y0124684D02*
X0087881Y0124684D01*
X0082710Y0124684D02*
X0056407Y0124684D01*
X0054809Y0126282D02*
X0101196Y0126282D01*
X0101172Y0126369D02*
X0101295Y0125912D01*
X0101532Y0125501D01*
X0101867Y0125166D01*
X0102278Y0124929D01*
X0102735Y0124806D01*
X0105150Y0124806D01*
X0105150Y0129768D01*
X0106306Y0129768D01*
X0106306Y0130924D01*
X0105150Y0130924D01*
X0105150Y0129768D01*
X0101172Y0129768D01*
X0101172Y0126369D01*
X0101172Y0127881D02*
X0053210Y0127881D01*
X0053379Y0128743D02*
X0053379Y0133705D01*
X0049401Y0133705D01*
X0049401Y0130306D01*
X0049523Y0129849D01*
X0049760Y0129438D01*
X0050096Y0129103D01*
X0050506Y0128866D01*
X0050964Y0128743D01*
X0053379Y0128743D01*
X0053379Y0129479D02*
X0054535Y0129479D01*
X0054535Y0131078D02*
X0053379Y0131078D01*
X0053379Y0132676D02*
X0054535Y0132676D01*
X0054535Y0134275D02*
X0101172Y0134275D01*
X0101172Y0134324D02*
X0101172Y0130924D01*
X0105150Y0130924D01*
X0105150Y0135887D01*
X0102735Y0135887D01*
X0102278Y0135764D01*
X0101867Y0135527D01*
X0101532Y0135192D01*
X0101295Y0134781D01*
X0101172Y0134324D01*
X0101172Y0132676D02*
X0058513Y0132676D01*
X0058513Y0131078D02*
X0101172Y0131078D01*
X0101172Y0129479D02*
X0058177Y0129479D01*
X0053957Y0134283D02*
X0092717Y0134283D01*
X0095000Y0132000D01*
X0096000Y0133000D01*
X0105382Y0133000D01*
X0105728Y0130346D01*
X0105150Y0131078D02*
X0106306Y0131078D01*
X0106306Y0132676D02*
X0105150Y0132676D01*
X0105150Y0134275D02*
X0106306Y0134275D01*
X0106306Y0135873D02*
X0105150Y0135873D01*
X0102686Y0135873D02*
X0058513Y0135873D01*
X0053379Y0134275D02*
X0018732Y0134275D01*
X0019256Y0133369D02*
X0019256Y0133369D01*
X0019378Y0132676D02*
X0049401Y0132676D01*
X0049401Y0131078D02*
X0019660Y0131078D01*
X0019850Y0130000D02*
X0019850Y0130000D01*
X0019758Y0129479D02*
X0021348Y0129479D01*
X0019970Y0127881D02*
X0019476Y0127881D01*
X0019256Y0126631D02*
X0019256Y0126631D01*
X0019307Y0126282D02*
X0019054Y0126282D01*
X0019250Y0124684D02*
X0018131Y0124684D01*
X0017545Y0123669D02*
X0017545Y0123669D01*
X0017545Y0123669D01*
X0016850Y0123085D02*
X0019569Y0123085D01*
X0020381Y0121487D02*
X0014945Y0121487D01*
X0014925Y0121470D02*
X0014925Y0121470D01*
X0020158Y0118290D02*
X0003200Y0118290D01*
X0003200Y0119888D02*
X0021776Y0119888D01*
X0019477Y0116691D02*
X0003200Y0116691D01*
X0003200Y0115093D02*
X0019250Y0115093D01*
X0019400Y0113494D02*
X0003200Y0113494D01*
X0003200Y0111896D02*
X0020062Y0111896D01*
X0021571Y0110297D02*
X0003200Y0110297D01*
X0003200Y0108699D02*
X0020567Y0108699D01*
X0019646Y0107100D02*
X0003200Y0107100D01*
X0003200Y0105502D02*
X0019250Y0105502D01*
X0019250Y0103903D02*
X0003200Y0103903D01*
X0003200Y0102305D02*
X0019893Y0102305D01*
X0021162Y0100706D02*
X0003200Y0100706D01*
X0003200Y0099108D02*
X0020976Y0099108D01*
X0019816Y0097509D02*
X0003200Y0097509D01*
X0003200Y0095911D02*
X0019250Y0095911D01*
X0019250Y0094312D02*
X0003200Y0094312D01*
X0003200Y0092714D02*
X0019723Y0092714D01*
X0020753Y0091115D02*
X0003200Y0091115D01*
X0003200Y0089517D02*
X0021385Y0089517D01*
X0019985Y0087918D02*
X0003200Y0087918D01*
X0003200Y0086320D02*
X0019323Y0086320D01*
X0019250Y0084721D02*
X0003200Y0084721D01*
X0003200Y0083123D02*
X0019554Y0083123D01*
X0020344Y0081524D02*
X0003200Y0081524D01*
X0003200Y0079926D02*
X0021866Y0079926D01*
X0020195Y0078327D02*
X0003200Y0078327D01*
X0003200Y0076729D02*
X0019492Y0076729D01*
X0019250Y0075130D02*
X0003200Y0075130D01*
X0003200Y0073532D02*
X0019384Y0073532D01*
X0020047Y0071933D02*
X0003200Y0071933D01*
X0003200Y0070334D02*
X0021534Y0070334D01*
X0020604Y0068736D02*
X0003200Y0068736D01*
X0003200Y0067137D02*
X0019662Y0067137D01*
X0019250Y0065539D02*
X0003200Y0065539D01*
X0003200Y0063940D02*
X0019250Y0063940D01*
X0019877Y0062342D02*
X0003200Y0062342D01*
X0003200Y0060743D02*
X0021125Y0060743D01*
X0021013Y0059145D02*
X0003200Y0059145D01*
X0003200Y0057546D02*
X0019831Y0057546D01*
X0019250Y0055948D02*
X0003200Y0055948D01*
X0003200Y0054349D02*
X0019250Y0054349D01*
X0019708Y0052751D02*
X0003200Y0052751D01*
X0003200Y0051152D02*
X0020716Y0051152D01*
X0021422Y0049554D02*
X0003200Y0049554D01*
X0003200Y0047955D02*
X0020000Y0047955D01*
X0019338Y0046357D02*
X0003200Y0046357D01*
X0003200Y0044758D02*
X0019250Y0044758D01*
X0019538Y0043160D02*
X0003200Y0043160D01*
X0003200Y0041561D02*
X0020307Y0041561D01*
X0021956Y0039963D02*
X0003200Y0039963D01*
X0003200Y0038364D02*
X0020233Y0038364D01*
X0019508Y0036766D02*
X0003200Y0036766D01*
X0003200Y0035167D02*
X0019250Y0035167D01*
X0019369Y0033569D02*
X0003200Y0033569D01*
X0003200Y0031970D02*
X0020031Y0031970D01*
X0021497Y0030372D02*
X0003200Y0030372D01*
X0003200Y0028773D02*
X0020641Y0028773D01*
X0019677Y0027175D02*
X0003200Y0027175D01*
X0003200Y0025576D02*
X0019250Y0025576D01*
X0019250Y0023978D02*
X0003200Y0023978D01*
X0003200Y0022379D02*
X0019862Y0022379D01*
X0021088Y0020781D02*
X0003200Y0020781D01*
X0003200Y0019182D02*
X0006867Y0019182D01*
X0005075Y0018530D02*
X0005075Y0018530D01*
X0003947Y0017584D02*
X0003200Y0017584D01*
X0013133Y0019182D02*
X0021050Y0019182D01*
X0019846Y0017584D02*
X0016053Y0017584D01*
X0014925Y0018530D02*
X0014925Y0018530D01*
X0017545Y0016331D02*
X0017545Y0016331D01*
X0017745Y0015985D02*
X0019250Y0015985D01*
X0019250Y0014387D02*
X0018668Y0014387D01*
X0019256Y0013369D02*
X0019256Y0013369D01*
X0019358Y0012788D02*
X0019692Y0012788D01*
X0019640Y0011190D02*
X0020679Y0011190D01*
X0019850Y0010000D02*
X0019850Y0010000D01*
X0019778Y0009591D02*
X0023033Y0009591D01*
X0026967Y0009591D02*
X0033817Y0009591D01*
X0036183Y0009591D02*
X0043541Y0009591D01*
X0046321Y0009648D02*
X0048087Y0010380D01*
X0049620Y0011913D01*
X0050450Y0013916D01*
X0050450Y0016084D01*
X0049620Y0018087D01*
X0048087Y0019620D01*
X0047170Y0020000D01*
X0048087Y0020380D01*
X0049620Y0021913D01*
X0050450Y0023916D01*
X0050450Y0026084D01*
X0049620Y0028087D01*
X0048087Y0029620D01*
X0047170Y0030000D01*
X0048087Y0030380D01*
X0049620Y0031913D01*
X0050450Y0033916D01*
X0050450Y0036084D01*
X0049620Y0038087D01*
X0048087Y0039620D01*
X0047170Y0040000D01*
X0048087Y0040380D01*
X0049620Y0041913D01*
X0050450Y0043916D01*
X0050450Y0046084D01*
X0049620Y0048087D01*
X0048087Y0049620D01*
X0047170Y0050000D01*
X0048087Y0050380D01*
X0049620Y0051913D01*
X0050450Y0053916D01*
X0050450Y0056084D01*
X0049620Y0058087D01*
X0048087Y0059620D01*
X0047170Y0060000D01*
X0048087Y0060380D01*
X0049620Y0061913D01*
X0050450Y0063916D01*
X0050450Y0066084D01*
X0049620Y0068087D01*
X0048087Y0069620D01*
X0047170Y0070000D01*
X0048087Y0070380D01*
X0049620Y0071913D01*
X0050450Y0073916D01*
X0050450Y0076084D01*
X0049620Y0078087D01*
X0048087Y0079620D01*
X0047170Y0080000D01*
X0048087Y0080380D01*
X0049620Y0081913D01*
X0050450Y0083916D01*
X0050450Y0086084D01*
X0049620Y0088087D01*
X0048087Y0089620D01*
X0047170Y0090000D01*
X0048087Y0090380D01*
X0049620Y0091913D01*
X0050450Y0093916D01*
X0050450Y0096084D01*
X0049620Y0098087D01*
X0048087Y0099620D01*
X0047170Y0100000D01*
X0048087Y0100380D01*
X0049620Y0101913D01*
X0050450Y0103916D01*
X0050450Y0106084D01*
X0049620Y0108087D01*
X0048087Y0109620D01*
X0047170Y0110000D01*
X0048087Y0110380D01*
X0049620Y0111913D01*
X0050450Y0113916D01*
X0050450Y0116084D01*
X0049620Y0118087D01*
X0048087Y0119620D01*
X0047170Y0120000D01*
X0048087Y0120380D01*
X0049107Y0121400D01*
X0049509Y0121400D01*
X0052054Y0118855D01*
X0052054Y0074740D01*
X0051094Y0073781D01*
X0051094Y0066219D01*
X0052054Y0065260D01*
X0052054Y0064362D01*
X0051488Y0063797D01*
X0051488Y0058203D01*
X0052054Y0057638D01*
X0052054Y0046874D01*
X0051244Y0046065D01*
X0051244Y0038896D01*
X0052416Y0037724D01*
X0058866Y0037724D01*
X0058866Y0032276D01*
X0052416Y0032276D01*
X0051244Y0031104D01*
X0051244Y0023935D01*
X0052416Y0022764D01*
X0059584Y0022764D01*
X0060756Y0023935D01*
X0060756Y0024703D01*
X0060914Y0024702D01*
X0060916Y0024702D01*
X0061471Y0024700D01*
X0061492Y0024700D01*
X0061525Y0024666D01*
X0063780Y0023732D01*
X0066220Y0023732D01*
X0068475Y0024666D01*
X0070000Y0026192D01*
X0071525Y0024666D01*
X0073780Y0023732D01*
X0074973Y0023732D01*
X0074885Y0023402D01*
X0074885Y0021184D01*
X0078469Y0021184D01*
X0078469Y0020816D01*
X0074885Y0020816D01*
X0074885Y0020400D01*
X0071323Y0020400D01*
X0070441Y0020035D01*
X0069765Y0019359D01*
X0069400Y0018477D01*
X0069400Y0003200D01*
X0049450Y0003200D01*
X0049800Y0004045D01*
X0049800Y0005955D01*
X0049069Y0007719D01*
X0047719Y0009069D01*
X0046321Y0009648D01*
X0046459Y0009591D02*
X0069400Y0009591D01*
X0069400Y0007993D02*
X0048796Y0007993D01*
X0049618Y0006394D02*
X0069400Y0006394D01*
X0069400Y0004796D02*
X0049800Y0004796D01*
X0048897Y0011190D02*
X0069400Y0011190D01*
X0069400Y0012788D02*
X0049983Y0012788D01*
X0050450Y0014387D02*
X0069400Y0014387D01*
X0069400Y0015985D02*
X0050450Y0015985D01*
X0049829Y0017584D02*
X0069400Y0017584D01*
X0069692Y0019182D02*
X0048525Y0019182D01*
X0048488Y0020781D02*
X0074885Y0020781D01*
X0074885Y0022379D02*
X0049813Y0022379D01*
X0050450Y0023978D02*
X0051244Y0023978D01*
X0051244Y0025576D02*
X0050450Y0025576D01*
X0049998Y0027175D02*
X0051244Y0027175D01*
X0051244Y0028773D02*
X0048934Y0028773D01*
X0048068Y0030372D02*
X0051244Y0030372D01*
X0052110Y0031970D02*
X0049644Y0031970D01*
X0050306Y0033569D02*
X0058866Y0033569D01*
X0058866Y0035167D02*
X0050450Y0035167D01*
X0050168Y0036766D02*
X0058866Y0036766D01*
X0051776Y0038364D02*
X0049343Y0038364D01*
X0051244Y0039963D02*
X0047260Y0039963D01*
X0049269Y0041561D02*
X0051244Y0041561D01*
X0051244Y0043160D02*
X0050137Y0043160D01*
X0050450Y0044758D02*
X0051244Y0044758D01*
X0051536Y0046357D02*
X0050337Y0046357D01*
X0049675Y0047955D02*
X0052054Y0047955D01*
X0052054Y0049554D02*
X0048154Y0049554D01*
X0048860Y0051152D02*
X0052054Y0051152D01*
X0052054Y0052751D02*
X0049967Y0052751D01*
X0050450Y0054349D02*
X0052054Y0054349D01*
X0052054Y0055948D02*
X0050450Y0055948D01*
X0049844Y0057546D02*
X0052054Y0057546D01*
X0051488Y0059145D02*
X0048563Y0059145D01*
X0048451Y0060743D02*
X0051488Y0060743D01*
X0051488Y0062342D02*
X0049798Y0062342D01*
X0050450Y0063940D02*
X0051632Y0063940D01*
X0051774Y0065539D02*
X0050450Y0065539D01*
X0050014Y0067137D02*
X0051094Y0067137D01*
X0051094Y0068736D02*
X0048971Y0068736D01*
X0047978Y0070334D02*
X0051094Y0070334D01*
X0051094Y0071933D02*
X0049629Y0071933D01*
X0050291Y0073532D02*
X0051094Y0073532D01*
X0050450Y0075130D02*
X0052054Y0075130D01*
X0052054Y0076729D02*
X0050183Y0076729D01*
X0049380Y0078327D02*
X0052054Y0078327D01*
X0052054Y0079926D02*
X0047350Y0079926D01*
X0049232Y0081524D02*
X0052054Y0081524D01*
X0052054Y0083123D02*
X0050121Y0083123D01*
X0050450Y0084721D02*
X0052054Y0084721D01*
X0052054Y0086320D02*
X0050352Y0086320D01*
X0049690Y0087918D02*
X0052054Y0087918D01*
X0052054Y0089517D02*
X0048191Y0089517D01*
X0048823Y0091115D02*
X0052054Y0091115D01*
X0052054Y0092714D02*
X0049952Y0092714D01*
X0050450Y0094312D02*
X0052054Y0094312D01*
X0052054Y0095911D02*
X0050450Y0095911D01*
X0049860Y0097509D02*
X0052054Y0097509D01*
X0052054Y0099108D02*
X0048600Y0099108D01*
X0048414Y0100706D02*
X0052054Y0100706D01*
X0052054Y0102305D02*
X0049783Y0102305D01*
X0050445Y0103903D02*
X0052054Y0103903D01*
X0052054Y0105502D02*
X0050450Y0105502D01*
X0050029Y0107100D02*
X0052054Y0107100D01*
X0052054Y0108699D02*
X0049009Y0108699D01*
X0047888Y0110297D02*
X0052054Y0110297D01*
X0052054Y0111896D02*
X0049603Y0111896D01*
X0050275Y0113494D02*
X0052054Y0113494D01*
X0052054Y0115093D02*
X0050450Y0115093D01*
X0050198Y0116691D02*
X0052054Y0116691D01*
X0052054Y0118290D02*
X0049418Y0118290D01*
X0051020Y0119888D02*
X0047440Y0119888D01*
X0058006Y0123085D02*
X0068907Y0123085D01*
X0068728Y0121487D02*
X0059078Y0121487D01*
X0059254Y0119888D02*
X0068728Y0119888D01*
X0068728Y0118290D02*
X0059254Y0118290D01*
X0059254Y0116691D02*
X0068728Y0116691D01*
X0068980Y0115093D02*
X0059254Y0115093D01*
X0059254Y0113494D02*
X0073335Y0113494D01*
X0074134Y0111896D02*
X0059254Y0111896D01*
X0059254Y0110297D02*
X0074134Y0110297D01*
X0074134Y0108699D02*
X0059254Y0108699D01*
X0059254Y0107100D02*
X0074134Y0107100D01*
X0074134Y0105502D02*
X0059254Y0105502D01*
X0059254Y0103903D02*
X0074134Y0103903D01*
X0074134Y0102305D02*
X0059254Y0102305D01*
X0059254Y0100706D02*
X0074134Y0100706D01*
X0074134Y0099108D02*
X0059254Y0099108D01*
X0059254Y0097509D02*
X0072852Y0097509D01*
X0072048Y0095911D02*
X0059254Y0095911D01*
X0059254Y0094312D02*
X0072000Y0094312D01*
X0072629Y0092714D02*
X0059254Y0092714D01*
X0076000Y0095000D02*
X0076634Y0095634D01*
X0079148Y0097509D02*
X0082795Y0097509D01*
X0082795Y0095911D02*
X0079952Y0095911D01*
X0080000Y0094312D02*
X0082795Y0094312D01*
X0082795Y0092714D02*
X0079371Y0092714D01*
X0079134Y0099108D02*
X0082795Y0099108D01*
X0082795Y0100706D02*
X0079134Y0100706D01*
X0079134Y0102305D02*
X0082795Y0102305D01*
X0082795Y0103903D02*
X0079134Y0103903D01*
X0079134Y0105502D02*
X0082795Y0105502D01*
X0082795Y0107100D02*
X0079134Y0107100D01*
X0079134Y0108699D02*
X0082644Y0108699D01*
X0086000Y0111000D02*
X0085295Y0114705D01*
X0085295Y0119913D01*
X0077568Y0123085D02*
X0075700Y0123085D01*
X0092126Y0113494D02*
X0094837Y0113494D01*
X0094965Y0115093D02*
X0092949Y0115093D01*
X0093957Y0115161D02*
X0093957Y0119913D01*
X0093957Y0115161D01*
X0093957Y0116691D02*
X0093957Y0116691D01*
X0093957Y0118290D02*
X0093957Y0118290D01*
X0093957Y0119888D02*
X0093957Y0119888D01*
X0093957Y0119913D02*
X0093957Y0119913D01*
X0093957Y0130957D01*
X0095000Y0132000D01*
X0093957Y0123085D02*
X0093957Y0123085D01*
X0093957Y0121487D02*
X0093957Y0121487D01*
X0093957Y0119913D02*
X0093957Y0097043D01*
X0095000Y0095000D01*
X0088500Y0091000D01*
X0095000Y0095000D02*
X0115000Y0095000D01*
X0115200Y0095200D02*
X0120250Y0095200D01*
X0124800Y0095200D01*
X0124800Y0094800D01*
X0115200Y0094800D01*
X0115200Y0095200D01*
X0125200Y0095200D02*
X0129450Y0095200D01*
X0129450Y0095190D01*
X0134800Y0095200D01*
X0134800Y0094800D01*
X0130250Y0094792D01*
X0130250Y0094800D01*
X0125200Y0094800D01*
X0125200Y0095200D01*
X0109879Y0083123D02*
X0104009Y0083123D01*
X0104972Y0081524D02*
X0110768Y0081524D01*
X0112650Y0079926D02*
X0104972Y0079926D01*
X0104972Y0078327D02*
X0110620Y0078327D01*
X0109817Y0076729D02*
X0104972Y0076729D01*
X0104972Y0075130D02*
X0109550Y0075130D01*
X0109709Y0073532D02*
X0102004Y0073532D01*
X0103603Y0071933D02*
X0110371Y0071933D01*
X0112022Y0070334D02*
X0105153Y0070334D01*
X0110315Y0068736D02*
X0111029Y0068736D01*
X0103517Y0055948D02*
X0099233Y0055948D01*
X0102307Y0054349D02*
X0104500Y0054349D01*
X0104500Y0052751D02*
X0103604Y0052751D01*
X0104000Y0051152D02*
X0104500Y0051152D01*
X0104500Y0049554D02*
X0103731Y0049554D01*
X0104500Y0047955D02*
X0102612Y0047955D01*
X0104500Y0046357D02*
X0099098Y0046357D01*
X0099098Y0044758D02*
X0104500Y0044758D01*
X0104500Y0043160D02*
X0098178Y0043160D01*
X0099844Y0041561D02*
X0104500Y0041561D01*
X0104500Y0039963D02*
X0100645Y0039963D01*
X0100934Y0038364D02*
X0104500Y0038364D01*
X0104500Y0036766D02*
X0100934Y0036766D01*
X0100934Y0035167D02*
X0104500Y0035167D01*
X0102935Y0031970D02*
X0100934Y0031970D01*
X0100934Y0030372D02*
X0101336Y0030372D01*
X0095578Y0030372D02*
X0094422Y0030372D01*
X0094422Y0031970D02*
X0095578Y0031970D01*
X0095578Y0028773D02*
X0094422Y0028773D01*
X0094422Y0027175D02*
X0095578Y0027175D01*
X0081393Y0024799D02*
X0081317Y0024843D01*
X0080859Y0024965D01*
X0078838Y0024965D01*
X0078838Y0021184D01*
X0078469Y0021184D01*
X0078469Y0024664D01*
X0078475Y0024666D01*
X0080000Y0026192D01*
X0081393Y0024799D01*
X0080615Y0025576D02*
X0079385Y0025576D01*
X0078838Y0023978D02*
X0078469Y0023978D01*
X0078469Y0022379D02*
X0078838Y0022379D01*
X0073187Y0023978D02*
X0066813Y0023978D01*
X0069385Y0025576D02*
X0070615Y0025576D01*
X0065000Y0031000D02*
X0061480Y0027500D01*
X0056000Y0027520D01*
X0060756Y0023978D02*
X0063187Y0023978D01*
X0065000Y0031000D02*
X0065000Y0034000D01*
X0056000Y0043000D02*
X0055654Y0043654D01*
X0059254Y0047955D02*
X0060627Y0047955D01*
X0059254Y0049554D02*
X0062402Y0049554D01*
X0064193Y0051152D02*
X0059254Y0051152D01*
X0059254Y0052751D02*
X0065791Y0052751D01*
X0067500Y0050500D02*
X0065000Y0048000D01*
X0065000Y0046000D01*
X0067500Y0050500D02*
X0074622Y0050500D01*
X0078740Y0046882D01*
X0082858Y0050500D01*
X0092000Y0050500D01*
X0095740Y0046260D01*
X0095740Y0046882D01*
X0076500Y0062342D02*
X0066312Y0062342D01*
X0066312Y0060743D02*
X0069351Y0060743D01*
X0071260Y0060743D02*
X0071260Y0060743D01*
X0071260Y0059145D02*
X0071260Y0059145D01*
X0071260Y0057546D02*
X0071260Y0057546D01*
X0071260Y0057079D02*
X0071260Y0057079D01*
X0071260Y0057079D01*
X0068102Y0057079D01*
X0068102Y0054893D01*
X0068224Y0054435D01*
X0068461Y0054025D01*
X0068796Y0053690D01*
X0069207Y0053453D01*
X0069665Y0053330D01*
X0071260Y0053330D01*
X0071260Y0057079D01*
X0071260Y0055948D02*
X0071260Y0055948D01*
X0071260Y0054349D02*
X0071260Y0054349D01*
X0068274Y0054349D02*
X0059254Y0054349D01*
X0059254Y0055948D02*
X0068102Y0055948D01*
X0068102Y0057546D02*
X0065540Y0057546D01*
X0066312Y0059145D02*
X0068102Y0059145D01*
X0066029Y0063940D02*
X0071365Y0063940D01*
X0070539Y0065539D02*
X0065893Y0065539D01*
X0066705Y0067137D02*
X0070539Y0067137D01*
X0070539Y0070334D02*
X0062826Y0070334D01*
X0062826Y0070480D02*
X0066705Y0070480D01*
X0066705Y0073190D01*
X0066583Y0073648D01*
X0066346Y0074058D01*
X0066011Y0074393D01*
X0065600Y0074630D01*
X0065142Y0074753D01*
X0062826Y0074753D01*
X0062826Y0070480D01*
X0061867Y0070480D01*
X0061867Y0074753D01*
X0059550Y0074753D01*
X0059306Y0074687D01*
X0059254Y0074740D01*
X0061867Y0073532D02*
X0062826Y0073532D01*
X0062826Y0071933D02*
X0061867Y0071933D01*
X0062826Y0070480D02*
X0062826Y0069520D01*
X0066705Y0069520D01*
X0066705Y0071933D02*
X0070539Y0071933D01*
X0070831Y0073532D02*
X0066614Y0073532D01*
X0062826Y0068736D02*
X0061867Y0068736D01*
X0061867Y0067137D02*
X0062826Y0067137D01*
X0062826Y0065539D02*
X0061867Y0065539D01*
X0062162Y0063940D02*
X0062531Y0063940D01*
X0062531Y0062342D02*
X0062162Y0062342D01*
X0062162Y0060743D02*
X0062531Y0060743D01*
X0062531Y0059145D02*
X0062162Y0059145D01*
X0062162Y0057546D02*
X0062531Y0057546D01*
X0074713Y0063940D02*
X0076263Y0063940D01*
X0076263Y0065539D02*
X0074713Y0065539D01*
X0074713Y0067137D02*
X0076263Y0067137D01*
X0076263Y0068736D02*
X0081362Y0068736D01*
X0081362Y0070334D02*
X0080438Y0070334D01*
X0080438Y0071933D02*
X0081362Y0071933D01*
X0081522Y0073532D02*
X0080146Y0073532D01*
X0086512Y0069000D02*
X0086000Y0066512D01*
X0081362Y0067137D02*
X0080438Y0067137D01*
X0092610Y0079926D02*
X0093886Y0079926D01*
X0093886Y0081524D02*
X0091011Y0081524D01*
X0089413Y0083123D02*
X0094849Y0083123D01*
X0094644Y0108699D02*
X0092126Y0108699D01*
X0092126Y0110297D02*
X0094000Y0110297D01*
X0094041Y0111896D02*
X0092126Y0111896D01*
X0105150Y0126282D02*
X0106306Y0126282D01*
X0106306Y0127881D02*
X0105150Y0127881D01*
X0105150Y0129479D02*
X0106306Y0129479D01*
X0110284Y0127881D02*
X0110294Y0127881D01*
X0110284Y0132676D02*
X0140622Y0132676D01*
X0141268Y0134275D02*
X0110284Y0134275D01*
X0108770Y0135873D02*
X0142190Y0135873D01*
X0142455Y0136331D02*
X0142455Y0136331D01*
X0142455Y0136331D01*
X0131348Y0129479D02*
X0128228Y0129479D01*
X0129706Y0127881D02*
X0129970Y0127881D01*
X0154925Y0121470D02*
X0154925Y0121470D01*
X0154945Y0121487D02*
X0156800Y0121487D01*
X0049737Y0129479D02*
X0048228Y0129479D01*
X0041772Y0129479D02*
X0038228Y0129479D01*
X0031772Y0129479D02*
X0028652Y0129479D01*
X0030030Y0127881D02*
X0030294Y0127881D01*
X0017810Y0135873D02*
X0049401Y0135873D01*
X0005055Y0121487D02*
X0003200Y0121487D01*
X0029321Y0011190D02*
X0031103Y0011190D01*
X0038897Y0011190D02*
X0041103Y0011190D01*
X0040017Y0012788D02*
X0039983Y0012788D01*
X0041204Y0007993D02*
X0019496Y0007993D01*
X0019256Y0006631D02*
X0019256Y0006631D01*
X0019119Y0006394D02*
X0040382Y0006394D01*
X0040200Y0004796D02*
X0018196Y0004796D01*
X0017545Y0003669D02*
X0017545Y0003669D01*
X0017545Y0003669D01*
D25*
X0080500Y0063000D03*
X0100000Y0051000D03*
X0088500Y0091000D03*
X0081500Y0091000D03*
X0076000Y0095000D03*
X0089000Y0103000D03*
X0086000Y0111000D03*
X0081000Y0113000D03*
X0098000Y0111000D03*
D26*
X0098000Y0118839D01*
X0098287Y0119126D01*
X0089626Y0119126D02*
X0089626Y0104626D01*
X0089000Y0103000D01*
X0081000Y0113000D02*
X0080965Y0117035D01*
X0080965Y0119126D01*
X0076634Y0117551D02*
X0076634Y0095634D01*
X0085295Y0083705D02*
X0095000Y0074000D01*
X0098000Y0074000D01*
X0103000Y0069000D01*
X0103000Y0063000D01*
X0109000Y0057000D01*
X0109000Y0031654D01*
X0098346Y0021000D01*
X0099000Y0024500D02*
X0107000Y0032500D01*
X0107000Y0056000D01*
X0099654Y0063346D01*
X0099654Y0066000D01*
X0097654Y0065654D01*
X0092000Y0059000D01*
X0092000Y0057079D01*
X0092000Y0054500D01*
X0091000Y0053500D01*
X0077000Y0053500D01*
X0075000Y0055000D01*
X0075000Y0057079D01*
X0078740Y0057079D02*
X0078819Y0056000D01*
X0080500Y0063000D01*
X0092000Y0057079D02*
X0092000Y0057000D01*
X0095740Y0057079D02*
X0095921Y0056079D01*
X0100000Y0051000D01*
X0088260Y0046882D02*
X0085000Y0042622D01*
X0085000Y0034000D01*
X0075000Y0034000D02*
X0075000Y0042142D01*
X0071260Y0046882D01*
X0095000Y0034000D02*
X0095000Y0031000D01*
X0088500Y0024500D01*
X0080500Y0024500D01*
X0078654Y0022654D01*
X0078654Y0021000D01*
X0085346Y0021000D02*
X0091654Y0021000D01*
X0091654Y0023346D01*
X0092807Y0024500D01*
X0099000Y0024500D01*
X0108000Y0065000D02*
X0125000Y0065000D01*
X0108000Y0065000D02*
X0106346Y0066000D01*
X0085295Y0083705D02*
X0085295Y0114705D01*
D27*
X0094000Y0067000D03*
X0086000Y0063000D03*
X0101000Y0057000D03*
X0065000Y0046000D03*
D28*
X0063000Y0044980D01*
X0056000Y0042480D01*
X0056000Y0043000D01*
X0055654Y0043654D02*
X0055654Y0061000D01*
X0055654Y0070000D01*
X0055654Y0120346D01*
X0051000Y0125000D01*
X0035000Y0125000D01*
X0086000Y0066512D02*
X0086000Y0063000D01*
M02*
