G75*
%MOIN*%
%OFA0B0*%
%FSLAX25Y25*%
%IPPOS*%
%LPD*%
%AMOC8*
5,1,8,0,0,1.08239X$1,22.5*
%
%ADD10C,0.00800*%
%ADD11C,0.01200*%
%ADD12C,0.00500*%
%ADD13C,0.01000*%
%ADD14C,0.00600*%
%ADD15C,0.03000*%
%ADD16C,0.01600*%
%ADD17R,0.03000X0.02000*%
%ADD18R,0.03000X0.04000*%
%ADD19C,0.00000*%
%ADD20C,0.00700*%
D10*
X0010000Y0000000D02*
X0150000Y0000000D01*
X0150242Y0000003D01*
X0150483Y0000012D01*
X0150724Y0000026D01*
X0150965Y0000047D01*
X0151205Y0000073D01*
X0151445Y0000105D01*
X0151684Y0000143D01*
X0151921Y0000186D01*
X0152158Y0000236D01*
X0152393Y0000291D01*
X0152627Y0000351D01*
X0152859Y0000418D01*
X0153090Y0000489D01*
X0153319Y0000567D01*
X0153546Y0000650D01*
X0153771Y0000738D01*
X0153994Y0000832D01*
X0154214Y0000931D01*
X0154432Y0001036D01*
X0154647Y0001145D01*
X0154860Y0001260D01*
X0155070Y0001380D01*
X0155276Y0001505D01*
X0155480Y0001635D01*
X0155681Y0001770D01*
X0155878Y0001910D01*
X0156072Y0002054D01*
X0156262Y0002203D01*
X0156448Y0002357D01*
X0156631Y0002515D01*
X0156810Y0002677D01*
X0156985Y0002844D01*
X0157156Y0003015D01*
X0157323Y0003190D01*
X0157485Y0003369D01*
X0157643Y0003552D01*
X0157797Y0003738D01*
X0157946Y0003928D01*
X0158090Y0004122D01*
X0158230Y0004319D01*
X0158365Y0004520D01*
X0158495Y0004724D01*
X0158620Y0004930D01*
X0158740Y0005140D01*
X0158855Y0005353D01*
X0158964Y0005568D01*
X0159069Y0005786D01*
X0159168Y0006006D01*
X0159262Y0006229D01*
X0159350Y0006454D01*
X0159433Y0006681D01*
X0159511Y0006910D01*
X0159582Y0007141D01*
X0159649Y0007373D01*
X0159709Y0007607D01*
X0159764Y0007842D01*
X0159814Y0008079D01*
X0159857Y0008316D01*
X0159895Y0008555D01*
X0159927Y0008795D01*
X0159953Y0009035D01*
X0159974Y0009276D01*
X0159988Y0009517D01*
X0159997Y0009758D01*
X0160000Y0010000D01*
X0160000Y0130000D01*
X0159997Y0130242D01*
X0159988Y0130483D01*
X0159974Y0130724D01*
X0159953Y0130965D01*
X0159927Y0131205D01*
X0159895Y0131445D01*
X0159857Y0131684D01*
X0159814Y0131921D01*
X0159764Y0132158D01*
X0159709Y0132393D01*
X0159649Y0132627D01*
X0159582Y0132859D01*
X0159511Y0133090D01*
X0159433Y0133319D01*
X0159350Y0133546D01*
X0159262Y0133771D01*
X0159168Y0133994D01*
X0159069Y0134214D01*
X0158964Y0134432D01*
X0158855Y0134647D01*
X0158740Y0134860D01*
X0158620Y0135070D01*
X0158495Y0135276D01*
X0158365Y0135480D01*
X0158230Y0135681D01*
X0158090Y0135878D01*
X0157946Y0136072D01*
X0157797Y0136262D01*
X0157643Y0136448D01*
X0157485Y0136631D01*
X0157323Y0136810D01*
X0157156Y0136985D01*
X0156985Y0137156D01*
X0156810Y0137323D01*
X0156631Y0137485D01*
X0156448Y0137643D01*
X0156262Y0137797D01*
X0156072Y0137946D01*
X0155878Y0138090D01*
X0155681Y0138230D01*
X0155480Y0138365D01*
X0155276Y0138495D01*
X0155070Y0138620D01*
X0154860Y0138740D01*
X0154647Y0138855D01*
X0154432Y0138964D01*
X0154214Y0139069D01*
X0153994Y0139168D01*
X0153771Y0139262D01*
X0153546Y0139350D01*
X0153319Y0139433D01*
X0153090Y0139511D01*
X0152859Y0139582D01*
X0152627Y0139649D01*
X0152393Y0139709D01*
X0152158Y0139764D01*
X0151921Y0139814D01*
X0151684Y0139857D01*
X0151445Y0139895D01*
X0151205Y0139927D01*
X0150965Y0139953D01*
X0150724Y0139974D01*
X0150483Y0139988D01*
X0150242Y0139997D01*
X0150000Y0140000D01*
X0010000Y0140000D01*
X0009758Y0139997D01*
X0009517Y0139988D01*
X0009276Y0139974D01*
X0009035Y0139953D01*
X0008795Y0139927D01*
X0008555Y0139895D01*
X0008316Y0139857D01*
X0008079Y0139814D01*
X0007842Y0139764D01*
X0007607Y0139709D01*
X0007373Y0139649D01*
X0007141Y0139582D01*
X0006910Y0139511D01*
X0006681Y0139433D01*
X0006454Y0139350D01*
X0006229Y0139262D01*
X0006006Y0139168D01*
X0005786Y0139069D01*
X0005568Y0138964D01*
X0005353Y0138855D01*
X0005140Y0138740D01*
X0004930Y0138620D01*
X0004724Y0138495D01*
X0004520Y0138365D01*
X0004319Y0138230D01*
X0004122Y0138090D01*
X0003928Y0137946D01*
X0003738Y0137797D01*
X0003552Y0137643D01*
X0003369Y0137485D01*
X0003190Y0137323D01*
X0003015Y0137156D01*
X0002844Y0136985D01*
X0002677Y0136810D01*
X0002515Y0136631D01*
X0002357Y0136448D01*
X0002203Y0136262D01*
X0002054Y0136072D01*
X0001910Y0135878D01*
X0001770Y0135681D01*
X0001635Y0135480D01*
X0001505Y0135276D01*
X0001380Y0135070D01*
X0001260Y0134860D01*
X0001145Y0134647D01*
X0001036Y0134432D01*
X0000931Y0134214D01*
X0000832Y0133994D01*
X0000738Y0133771D01*
X0000650Y0133546D01*
X0000567Y0133319D01*
X0000489Y0133090D01*
X0000418Y0132859D01*
X0000351Y0132627D01*
X0000291Y0132393D01*
X0000236Y0132158D01*
X0000186Y0131921D01*
X0000143Y0131684D01*
X0000105Y0131445D01*
X0000073Y0131205D01*
X0000047Y0130965D01*
X0000026Y0130724D01*
X0000012Y0130483D01*
X0000003Y0130242D01*
X0000000Y0130000D01*
X0000000Y0010000D01*
X0000003Y0009758D01*
X0000012Y0009517D01*
X0000026Y0009276D01*
X0000047Y0009035D01*
X0000073Y0008795D01*
X0000105Y0008555D01*
X0000143Y0008316D01*
X0000186Y0008079D01*
X0000236Y0007842D01*
X0000291Y0007607D01*
X0000351Y0007373D01*
X0000418Y0007141D01*
X0000489Y0006910D01*
X0000567Y0006681D01*
X0000650Y0006454D01*
X0000738Y0006229D01*
X0000832Y0006006D01*
X0000931Y0005786D01*
X0001036Y0005568D01*
X0001145Y0005353D01*
X0001260Y0005140D01*
X0001380Y0004930D01*
X0001505Y0004724D01*
X0001635Y0004520D01*
X0001770Y0004319D01*
X0001910Y0004122D01*
X0002054Y0003928D01*
X0002203Y0003738D01*
X0002357Y0003552D01*
X0002515Y0003369D01*
X0002677Y0003190D01*
X0002844Y0003015D01*
X0003015Y0002844D01*
X0003190Y0002677D01*
X0003369Y0002515D01*
X0003552Y0002357D01*
X0003738Y0002203D01*
X0003928Y0002054D01*
X0004122Y0001910D01*
X0004319Y0001770D01*
X0004520Y0001635D01*
X0004724Y0001505D01*
X0004930Y0001380D01*
X0005140Y0001260D01*
X0005353Y0001145D01*
X0005568Y0001036D01*
X0005786Y0000931D01*
X0006006Y0000832D01*
X0006229Y0000738D01*
X0006454Y0000650D01*
X0006681Y0000567D01*
X0006910Y0000489D01*
X0007141Y0000418D01*
X0007373Y0000351D01*
X0007607Y0000291D01*
X0007842Y0000236D01*
X0008079Y0000186D01*
X0008316Y0000143D01*
X0008555Y0000105D01*
X0008795Y0000073D01*
X0009035Y0000047D01*
X0009276Y0000026D01*
X0009517Y0000012D01*
X0009758Y0000003D01*
X0010000Y0000000D01*
X0008069Y0037400D02*
X0007535Y0037400D01*
X0007001Y0037934D01*
X0007001Y0039001D01*
X0006468Y0039535D01*
X0005934Y0039535D01*
X0005400Y0039001D01*
X0005400Y0037934D01*
X0005934Y0037400D01*
X0008069Y0037400D02*
X0008603Y0037934D01*
X0008603Y0039001D01*
X0008069Y0039535D01*
X0008603Y0041083D02*
X0005400Y0041083D01*
X0005400Y0042685D01*
X0005934Y0043218D01*
X0008069Y0043218D01*
X0008603Y0042685D01*
X0008603Y0041083D01*
X0008069Y0048449D02*
X0005934Y0048449D01*
X0005400Y0048983D01*
X0005400Y0050051D01*
X0005934Y0050585D01*
X0005400Y0052133D02*
X0007535Y0052133D01*
X0008603Y0053200D01*
X0007535Y0054268D01*
X0005400Y0054268D01*
X0005400Y0055816D02*
X0008603Y0055816D01*
X0008603Y0057417D01*
X0008069Y0057951D01*
X0007001Y0057951D01*
X0006468Y0057417D01*
X0006468Y0055816D01*
X0006468Y0056883D02*
X0005400Y0057951D01*
X0005400Y0059499D02*
X0005400Y0061100D01*
X0005934Y0061634D01*
X0008069Y0061634D01*
X0008603Y0061100D01*
X0008603Y0059499D01*
X0005400Y0059499D01*
X0007001Y0054268D02*
X0007001Y0052133D01*
X0008069Y0050585D02*
X0008603Y0050051D01*
X0008603Y0048983D01*
X0008069Y0048449D01*
X0075148Y0066900D02*
X0077283Y0066900D01*
X0075148Y0069035D01*
X0075148Y0069569D01*
X0075682Y0070103D01*
X0076749Y0070103D01*
X0077283Y0069569D01*
X0078831Y0069569D02*
X0078831Y0068501D01*
X0079365Y0067968D01*
X0080966Y0067968D01*
X0080966Y0066900D02*
X0080966Y0070103D01*
X0079365Y0070103D01*
X0078831Y0069569D01*
X0082514Y0070103D02*
X0083582Y0070103D01*
X0083048Y0070103D02*
X0083048Y0067434D01*
X0083582Y0066900D01*
X0084116Y0066900D01*
X0084649Y0067434D01*
X0097782Y0115400D02*
X0099917Y0115400D01*
X0098849Y0115400D02*
X0098849Y0118603D01*
X0099917Y0117535D01*
X0101465Y0116468D02*
X0102532Y0115400D01*
X0103600Y0116468D01*
X0103600Y0118603D01*
X0101465Y0118603D02*
X0101465Y0116468D01*
X0103600Y0121332D02*
X0103600Y0124535D01*
X0101999Y0124535D01*
X0101465Y0124001D01*
X0101465Y0122934D01*
X0101999Y0122400D01*
X0103600Y0122400D01*
X0099917Y0122400D02*
X0098849Y0122400D01*
X0099383Y0122400D02*
X0099383Y0124535D01*
X0099917Y0124535D01*
X0099383Y0125603D02*
X0099383Y0126137D01*
X0099711Y0128400D02*
X0100778Y0128400D01*
X0100244Y0128400D02*
X0100244Y0130535D01*
X0100778Y0130535D01*
X0100244Y0131603D02*
X0100244Y0132137D01*
X0100791Y0134400D02*
X0102393Y0134400D01*
X0102927Y0134934D01*
X0102393Y0135468D01*
X0100791Y0135468D01*
X0100791Y0136001D02*
X0100791Y0134400D01*
X0099243Y0134400D02*
X0099243Y0136535D01*
X0098176Y0136535D02*
X0097642Y0136535D01*
X0098176Y0136535D02*
X0099243Y0135468D01*
X0100791Y0136001D02*
X0101325Y0136535D01*
X0102393Y0136535D01*
X0104475Y0136001D02*
X0104475Y0134400D01*
X0105542Y0134400D02*
X0105542Y0136001D01*
X0105008Y0136535D01*
X0104475Y0136001D01*
X0105542Y0136001D02*
X0106076Y0136535D01*
X0106610Y0136535D01*
X0106610Y0134400D01*
X0108158Y0134934D02*
X0108692Y0134400D01*
X0109759Y0134400D01*
X0110293Y0134934D01*
X0109759Y0136001D02*
X0108692Y0136001D01*
X0108158Y0135468D01*
X0108158Y0134934D01*
X0109759Y0136001D02*
X0110293Y0136535D01*
X0110293Y0137069D01*
X0109759Y0137603D01*
X0108692Y0137603D01*
X0108158Y0137069D01*
X0107611Y0131603D02*
X0108144Y0131069D01*
X0108144Y0130535D01*
X0107611Y0130001D01*
X0106543Y0130001D01*
X0106009Y0129468D01*
X0106009Y0128934D01*
X0106543Y0128400D01*
X0107611Y0128400D01*
X0108144Y0128934D01*
X0107611Y0131603D02*
X0106543Y0131603D01*
X0106009Y0131069D01*
X0104461Y0131603D02*
X0104461Y0128400D01*
X0104461Y0130001D02*
X0103927Y0130535D01*
X0102860Y0130535D01*
X0102326Y0130001D01*
X0102326Y0128400D01*
X0098323Y0128934D02*
X0098323Y0130001D01*
X0097789Y0130535D01*
X0096721Y0130535D01*
X0096188Y0130001D01*
X0096188Y0129468D01*
X0098323Y0129468D01*
X0098323Y0128934D02*
X0097789Y0128400D01*
X0096721Y0128400D01*
X0094640Y0128400D02*
X0093572Y0128400D01*
X0094106Y0128400D02*
X0094106Y0131603D01*
X0094640Y0131603D01*
X0095107Y0134400D02*
X0095640Y0134934D01*
X0095640Y0137069D01*
X0095107Y0136535D02*
X0096174Y0136535D01*
X0093719Y0137603D02*
X0093719Y0134400D01*
X0091584Y0134400D02*
X0091584Y0137603D01*
X0092651Y0136535D01*
X0093719Y0137603D01*
X0089502Y0136535D02*
X0088434Y0136535D01*
X0087900Y0136001D01*
X0087900Y0134400D01*
X0089502Y0134400D01*
X0090036Y0134934D01*
X0089502Y0135468D01*
X0087900Y0135468D01*
X0086352Y0136535D02*
X0085285Y0136535D01*
X0085819Y0137069D02*
X0085819Y0134934D01*
X0085285Y0134400D01*
X0083897Y0134400D02*
X0083897Y0136535D01*
X0083897Y0135468D02*
X0082829Y0136535D01*
X0082296Y0136535D01*
X0080828Y0136535D02*
X0080294Y0136535D01*
X0080294Y0134400D01*
X0080828Y0134400D02*
X0079760Y0134400D01*
X0078372Y0134400D02*
X0076237Y0136535D01*
X0078372Y0136535D02*
X0076237Y0134400D01*
X0077078Y0130535D02*
X0077612Y0130535D01*
X0078679Y0129468D01*
X0078679Y0130535D02*
X0078679Y0128400D01*
X0080227Y0128934D02*
X0080227Y0130001D01*
X0080761Y0130535D01*
X0081829Y0130535D01*
X0082362Y0130001D01*
X0082362Y0128934D01*
X0081829Y0128400D01*
X0080761Y0128400D01*
X0080227Y0128934D01*
X0083750Y0130001D02*
X0084818Y0130001D01*
X0084284Y0131069D02*
X0084284Y0128400D01*
X0079980Y0125603D02*
X0082115Y0122400D01*
X0083663Y0122400D02*
X0085798Y0124535D01*
X0087346Y0124001D02*
X0087346Y0122400D01*
X0088414Y0122400D02*
X0088414Y0124001D01*
X0087880Y0124535D01*
X0087346Y0124001D01*
X0088414Y0124001D02*
X0088948Y0124535D01*
X0089481Y0124535D01*
X0089481Y0122400D01*
X0090789Y0122400D02*
X0090789Y0122934D01*
X0091323Y0122934D01*
X0091323Y0122400D01*
X0090789Y0122400D01*
X0092711Y0122400D02*
X0093778Y0122400D01*
X0093245Y0122400D02*
X0093245Y0125603D01*
X0093778Y0125603D01*
X0095326Y0124535D02*
X0097461Y0122400D01*
X0097461Y0124535D02*
X0095326Y0122400D01*
X0091650Y0128400D02*
X0090049Y0128400D01*
X0090049Y0131603D01*
X0090049Y0130535D02*
X0091650Y0130535D01*
X0092184Y0130001D01*
X0092184Y0128934D01*
X0091650Y0128400D01*
X0084284Y0131069D02*
X0083750Y0131603D01*
X0080294Y0137603D02*
X0080294Y0138137D01*
X0071006Y0136535D02*
X0071006Y0134400D01*
X0071006Y0136001D02*
X0068871Y0136001D01*
X0068871Y0136535D02*
X0068871Y0134400D01*
X0067323Y0134400D02*
X0067323Y0137603D01*
X0065722Y0137603D01*
X0065188Y0137069D01*
X0065188Y0136001D01*
X0065722Y0135468D01*
X0067323Y0135468D01*
X0068871Y0136535D02*
X0069938Y0137603D01*
X0071006Y0136535D01*
X0070325Y0131603D02*
X0069792Y0131069D01*
X0069792Y0130001D01*
X0070325Y0129468D01*
X0071927Y0129468D01*
X0071927Y0128400D02*
X0071927Y0131603D01*
X0070325Y0131603D01*
X0068244Y0131603D02*
X0068244Y0128400D01*
X0068244Y0130001D02*
X0067710Y0130535D01*
X0066642Y0130535D01*
X0066109Y0130001D01*
X0066109Y0128400D01*
X0064561Y0128934D02*
X0064027Y0128400D01*
X0062959Y0128400D01*
X0062425Y0128934D01*
X0062425Y0130001D01*
X0062959Y0130535D01*
X0064027Y0130535D01*
X0064561Y0130001D01*
X0064561Y0128934D01*
X0065007Y0125069D02*
X0065007Y0122934D01*
X0064473Y0122400D01*
X0063085Y0122400D02*
X0060950Y0122400D01*
X0062018Y0122400D02*
X0062018Y0125603D01*
X0063085Y0124535D01*
X0064473Y0124535D02*
X0065541Y0124535D01*
X0067463Y0124535D02*
X0067463Y0122400D01*
X0067996Y0122400D02*
X0066929Y0122400D01*
X0067463Y0124535D02*
X0067996Y0124535D01*
X0067463Y0125603D02*
X0067463Y0126137D01*
X0069464Y0124535D02*
X0071066Y0123468D01*
X0069464Y0122400D01*
X0071066Y0122400D02*
X0071066Y0125603D01*
X0072614Y0124001D02*
X0072614Y0122400D01*
X0073681Y0122400D02*
X0073681Y0124001D01*
X0073147Y0124535D01*
X0072614Y0124001D01*
X0073681Y0124001D02*
X0074215Y0124535D01*
X0074749Y0124535D01*
X0074749Y0122400D01*
X0076297Y0122934D02*
X0076830Y0122400D01*
X0078432Y0122400D01*
X0077898Y0123468D02*
X0076830Y0123468D01*
X0076297Y0122934D01*
X0076297Y0124535D02*
X0077898Y0124535D01*
X0078432Y0124001D01*
X0077898Y0123468D01*
X0083663Y0124535D02*
X0085798Y0122400D01*
X0063640Y0134400D02*
X0063640Y0136535D01*
X0062572Y0137603D01*
X0061505Y0136535D01*
X0061505Y0134400D01*
X0059957Y0134400D02*
X0057821Y0134400D01*
X0058889Y0134400D02*
X0058889Y0137603D01*
X0059957Y0136535D01*
X0061505Y0136001D02*
X0063640Y0136001D01*
X0060344Y0131069D02*
X0060344Y0128934D01*
X0059810Y0128400D01*
X0058422Y0128934D02*
X0057888Y0128400D01*
X0056821Y0128400D01*
X0056287Y0128934D01*
X0056287Y0130001D01*
X0056821Y0130535D01*
X0057888Y0130535D01*
X0058422Y0130001D01*
X0058422Y0128934D01*
X0059810Y0130535D02*
X0060877Y0130535D01*
X0058869Y0125603D02*
X0057801Y0125603D01*
X0057267Y0125069D01*
X0059402Y0122934D01*
X0058869Y0122400D01*
X0057801Y0122400D01*
X0057267Y0122934D01*
X0057267Y0125069D01*
X0058869Y0125603D02*
X0059402Y0125069D01*
X0059402Y0122934D01*
X0054739Y0128400D02*
X0054739Y0130535D01*
X0053137Y0130535D01*
X0052604Y0130001D01*
X0052604Y0128400D01*
X0052590Y0134400D02*
X0050455Y0134400D01*
X0050455Y0136535D02*
X0050455Y0137069D01*
X0050989Y0137603D01*
X0052057Y0137603D01*
X0052590Y0137069D01*
X0054138Y0137069D02*
X0056273Y0134934D01*
X0055740Y0134400D01*
X0054672Y0134400D01*
X0054138Y0134934D01*
X0054138Y0137069D01*
X0054672Y0137603D01*
X0055740Y0137603D01*
X0056273Y0137069D01*
X0056273Y0134934D01*
X0052590Y0134400D02*
X0050455Y0136535D01*
X0152400Y0059901D02*
X0154001Y0058300D01*
X0153468Y0057766D02*
X0155603Y0059901D01*
X0155603Y0057766D02*
X0152400Y0057766D01*
X0152400Y0056218D02*
X0152400Y0054083D01*
X0155603Y0054083D01*
X0155069Y0052535D02*
X0155603Y0052001D01*
X0155603Y0050934D01*
X0155069Y0050400D01*
X0152934Y0050400D01*
X0152400Y0050934D01*
X0152400Y0052001D01*
X0152934Y0052535D01*
X0155603Y0039901D02*
X0155603Y0037766D01*
X0155603Y0038834D02*
X0152400Y0038834D01*
X0152400Y0036218D02*
X0154535Y0036218D01*
X0155603Y0035151D01*
X0154535Y0034083D01*
X0152400Y0034083D01*
X0154001Y0034083D02*
X0154001Y0036218D01*
X0152934Y0032535D02*
X0152400Y0032001D01*
X0152400Y0030400D01*
X0155603Y0030400D01*
X0155603Y0032001D01*
X0155069Y0032535D01*
X0152934Y0032535D01*
D11*
X0097404Y0019477D02*
X0097404Y0017075D01*
X0092600Y0017075D01*
X0092600Y0019477D01*
X0093401Y0020278D01*
X0096603Y0020278D01*
X0097404Y0019477D01*
X0097404Y0014753D02*
X0092600Y0014753D01*
X0097404Y0011551D01*
X0092600Y0011551D01*
X0093401Y0009229D02*
X0095002Y0009229D01*
X0095002Y0007627D01*
X0093401Y0006026D02*
X0092600Y0006827D01*
X0092600Y0008428D01*
X0093401Y0009229D01*
X0096603Y0009229D02*
X0097404Y0008428D01*
X0097404Y0006827D01*
X0096603Y0006026D01*
X0093401Y0006026D01*
X0087404Y0006827D02*
X0086603Y0006026D01*
X0083401Y0006026D01*
X0082600Y0006827D01*
X0082600Y0008428D01*
X0083401Y0009229D01*
X0082600Y0011551D02*
X0082600Y0014753D01*
X0082600Y0017075D02*
X0087404Y0017075D01*
X0085002Y0017876D02*
X0082600Y0020278D01*
X0084201Y0017075D02*
X0087404Y0020278D01*
X0077404Y0020278D02*
X0077404Y0017075D01*
X0077404Y0018677D02*
X0072600Y0018677D01*
X0072600Y0014753D02*
X0075803Y0014753D01*
X0077404Y0013152D01*
X0075803Y0011551D01*
X0072600Y0011551D01*
X0075002Y0011551D02*
X0075002Y0014753D01*
X0073401Y0009229D02*
X0076603Y0009229D01*
X0077404Y0008428D01*
X0077404Y0006026D01*
X0072600Y0006026D01*
X0072600Y0008428D01*
X0073401Y0009229D01*
X0067404Y0011551D02*
X0067404Y0014753D01*
X0065803Y0013953D02*
X0065002Y0014753D01*
X0063401Y0014753D01*
X0062600Y0013953D01*
X0062600Y0012351D01*
X0063401Y0011551D01*
X0065002Y0011551D02*
X0065803Y0013152D01*
X0065803Y0013953D01*
X0065002Y0011551D02*
X0067404Y0011551D01*
X0065002Y0009229D02*
X0065002Y0006026D01*
X0066603Y0007627D02*
X0063401Y0007627D01*
X0064201Y0017075D02*
X0062600Y0018677D01*
X0064201Y0020278D01*
X0067404Y0020278D01*
X0067404Y0017075D02*
X0064201Y0017075D01*
X0082600Y0011551D02*
X0087404Y0011551D01*
X0086603Y0009229D02*
X0087404Y0008428D01*
X0087404Y0006827D01*
D12*
X0101000Y0022500D02*
X0101000Y0047500D01*
X0059000Y0047500D01*
X0059000Y0022500D01*
X0101000Y0022500D01*
X0149000Y0035000D02*
X0151000Y0035000D01*
X0151000Y0055000D02*
X0149000Y0055000D01*
X0148090Y0103650D02*
X0146738Y0103650D01*
X0146288Y0104100D01*
X0146288Y0104551D01*
X0146738Y0105001D01*
X0148090Y0105001D01*
X0149235Y0104551D02*
X0149235Y0106352D01*
X0148090Y0106352D02*
X0146738Y0106352D01*
X0146288Y0105902D01*
X0146288Y0105452D01*
X0146738Y0105001D01*
X0145143Y0105001D02*
X0143341Y0105001D01*
X0143341Y0105452D02*
X0143341Y0103650D01*
X0143341Y0105452D02*
X0144242Y0106352D01*
X0145143Y0105452D01*
X0145143Y0103650D01*
X0148090Y0103650D02*
X0148090Y0106352D01*
X0149235Y0104551D02*
X0150135Y0103650D01*
X0151036Y0104551D01*
X0151036Y0106352D01*
X0142197Y0106352D02*
X0140395Y0106352D01*
X0141296Y0106352D02*
X0141296Y0103650D01*
X0019000Y0070000D02*
X0005000Y0070000D01*
X0005000Y0030000D02*
X0019000Y0030000D01*
D13*
X0065334Y0076292D02*
X0064000Y0077627D01*
X0065334Y0078961D01*
X0068003Y0078961D01*
X0068003Y0080896D02*
X0064667Y0080896D01*
X0064000Y0081563D01*
X0064000Y0082898D01*
X0064667Y0083565D01*
X0068003Y0083565D01*
X0067336Y0085500D02*
X0066669Y0085500D01*
X0066002Y0086167D01*
X0066002Y0087502D01*
X0065334Y0088169D01*
X0064667Y0088169D01*
X0064000Y0087502D01*
X0064000Y0086167D01*
X0064667Y0085500D01*
X0067336Y0085500D02*
X0068003Y0086167D01*
X0068003Y0087502D01*
X0067336Y0088169D01*
X0068003Y0090104D02*
X0068003Y0092106D01*
X0067336Y0092773D01*
X0066669Y0092773D01*
X0066002Y0092106D01*
X0066002Y0090104D01*
X0068003Y0090104D02*
X0064000Y0090104D01*
X0064000Y0092106D01*
X0064667Y0092773D01*
X0065334Y0092773D01*
X0066002Y0092106D01*
X0065334Y0076292D02*
X0068003Y0076292D01*
X0091000Y0081865D02*
X0091667Y0081198D01*
X0091000Y0081865D02*
X0091000Y0083200D01*
X0091667Y0083867D01*
X0093002Y0083867D01*
X0093669Y0083200D01*
X0093669Y0082533D01*
X0093002Y0081198D01*
X0095003Y0081198D01*
X0095003Y0083867D01*
X0095003Y0085802D02*
X0092334Y0085802D01*
X0091000Y0087136D01*
X0092334Y0088471D01*
X0095003Y0088471D01*
X0093002Y0079263D02*
X0093002Y0076594D01*
X0094336Y0077929D02*
X0091667Y0077929D01*
D14*
X0090000Y0073500D02*
X0090000Y0063500D01*
X0080000Y0063500D01*
X0070000Y0063500D01*
X0070000Y0073500D01*
X0080000Y0073500D01*
X0090000Y0073500D01*
X0080000Y0073500D02*
X0080000Y0063500D01*
X0141615Y0063867D02*
X0142182Y0063300D01*
X0143316Y0063300D01*
X0143883Y0063867D01*
X0143883Y0065001D02*
X0142749Y0065569D01*
X0142182Y0065569D01*
X0141615Y0065001D01*
X0141615Y0063867D01*
X0143883Y0065001D02*
X0143883Y0066703D01*
X0141615Y0066703D01*
X0145298Y0066136D02*
X0145298Y0063867D01*
X0145865Y0063300D01*
X0147566Y0063300D01*
X0147566Y0066703D01*
X0145865Y0066703D01*
X0145298Y0066136D01*
X0145865Y0073300D02*
X0145298Y0073867D01*
X0145298Y0076136D01*
X0145865Y0076703D01*
X0147566Y0076703D01*
X0147566Y0073300D01*
X0145865Y0073300D01*
X0143883Y0073867D02*
X0143316Y0073300D01*
X0142182Y0073300D01*
X0141615Y0073867D01*
X0141615Y0074434D01*
X0142182Y0075001D01*
X0143883Y0075001D01*
X0143883Y0073867D01*
X0143883Y0075001D02*
X0142749Y0076136D01*
X0141615Y0076703D01*
X0143883Y0083300D02*
X0143883Y0083867D01*
X0141615Y0086136D01*
X0141615Y0086703D01*
X0143883Y0086703D01*
X0145298Y0086136D02*
X0145298Y0083867D01*
X0145865Y0083300D01*
X0147566Y0083300D01*
X0147566Y0086703D01*
X0145865Y0086703D01*
X0145298Y0086136D01*
X0144313Y0093400D02*
X0144313Y0096603D01*
X0142949Y0096603D02*
X0141348Y0096603D01*
X0140814Y0096069D01*
X0140814Y0093934D01*
X0141348Y0093400D01*
X0142949Y0093400D01*
X0142949Y0096603D01*
X0144313Y0093400D02*
X0146448Y0096603D01*
X0146448Y0093400D01*
X0147812Y0093934D02*
X0147812Y0095001D01*
X0148879Y0095001D01*
X0147812Y0093934D02*
X0148346Y0093400D01*
X0149413Y0093400D01*
X0149947Y0093934D01*
X0149947Y0096069D01*
X0149413Y0096603D01*
X0148346Y0096603D01*
X0147812Y0096069D01*
X0147731Y0113300D02*
X0148865Y0114434D01*
X0148298Y0114434D02*
X0149999Y0114434D01*
X0149999Y0113300D02*
X0149999Y0116703D01*
X0148298Y0116703D01*
X0147731Y0116136D01*
X0147731Y0115001D01*
X0148298Y0114434D01*
X0146316Y0113867D02*
X0145749Y0113300D01*
X0144615Y0113300D01*
X0144048Y0113867D01*
X0144048Y0114434D01*
X0144615Y0115001D01*
X0145749Y0115001D01*
X0146316Y0115569D01*
X0146316Y0116136D01*
X0145749Y0116703D01*
X0144615Y0116703D01*
X0144048Y0116136D01*
X0142633Y0116703D02*
X0140365Y0116703D01*
X0141499Y0116703D02*
X0141499Y0113300D01*
X0136658Y0131800D02*
X0137225Y0132367D01*
X0136658Y0131800D02*
X0135523Y0131800D01*
X0134956Y0132367D01*
X0134956Y0132934D01*
X0135523Y0133501D01*
X0136090Y0133501D01*
X0135523Y0133501D02*
X0134956Y0134069D01*
X0134956Y0134636D01*
X0135523Y0135203D01*
X0136658Y0135203D01*
X0137225Y0134636D01*
X0133542Y0135203D02*
X0133542Y0132934D01*
X0132407Y0131800D01*
X0131273Y0132934D01*
X0131273Y0135203D01*
X0129858Y0134636D02*
X0129291Y0135203D01*
X0128157Y0135203D01*
X0127590Y0134636D01*
X0127590Y0134069D01*
X0128157Y0133501D01*
X0127590Y0132934D01*
X0127590Y0132367D01*
X0128157Y0131800D01*
X0129291Y0131800D01*
X0129858Y0132367D01*
X0128724Y0133501D02*
X0128157Y0133501D01*
X0124400Y0132034D02*
X0123866Y0131500D01*
X0123332Y0131500D01*
X0122799Y0132034D01*
X0122799Y0134703D01*
X0123332Y0134703D02*
X0122265Y0134703D01*
X0120901Y0134703D02*
X0120901Y0131500D01*
X0120901Y0132568D02*
X0119300Y0132568D01*
X0118766Y0133101D01*
X0118766Y0134169D01*
X0119300Y0134703D01*
X0120901Y0134703D01*
X0117402Y0133101D02*
X0115267Y0133101D01*
X0115801Y0131500D02*
X0115801Y0134703D01*
X0117402Y0133101D01*
X0044400Y0132034D02*
X0043866Y0131500D01*
X0043332Y0131500D01*
X0042799Y0132034D01*
X0042799Y0134703D01*
X0043332Y0134703D02*
X0042265Y0134703D01*
X0040901Y0134703D02*
X0039300Y0134703D01*
X0038766Y0134169D01*
X0038766Y0133101D01*
X0039300Y0132568D01*
X0040901Y0132568D01*
X0040901Y0131500D02*
X0040901Y0134703D01*
X0037402Y0134169D02*
X0036868Y0134703D01*
X0035801Y0134703D01*
X0035267Y0134169D01*
X0035267Y0133635D01*
X0035801Y0133101D01*
X0035267Y0132568D01*
X0035267Y0132034D01*
X0035801Y0131500D01*
X0036868Y0131500D01*
X0037402Y0132034D01*
X0036334Y0133101D02*
X0035801Y0133101D01*
X0031611Y0132934D02*
X0030477Y0131800D01*
X0029342Y0132934D01*
X0029342Y0135203D01*
X0027928Y0135203D02*
X0026793Y0135203D01*
X0027361Y0135203D02*
X0027361Y0131800D01*
X0027928Y0131800D02*
X0026793Y0131800D01*
X0025472Y0131800D02*
X0025472Y0135203D01*
X0023204Y0131800D01*
X0023204Y0135203D01*
X0031611Y0135203D02*
X0031611Y0132934D01*
X0018666Y0116603D02*
X0019200Y0116069D01*
X0019200Y0113934D01*
X0018666Y0113400D01*
X0017599Y0113400D01*
X0017065Y0113934D01*
X0017065Y0115001D01*
X0018132Y0115001D01*
X0017065Y0116069D02*
X0017599Y0116603D01*
X0018666Y0116603D01*
X0015701Y0116603D02*
X0013566Y0113400D01*
X0013566Y0116603D01*
X0012202Y0116603D02*
X0010601Y0116603D01*
X0010067Y0116069D01*
X0010067Y0113934D01*
X0010601Y0113400D01*
X0012202Y0113400D01*
X0012202Y0116603D01*
X0015701Y0116603D02*
X0015701Y0113400D01*
X0015517Y0106703D02*
X0013248Y0103300D01*
X0015517Y0103300D02*
X0013248Y0106703D01*
X0016931Y0106703D02*
X0019200Y0106703D01*
X0018066Y0106703D02*
X0018066Y0103300D01*
X0017499Y0096703D02*
X0016931Y0096136D01*
X0016931Y0095001D01*
X0017499Y0094434D01*
X0019200Y0094434D01*
X0019200Y0093300D02*
X0019200Y0096703D01*
X0017499Y0096703D01*
X0015517Y0096703D02*
X0013248Y0093300D01*
X0015517Y0093300D02*
X0013248Y0096703D01*
X0016931Y0093300D02*
X0018066Y0094434D01*
X0019200Y0086703D02*
X0019200Y0083300D01*
X0018066Y0084434D01*
X0016931Y0083300D01*
X0016931Y0086703D01*
X0015517Y0086703D02*
X0015517Y0083300D01*
X0015517Y0084434D02*
X0013248Y0086703D01*
X0011834Y0086703D02*
X0010132Y0086703D01*
X0009565Y0086136D01*
X0009565Y0085001D01*
X0010132Y0084434D01*
X0011834Y0084434D01*
X0011834Y0083300D02*
X0011834Y0086703D01*
X0014950Y0085001D02*
X0013248Y0083300D01*
X0014383Y0076703D02*
X0013248Y0075569D01*
X0013248Y0073300D01*
X0011834Y0073867D02*
X0011834Y0076136D01*
X0011267Y0076703D01*
X0010132Y0076703D01*
X0009565Y0076136D01*
X0009565Y0073867D02*
X0010132Y0073300D01*
X0011267Y0073300D01*
X0011834Y0073867D01*
X0013248Y0075001D02*
X0015517Y0075001D01*
X0015517Y0075569D02*
X0015517Y0073300D01*
X0016931Y0073867D02*
X0016931Y0076136D01*
X0017499Y0076703D01*
X0019200Y0076703D01*
X0019200Y0073300D01*
X0017499Y0073300D01*
X0016931Y0073867D01*
X0015517Y0075569D02*
X0014383Y0076703D01*
X0013248Y0066703D02*
X0015517Y0066703D01*
X0015517Y0065001D01*
X0014383Y0065569D01*
X0013815Y0065569D01*
X0013248Y0065001D01*
X0013248Y0063867D01*
X0013815Y0063300D01*
X0014950Y0063300D01*
X0015517Y0063867D01*
X0016931Y0063300D02*
X0016931Y0065569D01*
X0018066Y0066703D01*
X0019200Y0065569D01*
X0019200Y0063300D01*
X0019200Y0065001D02*
X0016931Y0065001D01*
X0018066Y0056703D02*
X0016931Y0055569D01*
X0016931Y0053300D01*
X0016931Y0055001D02*
X0019200Y0055001D01*
X0019200Y0055569D02*
X0018066Y0056703D01*
X0019200Y0055569D02*
X0019200Y0053300D01*
X0015517Y0055001D02*
X0013248Y0055001D01*
X0013815Y0053300D02*
X0013815Y0056703D01*
X0015517Y0055001D01*
X0014950Y0046703D02*
X0013815Y0046703D01*
X0013248Y0046136D01*
X0013248Y0045569D01*
X0013815Y0045001D01*
X0013248Y0044434D01*
X0013248Y0043867D01*
X0013815Y0043300D01*
X0014950Y0043300D01*
X0015517Y0043867D01*
X0016931Y0043300D02*
X0016931Y0045569D01*
X0018066Y0046703D01*
X0019200Y0045569D01*
X0019200Y0043300D01*
X0019200Y0045001D02*
X0016931Y0045001D01*
X0015517Y0046136D02*
X0014950Y0046703D01*
X0014383Y0045001D02*
X0013815Y0045001D01*
X0013815Y0036703D02*
X0014950Y0036703D01*
X0015517Y0036136D01*
X0016931Y0035569D02*
X0016931Y0033300D01*
X0015517Y0033300D02*
X0013248Y0035569D01*
X0013248Y0036136D01*
X0013815Y0036703D01*
X0016931Y0035569D02*
X0018066Y0036703D01*
X0019200Y0035569D01*
X0019200Y0033300D01*
X0019200Y0035001D02*
X0016931Y0035001D01*
X0015517Y0033300D02*
X0013248Y0033300D01*
X0014383Y0026703D02*
X0014383Y0023300D01*
X0015517Y0023300D02*
X0013248Y0023300D01*
X0016931Y0023300D02*
X0016931Y0025569D01*
X0018066Y0026703D01*
X0019200Y0025569D01*
X0019200Y0023300D01*
X0019200Y0025001D02*
X0016931Y0025001D01*
X0015517Y0025569D02*
X0014383Y0026703D01*
X0024999Y0008203D02*
X0024431Y0007636D01*
X0026700Y0005367D01*
X0026133Y0004800D01*
X0024999Y0004800D01*
X0024431Y0005367D01*
X0024431Y0007636D01*
X0024999Y0008203D02*
X0026133Y0008203D01*
X0026700Y0007636D01*
X0026700Y0005367D01*
X0028115Y0004800D02*
X0028115Y0007069D01*
X0029249Y0008203D01*
X0030383Y0007069D01*
X0030383Y0004800D01*
X0030383Y0006501D02*
X0028115Y0006501D01*
X0130431Y0005367D02*
X0130999Y0004800D01*
X0132133Y0004800D01*
X0132700Y0005367D01*
X0130431Y0007636D01*
X0130431Y0005367D01*
X0130431Y0007636D02*
X0130999Y0008203D01*
X0132133Y0008203D01*
X0132700Y0007636D01*
X0132700Y0005367D01*
X0134115Y0005367D02*
X0134115Y0007636D01*
X0134682Y0008203D01*
X0136383Y0008203D01*
X0136383Y0004800D01*
X0134682Y0004800D01*
X0134115Y0005367D01*
X0141615Y0023300D02*
X0143883Y0023300D01*
X0142749Y0023300D02*
X0142749Y0026703D01*
X0143883Y0025569D01*
X0145298Y0026136D02*
X0145298Y0023867D01*
X0145865Y0023300D01*
X0147566Y0023300D01*
X0147566Y0026703D01*
X0145865Y0026703D01*
X0145298Y0026136D01*
X0145865Y0033300D02*
X0145298Y0033867D01*
X0145298Y0036136D01*
X0145865Y0036703D01*
X0147566Y0036703D01*
X0147566Y0033300D01*
X0145865Y0033300D01*
X0143883Y0033300D02*
X0141615Y0035569D01*
X0141615Y0036136D01*
X0142182Y0036703D01*
X0143316Y0036703D01*
X0143883Y0036136D01*
X0143883Y0033300D02*
X0141615Y0033300D01*
X0142182Y0043300D02*
X0143316Y0043300D01*
X0143883Y0043867D01*
X0145298Y0043867D02*
X0145298Y0046136D01*
X0145865Y0046703D01*
X0147566Y0046703D01*
X0147566Y0043300D01*
X0145865Y0043300D01*
X0145298Y0043867D01*
X0142749Y0045001D02*
X0142182Y0045001D01*
X0141615Y0044434D01*
X0141615Y0043867D01*
X0142182Y0043300D01*
X0142182Y0045001D02*
X0141615Y0045569D01*
X0141615Y0046136D01*
X0142182Y0046703D01*
X0143316Y0046703D01*
X0143883Y0046136D01*
X0142182Y0053300D02*
X0142182Y0056703D01*
X0143883Y0055001D01*
X0141615Y0055001D01*
X0145298Y0053867D02*
X0145298Y0056136D01*
X0145865Y0056703D01*
X0147566Y0056703D01*
X0147566Y0053300D01*
X0145865Y0053300D01*
X0145298Y0053867D01*
D15*
X0085000Y0076000D02*
X0085000Y0094750D01*
X0075000Y0094750D02*
X0075000Y0076000D01*
D16*
X0075000Y0061000D02*
X0075000Y0051000D01*
X0085000Y0051000D02*
X0085000Y0061000D01*
D17*
X0085000Y0074500D03*
X0075000Y0074500D03*
D18*
X0075000Y0061500D03*
X0085000Y0061500D03*
D19*
X0143500Y0010000D02*
X0143502Y0010161D01*
X0143508Y0010321D01*
X0143518Y0010482D01*
X0143532Y0010642D01*
X0143550Y0010802D01*
X0143571Y0010961D01*
X0143597Y0011120D01*
X0143627Y0011278D01*
X0143660Y0011435D01*
X0143698Y0011592D01*
X0143739Y0011747D01*
X0143784Y0011901D01*
X0143833Y0012054D01*
X0143886Y0012206D01*
X0143942Y0012357D01*
X0144003Y0012506D01*
X0144066Y0012654D01*
X0144134Y0012800D01*
X0144205Y0012944D01*
X0144279Y0013086D01*
X0144357Y0013227D01*
X0144439Y0013365D01*
X0144524Y0013502D01*
X0144612Y0013636D01*
X0144704Y0013768D01*
X0144799Y0013898D01*
X0144897Y0014026D01*
X0144998Y0014151D01*
X0145102Y0014273D01*
X0145209Y0014393D01*
X0145319Y0014510D01*
X0145432Y0014625D01*
X0145548Y0014736D01*
X0145667Y0014845D01*
X0145788Y0014950D01*
X0145912Y0015053D01*
X0146038Y0015153D01*
X0146166Y0015249D01*
X0146297Y0015342D01*
X0146431Y0015432D01*
X0146566Y0015519D01*
X0146704Y0015602D01*
X0146843Y0015682D01*
X0146985Y0015758D01*
X0147128Y0015831D01*
X0147273Y0015900D01*
X0147420Y0015966D01*
X0147568Y0016028D01*
X0147718Y0016086D01*
X0147869Y0016141D01*
X0148022Y0016192D01*
X0148176Y0016239D01*
X0148331Y0016282D01*
X0148487Y0016321D01*
X0148643Y0016357D01*
X0148801Y0016388D01*
X0148959Y0016416D01*
X0149118Y0016440D01*
X0149278Y0016460D01*
X0149438Y0016476D01*
X0149598Y0016488D01*
X0149759Y0016496D01*
X0149920Y0016500D01*
X0150080Y0016500D01*
X0150241Y0016496D01*
X0150402Y0016488D01*
X0150562Y0016476D01*
X0150722Y0016460D01*
X0150882Y0016440D01*
X0151041Y0016416D01*
X0151199Y0016388D01*
X0151357Y0016357D01*
X0151513Y0016321D01*
X0151669Y0016282D01*
X0151824Y0016239D01*
X0151978Y0016192D01*
X0152131Y0016141D01*
X0152282Y0016086D01*
X0152432Y0016028D01*
X0152580Y0015966D01*
X0152727Y0015900D01*
X0152872Y0015831D01*
X0153015Y0015758D01*
X0153157Y0015682D01*
X0153296Y0015602D01*
X0153434Y0015519D01*
X0153569Y0015432D01*
X0153703Y0015342D01*
X0153834Y0015249D01*
X0153962Y0015153D01*
X0154088Y0015053D01*
X0154212Y0014950D01*
X0154333Y0014845D01*
X0154452Y0014736D01*
X0154568Y0014625D01*
X0154681Y0014510D01*
X0154791Y0014393D01*
X0154898Y0014273D01*
X0155002Y0014151D01*
X0155103Y0014026D01*
X0155201Y0013898D01*
X0155296Y0013768D01*
X0155388Y0013636D01*
X0155476Y0013502D01*
X0155561Y0013365D01*
X0155643Y0013227D01*
X0155721Y0013086D01*
X0155795Y0012944D01*
X0155866Y0012800D01*
X0155934Y0012654D01*
X0155997Y0012506D01*
X0156058Y0012357D01*
X0156114Y0012206D01*
X0156167Y0012054D01*
X0156216Y0011901D01*
X0156261Y0011747D01*
X0156302Y0011592D01*
X0156340Y0011435D01*
X0156373Y0011278D01*
X0156403Y0011120D01*
X0156429Y0010961D01*
X0156450Y0010802D01*
X0156468Y0010642D01*
X0156482Y0010482D01*
X0156492Y0010321D01*
X0156498Y0010161D01*
X0156500Y0010000D01*
X0156498Y0009839D01*
X0156492Y0009679D01*
X0156482Y0009518D01*
X0156468Y0009358D01*
X0156450Y0009198D01*
X0156429Y0009039D01*
X0156403Y0008880D01*
X0156373Y0008722D01*
X0156340Y0008565D01*
X0156302Y0008408D01*
X0156261Y0008253D01*
X0156216Y0008099D01*
X0156167Y0007946D01*
X0156114Y0007794D01*
X0156058Y0007643D01*
X0155997Y0007494D01*
X0155934Y0007346D01*
X0155866Y0007200D01*
X0155795Y0007056D01*
X0155721Y0006914D01*
X0155643Y0006773D01*
X0155561Y0006635D01*
X0155476Y0006498D01*
X0155388Y0006364D01*
X0155296Y0006232D01*
X0155201Y0006102D01*
X0155103Y0005974D01*
X0155002Y0005849D01*
X0154898Y0005727D01*
X0154791Y0005607D01*
X0154681Y0005490D01*
X0154568Y0005375D01*
X0154452Y0005264D01*
X0154333Y0005155D01*
X0154212Y0005050D01*
X0154088Y0004947D01*
X0153962Y0004847D01*
X0153834Y0004751D01*
X0153703Y0004658D01*
X0153569Y0004568D01*
X0153434Y0004481D01*
X0153296Y0004398D01*
X0153157Y0004318D01*
X0153015Y0004242D01*
X0152872Y0004169D01*
X0152727Y0004100D01*
X0152580Y0004034D01*
X0152432Y0003972D01*
X0152282Y0003914D01*
X0152131Y0003859D01*
X0151978Y0003808D01*
X0151824Y0003761D01*
X0151669Y0003718D01*
X0151513Y0003679D01*
X0151357Y0003643D01*
X0151199Y0003612D01*
X0151041Y0003584D01*
X0150882Y0003560D01*
X0150722Y0003540D01*
X0150562Y0003524D01*
X0150402Y0003512D01*
X0150241Y0003504D01*
X0150080Y0003500D01*
X0149920Y0003500D01*
X0149759Y0003504D01*
X0149598Y0003512D01*
X0149438Y0003524D01*
X0149278Y0003540D01*
X0149118Y0003560D01*
X0148959Y0003584D01*
X0148801Y0003612D01*
X0148643Y0003643D01*
X0148487Y0003679D01*
X0148331Y0003718D01*
X0148176Y0003761D01*
X0148022Y0003808D01*
X0147869Y0003859D01*
X0147718Y0003914D01*
X0147568Y0003972D01*
X0147420Y0004034D01*
X0147273Y0004100D01*
X0147128Y0004169D01*
X0146985Y0004242D01*
X0146843Y0004318D01*
X0146704Y0004398D01*
X0146566Y0004481D01*
X0146431Y0004568D01*
X0146297Y0004658D01*
X0146166Y0004751D01*
X0146038Y0004847D01*
X0145912Y0004947D01*
X0145788Y0005050D01*
X0145667Y0005155D01*
X0145548Y0005264D01*
X0145432Y0005375D01*
X0145319Y0005490D01*
X0145209Y0005607D01*
X0145102Y0005727D01*
X0144998Y0005849D01*
X0144897Y0005974D01*
X0144799Y0006102D01*
X0144704Y0006232D01*
X0144612Y0006364D01*
X0144524Y0006498D01*
X0144439Y0006635D01*
X0144357Y0006773D01*
X0144279Y0006914D01*
X0144205Y0007056D01*
X0144134Y0007200D01*
X0144066Y0007346D01*
X0144003Y0007494D01*
X0143942Y0007643D01*
X0143886Y0007794D01*
X0143833Y0007946D01*
X0143784Y0008099D01*
X0143739Y0008253D01*
X0143698Y0008408D01*
X0143660Y0008565D01*
X0143627Y0008722D01*
X0143597Y0008880D01*
X0143571Y0009039D01*
X0143550Y0009198D01*
X0143532Y0009358D01*
X0143518Y0009518D01*
X0143508Y0009679D01*
X0143502Y0009839D01*
X0143500Y0010000D01*
X0113000Y0005000D02*
X0113002Y0005089D01*
X0113008Y0005178D01*
X0113018Y0005267D01*
X0113032Y0005355D01*
X0113049Y0005442D01*
X0113071Y0005528D01*
X0113097Y0005614D01*
X0113126Y0005698D01*
X0113159Y0005781D01*
X0113195Y0005862D01*
X0113236Y0005942D01*
X0113279Y0006019D01*
X0113326Y0006095D01*
X0113377Y0006168D01*
X0113430Y0006239D01*
X0113487Y0006308D01*
X0113547Y0006374D01*
X0113610Y0006438D01*
X0113675Y0006498D01*
X0113743Y0006556D01*
X0113814Y0006610D01*
X0113887Y0006661D01*
X0113962Y0006709D01*
X0114039Y0006754D01*
X0114118Y0006795D01*
X0114199Y0006832D01*
X0114281Y0006866D01*
X0114365Y0006897D01*
X0114450Y0006923D01*
X0114536Y0006946D01*
X0114623Y0006964D01*
X0114711Y0006979D01*
X0114800Y0006990D01*
X0114889Y0006997D01*
X0114978Y0007000D01*
X0115067Y0006999D01*
X0115156Y0006994D01*
X0115244Y0006985D01*
X0115333Y0006972D01*
X0115420Y0006955D01*
X0115507Y0006935D01*
X0115593Y0006910D01*
X0115677Y0006882D01*
X0115760Y0006850D01*
X0115842Y0006814D01*
X0115922Y0006775D01*
X0116000Y0006732D01*
X0116076Y0006686D01*
X0116150Y0006636D01*
X0116222Y0006583D01*
X0116291Y0006527D01*
X0116358Y0006468D01*
X0116422Y0006406D01*
X0116483Y0006342D01*
X0116542Y0006274D01*
X0116597Y0006204D01*
X0116649Y0006132D01*
X0116698Y0006057D01*
X0116743Y0005981D01*
X0116785Y0005902D01*
X0116823Y0005822D01*
X0116858Y0005740D01*
X0116889Y0005656D01*
X0116917Y0005571D01*
X0116940Y0005485D01*
X0116960Y0005398D01*
X0116976Y0005311D01*
X0116988Y0005222D01*
X0116996Y0005134D01*
X0117000Y0005045D01*
X0117000Y0004955D01*
X0116996Y0004866D01*
X0116988Y0004778D01*
X0116976Y0004689D01*
X0116960Y0004602D01*
X0116940Y0004515D01*
X0116917Y0004429D01*
X0116889Y0004344D01*
X0116858Y0004260D01*
X0116823Y0004178D01*
X0116785Y0004098D01*
X0116743Y0004019D01*
X0116698Y0003943D01*
X0116649Y0003868D01*
X0116597Y0003796D01*
X0116542Y0003726D01*
X0116483Y0003658D01*
X0116422Y0003594D01*
X0116358Y0003532D01*
X0116291Y0003473D01*
X0116222Y0003417D01*
X0116150Y0003364D01*
X0116076Y0003314D01*
X0116000Y0003268D01*
X0115922Y0003225D01*
X0115842Y0003186D01*
X0115760Y0003150D01*
X0115677Y0003118D01*
X0115593Y0003090D01*
X0115507Y0003065D01*
X0115420Y0003045D01*
X0115333Y0003028D01*
X0115244Y0003015D01*
X0115156Y0003006D01*
X0115067Y0003001D01*
X0114978Y0003000D01*
X0114889Y0003003D01*
X0114800Y0003010D01*
X0114711Y0003021D01*
X0114623Y0003036D01*
X0114536Y0003054D01*
X0114450Y0003077D01*
X0114365Y0003103D01*
X0114281Y0003134D01*
X0114199Y0003168D01*
X0114118Y0003205D01*
X0114039Y0003246D01*
X0113962Y0003291D01*
X0113887Y0003339D01*
X0113814Y0003390D01*
X0113743Y0003444D01*
X0113675Y0003502D01*
X0113610Y0003562D01*
X0113547Y0003626D01*
X0113487Y0003692D01*
X0113430Y0003761D01*
X0113377Y0003832D01*
X0113326Y0003905D01*
X0113279Y0003981D01*
X0113236Y0004058D01*
X0113195Y0004138D01*
X0113159Y0004219D01*
X0113126Y0004302D01*
X0113097Y0004386D01*
X0113071Y0004472D01*
X0113049Y0004558D01*
X0113032Y0004645D01*
X0113018Y0004733D01*
X0113008Y0004822D01*
X0113002Y0004911D01*
X0113000Y0005000D01*
X0043000Y0005000D02*
X0043002Y0005089D01*
X0043008Y0005178D01*
X0043018Y0005267D01*
X0043032Y0005355D01*
X0043049Y0005442D01*
X0043071Y0005528D01*
X0043097Y0005614D01*
X0043126Y0005698D01*
X0043159Y0005781D01*
X0043195Y0005862D01*
X0043236Y0005942D01*
X0043279Y0006019D01*
X0043326Y0006095D01*
X0043377Y0006168D01*
X0043430Y0006239D01*
X0043487Y0006308D01*
X0043547Y0006374D01*
X0043610Y0006438D01*
X0043675Y0006498D01*
X0043743Y0006556D01*
X0043814Y0006610D01*
X0043887Y0006661D01*
X0043962Y0006709D01*
X0044039Y0006754D01*
X0044118Y0006795D01*
X0044199Y0006832D01*
X0044281Y0006866D01*
X0044365Y0006897D01*
X0044450Y0006923D01*
X0044536Y0006946D01*
X0044623Y0006964D01*
X0044711Y0006979D01*
X0044800Y0006990D01*
X0044889Y0006997D01*
X0044978Y0007000D01*
X0045067Y0006999D01*
X0045156Y0006994D01*
X0045244Y0006985D01*
X0045333Y0006972D01*
X0045420Y0006955D01*
X0045507Y0006935D01*
X0045593Y0006910D01*
X0045677Y0006882D01*
X0045760Y0006850D01*
X0045842Y0006814D01*
X0045922Y0006775D01*
X0046000Y0006732D01*
X0046076Y0006686D01*
X0046150Y0006636D01*
X0046222Y0006583D01*
X0046291Y0006527D01*
X0046358Y0006468D01*
X0046422Y0006406D01*
X0046483Y0006342D01*
X0046542Y0006274D01*
X0046597Y0006204D01*
X0046649Y0006132D01*
X0046698Y0006057D01*
X0046743Y0005981D01*
X0046785Y0005902D01*
X0046823Y0005822D01*
X0046858Y0005740D01*
X0046889Y0005656D01*
X0046917Y0005571D01*
X0046940Y0005485D01*
X0046960Y0005398D01*
X0046976Y0005311D01*
X0046988Y0005222D01*
X0046996Y0005134D01*
X0047000Y0005045D01*
X0047000Y0004955D01*
X0046996Y0004866D01*
X0046988Y0004778D01*
X0046976Y0004689D01*
X0046960Y0004602D01*
X0046940Y0004515D01*
X0046917Y0004429D01*
X0046889Y0004344D01*
X0046858Y0004260D01*
X0046823Y0004178D01*
X0046785Y0004098D01*
X0046743Y0004019D01*
X0046698Y0003943D01*
X0046649Y0003868D01*
X0046597Y0003796D01*
X0046542Y0003726D01*
X0046483Y0003658D01*
X0046422Y0003594D01*
X0046358Y0003532D01*
X0046291Y0003473D01*
X0046222Y0003417D01*
X0046150Y0003364D01*
X0046076Y0003314D01*
X0046000Y0003268D01*
X0045922Y0003225D01*
X0045842Y0003186D01*
X0045760Y0003150D01*
X0045677Y0003118D01*
X0045593Y0003090D01*
X0045507Y0003065D01*
X0045420Y0003045D01*
X0045333Y0003028D01*
X0045244Y0003015D01*
X0045156Y0003006D01*
X0045067Y0003001D01*
X0044978Y0003000D01*
X0044889Y0003003D01*
X0044800Y0003010D01*
X0044711Y0003021D01*
X0044623Y0003036D01*
X0044536Y0003054D01*
X0044450Y0003077D01*
X0044365Y0003103D01*
X0044281Y0003134D01*
X0044199Y0003168D01*
X0044118Y0003205D01*
X0044039Y0003246D01*
X0043962Y0003291D01*
X0043887Y0003339D01*
X0043814Y0003390D01*
X0043743Y0003444D01*
X0043675Y0003502D01*
X0043610Y0003562D01*
X0043547Y0003626D01*
X0043487Y0003692D01*
X0043430Y0003761D01*
X0043377Y0003832D01*
X0043326Y0003905D01*
X0043279Y0003981D01*
X0043236Y0004058D01*
X0043195Y0004138D01*
X0043159Y0004219D01*
X0043126Y0004302D01*
X0043097Y0004386D01*
X0043071Y0004472D01*
X0043049Y0004558D01*
X0043032Y0004645D01*
X0043018Y0004733D01*
X0043008Y0004822D01*
X0043002Y0004911D01*
X0043000Y0005000D01*
X0003500Y0010000D02*
X0003502Y0010161D01*
X0003508Y0010321D01*
X0003518Y0010482D01*
X0003532Y0010642D01*
X0003550Y0010802D01*
X0003571Y0010961D01*
X0003597Y0011120D01*
X0003627Y0011278D01*
X0003660Y0011435D01*
X0003698Y0011592D01*
X0003739Y0011747D01*
X0003784Y0011901D01*
X0003833Y0012054D01*
X0003886Y0012206D01*
X0003942Y0012357D01*
X0004003Y0012506D01*
X0004066Y0012654D01*
X0004134Y0012800D01*
X0004205Y0012944D01*
X0004279Y0013086D01*
X0004357Y0013227D01*
X0004439Y0013365D01*
X0004524Y0013502D01*
X0004612Y0013636D01*
X0004704Y0013768D01*
X0004799Y0013898D01*
X0004897Y0014026D01*
X0004998Y0014151D01*
X0005102Y0014273D01*
X0005209Y0014393D01*
X0005319Y0014510D01*
X0005432Y0014625D01*
X0005548Y0014736D01*
X0005667Y0014845D01*
X0005788Y0014950D01*
X0005912Y0015053D01*
X0006038Y0015153D01*
X0006166Y0015249D01*
X0006297Y0015342D01*
X0006431Y0015432D01*
X0006566Y0015519D01*
X0006704Y0015602D01*
X0006843Y0015682D01*
X0006985Y0015758D01*
X0007128Y0015831D01*
X0007273Y0015900D01*
X0007420Y0015966D01*
X0007568Y0016028D01*
X0007718Y0016086D01*
X0007869Y0016141D01*
X0008022Y0016192D01*
X0008176Y0016239D01*
X0008331Y0016282D01*
X0008487Y0016321D01*
X0008643Y0016357D01*
X0008801Y0016388D01*
X0008959Y0016416D01*
X0009118Y0016440D01*
X0009278Y0016460D01*
X0009438Y0016476D01*
X0009598Y0016488D01*
X0009759Y0016496D01*
X0009920Y0016500D01*
X0010080Y0016500D01*
X0010241Y0016496D01*
X0010402Y0016488D01*
X0010562Y0016476D01*
X0010722Y0016460D01*
X0010882Y0016440D01*
X0011041Y0016416D01*
X0011199Y0016388D01*
X0011357Y0016357D01*
X0011513Y0016321D01*
X0011669Y0016282D01*
X0011824Y0016239D01*
X0011978Y0016192D01*
X0012131Y0016141D01*
X0012282Y0016086D01*
X0012432Y0016028D01*
X0012580Y0015966D01*
X0012727Y0015900D01*
X0012872Y0015831D01*
X0013015Y0015758D01*
X0013157Y0015682D01*
X0013296Y0015602D01*
X0013434Y0015519D01*
X0013569Y0015432D01*
X0013703Y0015342D01*
X0013834Y0015249D01*
X0013962Y0015153D01*
X0014088Y0015053D01*
X0014212Y0014950D01*
X0014333Y0014845D01*
X0014452Y0014736D01*
X0014568Y0014625D01*
X0014681Y0014510D01*
X0014791Y0014393D01*
X0014898Y0014273D01*
X0015002Y0014151D01*
X0015103Y0014026D01*
X0015201Y0013898D01*
X0015296Y0013768D01*
X0015388Y0013636D01*
X0015476Y0013502D01*
X0015561Y0013365D01*
X0015643Y0013227D01*
X0015721Y0013086D01*
X0015795Y0012944D01*
X0015866Y0012800D01*
X0015934Y0012654D01*
X0015997Y0012506D01*
X0016058Y0012357D01*
X0016114Y0012206D01*
X0016167Y0012054D01*
X0016216Y0011901D01*
X0016261Y0011747D01*
X0016302Y0011592D01*
X0016340Y0011435D01*
X0016373Y0011278D01*
X0016403Y0011120D01*
X0016429Y0010961D01*
X0016450Y0010802D01*
X0016468Y0010642D01*
X0016482Y0010482D01*
X0016492Y0010321D01*
X0016498Y0010161D01*
X0016500Y0010000D01*
X0016498Y0009839D01*
X0016492Y0009679D01*
X0016482Y0009518D01*
X0016468Y0009358D01*
X0016450Y0009198D01*
X0016429Y0009039D01*
X0016403Y0008880D01*
X0016373Y0008722D01*
X0016340Y0008565D01*
X0016302Y0008408D01*
X0016261Y0008253D01*
X0016216Y0008099D01*
X0016167Y0007946D01*
X0016114Y0007794D01*
X0016058Y0007643D01*
X0015997Y0007494D01*
X0015934Y0007346D01*
X0015866Y0007200D01*
X0015795Y0007056D01*
X0015721Y0006914D01*
X0015643Y0006773D01*
X0015561Y0006635D01*
X0015476Y0006498D01*
X0015388Y0006364D01*
X0015296Y0006232D01*
X0015201Y0006102D01*
X0015103Y0005974D01*
X0015002Y0005849D01*
X0014898Y0005727D01*
X0014791Y0005607D01*
X0014681Y0005490D01*
X0014568Y0005375D01*
X0014452Y0005264D01*
X0014333Y0005155D01*
X0014212Y0005050D01*
X0014088Y0004947D01*
X0013962Y0004847D01*
X0013834Y0004751D01*
X0013703Y0004658D01*
X0013569Y0004568D01*
X0013434Y0004481D01*
X0013296Y0004398D01*
X0013157Y0004318D01*
X0013015Y0004242D01*
X0012872Y0004169D01*
X0012727Y0004100D01*
X0012580Y0004034D01*
X0012432Y0003972D01*
X0012282Y0003914D01*
X0012131Y0003859D01*
X0011978Y0003808D01*
X0011824Y0003761D01*
X0011669Y0003718D01*
X0011513Y0003679D01*
X0011357Y0003643D01*
X0011199Y0003612D01*
X0011041Y0003584D01*
X0010882Y0003560D01*
X0010722Y0003540D01*
X0010562Y0003524D01*
X0010402Y0003512D01*
X0010241Y0003504D01*
X0010080Y0003500D01*
X0009920Y0003500D01*
X0009759Y0003504D01*
X0009598Y0003512D01*
X0009438Y0003524D01*
X0009278Y0003540D01*
X0009118Y0003560D01*
X0008959Y0003584D01*
X0008801Y0003612D01*
X0008643Y0003643D01*
X0008487Y0003679D01*
X0008331Y0003718D01*
X0008176Y0003761D01*
X0008022Y0003808D01*
X0007869Y0003859D01*
X0007718Y0003914D01*
X0007568Y0003972D01*
X0007420Y0004034D01*
X0007273Y0004100D01*
X0007128Y0004169D01*
X0006985Y0004242D01*
X0006843Y0004318D01*
X0006704Y0004398D01*
X0006566Y0004481D01*
X0006431Y0004568D01*
X0006297Y0004658D01*
X0006166Y0004751D01*
X0006038Y0004847D01*
X0005912Y0004947D01*
X0005788Y0005050D01*
X0005667Y0005155D01*
X0005548Y0005264D01*
X0005432Y0005375D01*
X0005319Y0005490D01*
X0005209Y0005607D01*
X0005102Y0005727D01*
X0004998Y0005849D01*
X0004897Y0005974D01*
X0004799Y0006102D01*
X0004704Y0006232D01*
X0004612Y0006364D01*
X0004524Y0006498D01*
X0004439Y0006635D01*
X0004357Y0006773D01*
X0004279Y0006914D01*
X0004205Y0007056D01*
X0004134Y0007200D01*
X0004066Y0007346D01*
X0004003Y0007494D01*
X0003942Y0007643D01*
X0003886Y0007794D01*
X0003833Y0007946D01*
X0003784Y0008099D01*
X0003739Y0008253D01*
X0003698Y0008408D01*
X0003660Y0008565D01*
X0003627Y0008722D01*
X0003597Y0008880D01*
X0003571Y0009039D01*
X0003550Y0009198D01*
X0003532Y0009358D01*
X0003518Y0009518D01*
X0003508Y0009679D01*
X0003502Y0009839D01*
X0003500Y0010000D01*
X0003500Y0130000D02*
X0003502Y0130161D01*
X0003508Y0130321D01*
X0003518Y0130482D01*
X0003532Y0130642D01*
X0003550Y0130802D01*
X0003571Y0130961D01*
X0003597Y0131120D01*
X0003627Y0131278D01*
X0003660Y0131435D01*
X0003698Y0131592D01*
X0003739Y0131747D01*
X0003784Y0131901D01*
X0003833Y0132054D01*
X0003886Y0132206D01*
X0003942Y0132357D01*
X0004003Y0132506D01*
X0004066Y0132654D01*
X0004134Y0132800D01*
X0004205Y0132944D01*
X0004279Y0133086D01*
X0004357Y0133227D01*
X0004439Y0133365D01*
X0004524Y0133502D01*
X0004612Y0133636D01*
X0004704Y0133768D01*
X0004799Y0133898D01*
X0004897Y0134026D01*
X0004998Y0134151D01*
X0005102Y0134273D01*
X0005209Y0134393D01*
X0005319Y0134510D01*
X0005432Y0134625D01*
X0005548Y0134736D01*
X0005667Y0134845D01*
X0005788Y0134950D01*
X0005912Y0135053D01*
X0006038Y0135153D01*
X0006166Y0135249D01*
X0006297Y0135342D01*
X0006431Y0135432D01*
X0006566Y0135519D01*
X0006704Y0135602D01*
X0006843Y0135682D01*
X0006985Y0135758D01*
X0007128Y0135831D01*
X0007273Y0135900D01*
X0007420Y0135966D01*
X0007568Y0136028D01*
X0007718Y0136086D01*
X0007869Y0136141D01*
X0008022Y0136192D01*
X0008176Y0136239D01*
X0008331Y0136282D01*
X0008487Y0136321D01*
X0008643Y0136357D01*
X0008801Y0136388D01*
X0008959Y0136416D01*
X0009118Y0136440D01*
X0009278Y0136460D01*
X0009438Y0136476D01*
X0009598Y0136488D01*
X0009759Y0136496D01*
X0009920Y0136500D01*
X0010080Y0136500D01*
X0010241Y0136496D01*
X0010402Y0136488D01*
X0010562Y0136476D01*
X0010722Y0136460D01*
X0010882Y0136440D01*
X0011041Y0136416D01*
X0011199Y0136388D01*
X0011357Y0136357D01*
X0011513Y0136321D01*
X0011669Y0136282D01*
X0011824Y0136239D01*
X0011978Y0136192D01*
X0012131Y0136141D01*
X0012282Y0136086D01*
X0012432Y0136028D01*
X0012580Y0135966D01*
X0012727Y0135900D01*
X0012872Y0135831D01*
X0013015Y0135758D01*
X0013157Y0135682D01*
X0013296Y0135602D01*
X0013434Y0135519D01*
X0013569Y0135432D01*
X0013703Y0135342D01*
X0013834Y0135249D01*
X0013962Y0135153D01*
X0014088Y0135053D01*
X0014212Y0134950D01*
X0014333Y0134845D01*
X0014452Y0134736D01*
X0014568Y0134625D01*
X0014681Y0134510D01*
X0014791Y0134393D01*
X0014898Y0134273D01*
X0015002Y0134151D01*
X0015103Y0134026D01*
X0015201Y0133898D01*
X0015296Y0133768D01*
X0015388Y0133636D01*
X0015476Y0133502D01*
X0015561Y0133365D01*
X0015643Y0133227D01*
X0015721Y0133086D01*
X0015795Y0132944D01*
X0015866Y0132800D01*
X0015934Y0132654D01*
X0015997Y0132506D01*
X0016058Y0132357D01*
X0016114Y0132206D01*
X0016167Y0132054D01*
X0016216Y0131901D01*
X0016261Y0131747D01*
X0016302Y0131592D01*
X0016340Y0131435D01*
X0016373Y0131278D01*
X0016403Y0131120D01*
X0016429Y0130961D01*
X0016450Y0130802D01*
X0016468Y0130642D01*
X0016482Y0130482D01*
X0016492Y0130321D01*
X0016498Y0130161D01*
X0016500Y0130000D01*
X0016498Y0129839D01*
X0016492Y0129679D01*
X0016482Y0129518D01*
X0016468Y0129358D01*
X0016450Y0129198D01*
X0016429Y0129039D01*
X0016403Y0128880D01*
X0016373Y0128722D01*
X0016340Y0128565D01*
X0016302Y0128408D01*
X0016261Y0128253D01*
X0016216Y0128099D01*
X0016167Y0127946D01*
X0016114Y0127794D01*
X0016058Y0127643D01*
X0015997Y0127494D01*
X0015934Y0127346D01*
X0015866Y0127200D01*
X0015795Y0127056D01*
X0015721Y0126914D01*
X0015643Y0126773D01*
X0015561Y0126635D01*
X0015476Y0126498D01*
X0015388Y0126364D01*
X0015296Y0126232D01*
X0015201Y0126102D01*
X0015103Y0125974D01*
X0015002Y0125849D01*
X0014898Y0125727D01*
X0014791Y0125607D01*
X0014681Y0125490D01*
X0014568Y0125375D01*
X0014452Y0125264D01*
X0014333Y0125155D01*
X0014212Y0125050D01*
X0014088Y0124947D01*
X0013962Y0124847D01*
X0013834Y0124751D01*
X0013703Y0124658D01*
X0013569Y0124568D01*
X0013434Y0124481D01*
X0013296Y0124398D01*
X0013157Y0124318D01*
X0013015Y0124242D01*
X0012872Y0124169D01*
X0012727Y0124100D01*
X0012580Y0124034D01*
X0012432Y0123972D01*
X0012282Y0123914D01*
X0012131Y0123859D01*
X0011978Y0123808D01*
X0011824Y0123761D01*
X0011669Y0123718D01*
X0011513Y0123679D01*
X0011357Y0123643D01*
X0011199Y0123612D01*
X0011041Y0123584D01*
X0010882Y0123560D01*
X0010722Y0123540D01*
X0010562Y0123524D01*
X0010402Y0123512D01*
X0010241Y0123504D01*
X0010080Y0123500D01*
X0009920Y0123500D01*
X0009759Y0123504D01*
X0009598Y0123512D01*
X0009438Y0123524D01*
X0009278Y0123540D01*
X0009118Y0123560D01*
X0008959Y0123584D01*
X0008801Y0123612D01*
X0008643Y0123643D01*
X0008487Y0123679D01*
X0008331Y0123718D01*
X0008176Y0123761D01*
X0008022Y0123808D01*
X0007869Y0123859D01*
X0007718Y0123914D01*
X0007568Y0123972D01*
X0007420Y0124034D01*
X0007273Y0124100D01*
X0007128Y0124169D01*
X0006985Y0124242D01*
X0006843Y0124318D01*
X0006704Y0124398D01*
X0006566Y0124481D01*
X0006431Y0124568D01*
X0006297Y0124658D01*
X0006166Y0124751D01*
X0006038Y0124847D01*
X0005912Y0124947D01*
X0005788Y0125050D01*
X0005667Y0125155D01*
X0005548Y0125264D01*
X0005432Y0125375D01*
X0005319Y0125490D01*
X0005209Y0125607D01*
X0005102Y0125727D01*
X0004998Y0125849D01*
X0004897Y0125974D01*
X0004799Y0126102D01*
X0004704Y0126232D01*
X0004612Y0126364D01*
X0004524Y0126498D01*
X0004439Y0126635D01*
X0004357Y0126773D01*
X0004279Y0126914D01*
X0004205Y0127056D01*
X0004134Y0127200D01*
X0004066Y0127346D01*
X0004003Y0127494D01*
X0003942Y0127643D01*
X0003886Y0127794D01*
X0003833Y0127946D01*
X0003784Y0128099D01*
X0003739Y0128253D01*
X0003698Y0128408D01*
X0003660Y0128565D01*
X0003627Y0128722D01*
X0003597Y0128880D01*
X0003571Y0129039D01*
X0003550Y0129198D01*
X0003532Y0129358D01*
X0003518Y0129518D01*
X0003508Y0129679D01*
X0003502Y0129839D01*
X0003500Y0130000D01*
X0143500Y0130000D02*
X0143502Y0130161D01*
X0143508Y0130321D01*
X0143518Y0130482D01*
X0143532Y0130642D01*
X0143550Y0130802D01*
X0143571Y0130961D01*
X0143597Y0131120D01*
X0143627Y0131278D01*
X0143660Y0131435D01*
X0143698Y0131592D01*
X0143739Y0131747D01*
X0143784Y0131901D01*
X0143833Y0132054D01*
X0143886Y0132206D01*
X0143942Y0132357D01*
X0144003Y0132506D01*
X0144066Y0132654D01*
X0144134Y0132800D01*
X0144205Y0132944D01*
X0144279Y0133086D01*
X0144357Y0133227D01*
X0144439Y0133365D01*
X0144524Y0133502D01*
X0144612Y0133636D01*
X0144704Y0133768D01*
X0144799Y0133898D01*
X0144897Y0134026D01*
X0144998Y0134151D01*
X0145102Y0134273D01*
X0145209Y0134393D01*
X0145319Y0134510D01*
X0145432Y0134625D01*
X0145548Y0134736D01*
X0145667Y0134845D01*
X0145788Y0134950D01*
X0145912Y0135053D01*
X0146038Y0135153D01*
X0146166Y0135249D01*
X0146297Y0135342D01*
X0146431Y0135432D01*
X0146566Y0135519D01*
X0146704Y0135602D01*
X0146843Y0135682D01*
X0146985Y0135758D01*
X0147128Y0135831D01*
X0147273Y0135900D01*
X0147420Y0135966D01*
X0147568Y0136028D01*
X0147718Y0136086D01*
X0147869Y0136141D01*
X0148022Y0136192D01*
X0148176Y0136239D01*
X0148331Y0136282D01*
X0148487Y0136321D01*
X0148643Y0136357D01*
X0148801Y0136388D01*
X0148959Y0136416D01*
X0149118Y0136440D01*
X0149278Y0136460D01*
X0149438Y0136476D01*
X0149598Y0136488D01*
X0149759Y0136496D01*
X0149920Y0136500D01*
X0150080Y0136500D01*
X0150241Y0136496D01*
X0150402Y0136488D01*
X0150562Y0136476D01*
X0150722Y0136460D01*
X0150882Y0136440D01*
X0151041Y0136416D01*
X0151199Y0136388D01*
X0151357Y0136357D01*
X0151513Y0136321D01*
X0151669Y0136282D01*
X0151824Y0136239D01*
X0151978Y0136192D01*
X0152131Y0136141D01*
X0152282Y0136086D01*
X0152432Y0136028D01*
X0152580Y0135966D01*
X0152727Y0135900D01*
X0152872Y0135831D01*
X0153015Y0135758D01*
X0153157Y0135682D01*
X0153296Y0135602D01*
X0153434Y0135519D01*
X0153569Y0135432D01*
X0153703Y0135342D01*
X0153834Y0135249D01*
X0153962Y0135153D01*
X0154088Y0135053D01*
X0154212Y0134950D01*
X0154333Y0134845D01*
X0154452Y0134736D01*
X0154568Y0134625D01*
X0154681Y0134510D01*
X0154791Y0134393D01*
X0154898Y0134273D01*
X0155002Y0134151D01*
X0155103Y0134026D01*
X0155201Y0133898D01*
X0155296Y0133768D01*
X0155388Y0133636D01*
X0155476Y0133502D01*
X0155561Y0133365D01*
X0155643Y0133227D01*
X0155721Y0133086D01*
X0155795Y0132944D01*
X0155866Y0132800D01*
X0155934Y0132654D01*
X0155997Y0132506D01*
X0156058Y0132357D01*
X0156114Y0132206D01*
X0156167Y0132054D01*
X0156216Y0131901D01*
X0156261Y0131747D01*
X0156302Y0131592D01*
X0156340Y0131435D01*
X0156373Y0131278D01*
X0156403Y0131120D01*
X0156429Y0130961D01*
X0156450Y0130802D01*
X0156468Y0130642D01*
X0156482Y0130482D01*
X0156492Y0130321D01*
X0156498Y0130161D01*
X0156500Y0130000D01*
X0156498Y0129839D01*
X0156492Y0129679D01*
X0156482Y0129518D01*
X0156468Y0129358D01*
X0156450Y0129198D01*
X0156429Y0129039D01*
X0156403Y0128880D01*
X0156373Y0128722D01*
X0156340Y0128565D01*
X0156302Y0128408D01*
X0156261Y0128253D01*
X0156216Y0128099D01*
X0156167Y0127946D01*
X0156114Y0127794D01*
X0156058Y0127643D01*
X0155997Y0127494D01*
X0155934Y0127346D01*
X0155866Y0127200D01*
X0155795Y0127056D01*
X0155721Y0126914D01*
X0155643Y0126773D01*
X0155561Y0126635D01*
X0155476Y0126498D01*
X0155388Y0126364D01*
X0155296Y0126232D01*
X0155201Y0126102D01*
X0155103Y0125974D01*
X0155002Y0125849D01*
X0154898Y0125727D01*
X0154791Y0125607D01*
X0154681Y0125490D01*
X0154568Y0125375D01*
X0154452Y0125264D01*
X0154333Y0125155D01*
X0154212Y0125050D01*
X0154088Y0124947D01*
X0153962Y0124847D01*
X0153834Y0124751D01*
X0153703Y0124658D01*
X0153569Y0124568D01*
X0153434Y0124481D01*
X0153296Y0124398D01*
X0153157Y0124318D01*
X0153015Y0124242D01*
X0152872Y0124169D01*
X0152727Y0124100D01*
X0152580Y0124034D01*
X0152432Y0123972D01*
X0152282Y0123914D01*
X0152131Y0123859D01*
X0151978Y0123808D01*
X0151824Y0123761D01*
X0151669Y0123718D01*
X0151513Y0123679D01*
X0151357Y0123643D01*
X0151199Y0123612D01*
X0151041Y0123584D01*
X0150882Y0123560D01*
X0150722Y0123540D01*
X0150562Y0123524D01*
X0150402Y0123512D01*
X0150241Y0123504D01*
X0150080Y0123500D01*
X0149920Y0123500D01*
X0149759Y0123504D01*
X0149598Y0123512D01*
X0149438Y0123524D01*
X0149278Y0123540D01*
X0149118Y0123560D01*
X0148959Y0123584D01*
X0148801Y0123612D01*
X0148643Y0123643D01*
X0148487Y0123679D01*
X0148331Y0123718D01*
X0148176Y0123761D01*
X0148022Y0123808D01*
X0147869Y0123859D01*
X0147718Y0123914D01*
X0147568Y0123972D01*
X0147420Y0124034D01*
X0147273Y0124100D01*
X0147128Y0124169D01*
X0146985Y0124242D01*
X0146843Y0124318D01*
X0146704Y0124398D01*
X0146566Y0124481D01*
X0146431Y0124568D01*
X0146297Y0124658D01*
X0146166Y0124751D01*
X0146038Y0124847D01*
X0145912Y0124947D01*
X0145788Y0125050D01*
X0145667Y0125155D01*
X0145548Y0125264D01*
X0145432Y0125375D01*
X0145319Y0125490D01*
X0145209Y0125607D01*
X0145102Y0125727D01*
X0144998Y0125849D01*
X0144897Y0125974D01*
X0144799Y0126102D01*
X0144704Y0126232D01*
X0144612Y0126364D01*
X0144524Y0126498D01*
X0144439Y0126635D01*
X0144357Y0126773D01*
X0144279Y0126914D01*
X0144205Y0127056D01*
X0144134Y0127200D01*
X0144066Y0127346D01*
X0144003Y0127494D01*
X0143942Y0127643D01*
X0143886Y0127794D01*
X0143833Y0127946D01*
X0143784Y0128099D01*
X0143739Y0128253D01*
X0143698Y0128408D01*
X0143660Y0128565D01*
X0143627Y0128722D01*
X0143597Y0128880D01*
X0143571Y0129039D01*
X0143550Y0129198D01*
X0143532Y0129358D01*
X0143518Y0129518D01*
X0143508Y0129679D01*
X0143502Y0129839D01*
X0143500Y0130000D01*
D20*
X0130000Y0130000D02*
X0130000Y0127500D01*
X0130000Y0130000D02*
X0110000Y0130000D01*
X0110000Y0127500D01*
X0050000Y0127500D02*
X0050000Y0130000D01*
X0030000Y0130000D01*
X0030000Y0127500D01*
X0030000Y0012500D02*
X0030000Y0010000D01*
X0050000Y0010000D01*
X0050000Y0012500D01*
X0110000Y0012500D02*
X0110000Y0010000D01*
X0130000Y0010000D01*
X0130000Y0012500D01*
M02*
