%
M48
M72
T01C0.0160
T02C0.0230
T03C0.0400
T04C0.0551
T05C0.1300
%
T01
X10000Y5100
X8050Y6300
X8150Y9100
X7600Y9500
X8850Y9100
X8900Y10300
X8600Y11100
X8100Y11300
X9800Y11100
T02
X9400Y6700
X8600Y6300
X10100Y5700
X6500Y4600
T03
X4500Y4500
X3500Y4500
X2500Y4500
X2500Y3500
X3500Y3500
X4500Y3500
X4500Y2500
X3500Y2500
X2500Y2500
X2500Y1500
X3500Y1500
X4500Y1500
X4500Y500
X4500Y5500
X3500Y5500
X2500Y5500
X2500Y6500
X2500Y7500
X3500Y7500
X3500Y6500
X4500Y6500
X4500Y7500
X4500Y8500
X3500Y8500
X2500Y8500
X2500Y9500
X3500Y9500
X4500Y9500
X4500Y10500
X3500Y10500
X2500Y10500
X2500Y11500
X3500Y11500
X4500Y11500
X4500Y12500
X3500Y12500
X2500Y12500
X11500Y12500
X12500Y12500
X13500Y12500
X13500Y11500
X12500Y11500
X11500Y11500
X11500Y10500
X12500Y10500
X13500Y10500
X13500Y9500
X12500Y9500
X11500Y9500
X11500Y8500
X12500Y8500
X13500Y8500
X13500Y7500
X13500Y6500
X12500Y6500
X12500Y7500
X11500Y7500
X11500Y6500
X11500Y5500
X12500Y5500
X13500Y5500
X13500Y4500
X12500Y4500
X11500Y4500
X11500Y3500
X12500Y3500
X13500Y3500
X13500Y2500
X12500Y2500
X11500Y2500
X11500Y1500
X11500Y500
X12500Y1500
X13500Y1500
T04
X9500Y3400
X8500Y3400
X7500Y3400
X6500Y3400
T05
X1000Y1000
X15000Y1000
X15000Y13000
X1000Y13000
M30
